<svg width="327" height="80" viewBox="0 0 327 80" fill="none" xmlns="http://www.w3.org/2000/svg">
<path d="M202.315 37.6305V35.4086L206.471 35.0825V3.07327L202.315 2.7396V0.4646H209.557L230.79 32.3904L230.95 32.3373V3.07327L226.612 2.7396V0.4646H237.987V2.7396L233.831 3.07327V37.6305H230.972L209.496 5.57575L209.345 5.62884V35.0825L213.675 35.4086V37.6305H202.315Z" fill="white"/>
<path d="M258.03 38.1614C255.83 38.193 253.651 37.7318 251.652 36.8116C249.752 35.9129 248.08 34.5959 246.761 32.9592C245.344 31.1932 244.279 29.1727 243.621 27.0063C242.866 24.5141 242.498 21.9207 242.529 19.3168V18.8694C242.493 16.2552 242.862 13.6512 243.621 11.1496C244.272 8.99332 245.327 6.98071 246.73 5.21941C248.051 3.57744 249.726 2.25531 251.629 1.35191C253.627 0.429968 255.807 -0.0313335 258.007 0.0020788C260.234 -0.0350708 262.442 0.426116 264.468 1.35191C266.389 2.24448 268.078 3.56792 269.405 5.21941C270.808 6.9913 271.856 9.01783 272.491 11.1875C273.21 13.6834 273.552 16.2725 273.507 18.8694V19.3547C273.531 21.9441 273.17 24.5226 272.438 27.0063C271.818 29.167 270.789 31.1881 269.405 32.9592C268.092 34.599 266.421 35.9167 264.521 36.8116C262.485 37.7398 260.267 38.201 258.03 38.1614ZM258.03 35.4845C260.462 35.572 262.858 34.8667 264.855 33.4749C266.776 32.0368 268.234 30.0675 269.048 27.8101C270.053 25.0937 270.539 22.2127 270.481 19.3168V18.786C270.538 15.897 270.05 13.0231 269.041 10.3154C268.202 8.06692 266.736 6.10617 264.817 4.66582C262.833 3.27404 260.452 2.56356 258.03 2.64108C255.657 2.58066 253.329 3.29109 251.394 4.66582C249.469 6.11768 247.99 8.08023 247.125 10.3306C246.072 13.0231 245.557 15.8956 245.608 18.786V19.3168C245.557 22.2195 246.073 25.1044 247.125 27.8101C247.986 30.0672 249.472 32.0322 251.409 33.4749C253.345 34.8347 255.665 35.539 258.03 35.4845V35.4845Z" fill="white"/>
<path d="M289.19 37.6307L280.264 2.94454L277.435 2.76255V0.487549H287.385V2.76255L283.403 3.02038L289.349 27.1733L290.721 32.5271H290.873L292.428 27.2188L300.875 0.548205H303.727L312.197 27.2112L313.714 32.6712H313.866L315.382 27.2112L321.244 3.03554L317.142 2.77771V0.502707H327V2.77771L324.27 2.9597L315.519 37.6686H312.486L303.53 9.09461L302.385 5.37121H302.225L301.133 9.09461L292.132 37.6307H289.19Z" fill="white"/>
<path d="M186.102 23.3283C187.802 23.3283 189.181 21.9499 189.181 20.2495C189.181 18.5491 187.802 17.1707 186.102 17.1707C184.401 17.1707 183.023 18.5491 183.023 20.2495C183.023 21.9499 184.401 23.3283 186.102 23.3283Z" fill="#299947"/>
<path d="M0.954895 20.3254V20.2496C0.932841 18.4667 1.2709 16.6977 1.94882 15.0486C2.62673 13.3995 3.63055 11.9043 4.90014 10.6524C6.16974 9.40049 7.67897 8.41776 9.33742 7.76306C10.9959 7.10836 12.7694 6.79518 14.5518 6.84227C19.8222 6.84227 23.212 9.04901 25.4945 12.2188L20.118 16.3821C18.6468 14.5393 16.9481 13.3488 14.4835 13.3488C10.8739 13.3488 8.32589 16.3821 8.32589 20.1737V20.2496C8.32589 24.1171 10.8739 27.1428 14.4835 27.1428C17.168 27.1428 18.753 25.884 20.3 24.0109L25.6841 27.8405C23.2499 31.1923 19.9739 33.6645 14.256 33.6645C12.4987 33.6912 10.754 33.3642 9.12564 32.7028C7.4973 32.0414 6.01864 31.0593 4.77765 29.8147C3.53666 28.5702 2.55871 27.0888 1.90198 25.4585C1.24525 23.8283 0.923162 22.0827 0.954895 20.3254V20.3254Z" fill="#299947"/>
<path d="M157.361 13.6217H149.626V7.35791H172.247V13.6217H164.512V33.1488H157.361V13.6217Z" fill="white"/>
<path d="M39.3947 23.3283C41.0951 23.3283 42.4736 21.9499 42.4736 20.2495C42.4736 18.5491 41.0951 17.1707 39.3947 17.1707C37.6944 17.1707 36.3159 18.5491 36.3159 20.2495C36.3159 21.9499 37.6944 23.3283 39.3947 23.3283Z" fill="#299947"/>
<path d="M137.295 23.3283C138.996 23.3283 140.374 21.9499 140.374 20.2495C140.374 18.5491 138.996 17.1707 137.295 17.1707C135.595 17.1707 134.216 18.5491 134.216 20.2495C134.216 21.9499 135.595 23.3283 137.295 23.3283Z" fill="white"/>
<path d="M89.2172 19.0893H72.7007V7.35791H80.0792L89.2172 19.0893ZM62.0916 7.35791H55.4183V19.0893H71.2219L62.0916 7.35791ZM90.6883 7.35791V19.0893H97.7636V7.35791H90.6883ZM73.4135 33.0123V33.1488H80.4812V21.0155H64.0557L73.4135 33.0123ZM55.4183 33.1488H62.4935V21.0155H55.4183V33.1488ZM91.4997 33.1488H97.7636V21.0155H82.0433L91.4997 33.1488Z" fill="url(#paint0_linear)"/>
<path d="M120.438 19.0893V17.3376H108.054V13.4322H121.727V7.35791H100.979V19.0893H120.438Z" fill="white"/>
<path d="M108.054 22.9797H120.438V21.0005H100.979V33.149H121.909V27.0672H108.054V22.9797Z" fill="white"/>
<path d="M130.743 19.0892C131.183 15.8436 133.564 13.3638 136.81 13.3638C139.275 13.3638 140.973 14.5392 142.444 16.3972L147.821 12.2339C145.546 9.06408 142.149 6.85734 136.878 6.85734C133.48 6.76821 130.179 7.99067 127.658 10.2711C125.138 12.5515 123.592 15.7147 123.342 19.1044L130.743 19.0892Z" fill="white"/>
<path d="M142.634 24.0111C141.117 25.8842 139.502 27.143 136.818 27.143C133.443 27.143 131.001 24.504 130.698 21.0005H123.327C123.434 24.4308 124.886 27.6814 127.368 30.0507C129.851 32.42 133.166 33.7181 136.598 33.6647C142.308 33.6647 145.584 31.1925 148.018 27.8406L142.634 24.0111Z" fill="white"/>
<path d="M45.9619 21.0003C45.8838 22.6775 45.161 24.2597 43.9445 25.4169C42.728 26.574 41.1117 27.2168 39.4327 27.2111C35.5273 27.2111 32.8428 23.973 32.8428 20.2496V20.1738C32.8428 16.4579 35.459 13.2881 39.3644 13.2881C40.9737 13.2928 42.5259 13.8848 43.7295 14.953C44.9332 16.0212 45.7054 17.492 45.9013 19.0894H53.2343C52.6883 12.2037 47.0009 6.84229 39.4327 6.84229C31.4778 6.84229 25.5097 12.8407 25.5097 20.2496V20.3254C25.5097 27.7268 31.4019 33.6645 39.3644 33.6645C47.0463 33.6645 52.8628 28.0528 53.2495 21.0003H45.9619Z" fill="#299947"/>
<path d="M107.119 79.6954V77.5736L108.69 77.2394V67.0592L107.119 66.7306V64.592H113.958C115.863 64.592 117.348 64.941 118.413 65.639C118.931 65.9732 119.351 66.438 119.632 66.9866C119.913 67.5351 120.044 68.148 120.012 68.7633C120.023 69.4364 119.847 70.0995 119.505 70.6791C119.137 71.2652 118.587 71.715 117.94 71.96C118.477 72.0591 118.982 72.2886 119.41 72.6282C119.783 72.9312 120.072 73.3241 120.251 73.7699C120.431 74.2312 120.522 74.7226 120.519 75.2178C120.561 75.8531 120.448 76.4891 120.19 77.0712C119.932 77.6532 119.536 78.1639 119.037 78.5593C118.046 79.3167 116.615 79.6731 114.732 79.6731L107.119 79.6954ZM112.332 70.8573H113.802C114.47 70.9015 115.136 70.7609 115.729 70.4507C115.938 70.3146 116.107 70.1252 116.219 69.902C116.331 69.6788 116.381 69.43 116.364 69.181C116.387 68.9202 116.345 68.6578 116.241 68.4175C116.137 68.1773 115.974 67.9669 115.768 67.8054C115.224 67.4771 114.592 67.3253 113.958 67.371H112.354L112.332 70.8573ZM112.332 76.9276H114.727C115.299 76.9695 115.869 76.8206 116.347 76.5043C116.537 76.3483 116.687 76.149 116.784 75.9233C116.88 75.6975 116.922 75.4518 116.904 75.2067C116.917 74.8339 116.847 74.4628 116.698 74.1208C116.565 73.8398 116.339 73.6135 116.058 73.4803C115.698 73.3223 115.308 73.2481 114.916 73.2631H112.354L112.332 76.9276Z" fill="white"/>
<path d="M131.857 79.6956V77.5738L133.422 77.2396V67.0594L131.857 66.7308V64.5811H139.286C140.349 64.5502 141.408 64.7398 142.394 65.138C143.215 65.4701 143.923 66.0329 144.432 66.7586C144.917 67.4988 145.166 68.3689 145.145 69.2536C145.148 70.1297 144.898 70.988 144.427 71.7263C143.934 72.4938 143.253 73.1226 142.449 73.5529C141.571 74.0261 140.584 74.2604 139.587 74.2324H137.064V77.2508L138.629 77.5849V79.7067L131.857 79.6956ZM137.064 71.4311H139.325C139.911 71.4681 140.491 71.2921 140.957 70.9354C141.15 70.7541 141.3 70.532 141.396 70.2854C141.493 70.0388 141.533 69.7738 141.514 69.5098C141.529 69.2276 141.488 68.9452 141.392 68.6793C141.296 68.4134 141.148 68.1694 140.957 67.9616C140.734 67.7541 140.47 67.5947 140.183 67.4931C139.895 67.3916 139.59 67.3501 139.286 67.3713H137.059L137.064 71.4311ZM141.419 79.6956L139.386 73.8035L142.55 72.7287L144.388 77.2174L145.819 77.5793V79.6956H141.419Z" fill="white"/>
<path d="M157.057 79.6955V77.5737L158.115 77.4178L162.615 64.6089H166.558L171.075 77.4178L172.133 77.5737V79.6955H166.486V77.5737L167.471 77.3843L167.015 75.747H162.158L161.724 77.3843L162.71 77.5737V79.6955H157.057ZM162.927 73.1908H166.235L164.765 68.6186L164.598 68.0617H164.536L164.358 68.6186L162.927 73.1908Z" fill="white"/>
<path d="M190.015 79.9183C188.913 79.9309 187.814 79.8112 186.74 79.5618C185.715 79.298 184.747 78.8488 183.883 78.2364V74.338H186.696L187.008 76.3485C187.336 76.6568 187.739 76.8738 188.177 76.9778C188.774 77.1497 189.393 77.2341 190.015 77.2284C190.41 77.2387 190.803 77.1822 191.179 77.0613C191.459 76.9685 191.704 76.7916 191.881 76.5546C192.046 76.3226 192.13 76.0427 192.12 75.7582C192.125 75.4749 192.048 75.1963 191.897 74.9562C191.707 74.6816 191.458 74.4532 191.168 74.2879C190.731 74.032 190.273 73.8158 189.798 73.6419C188.704 73.306 187.639 72.8833 186.612 72.3778C185.88 72.0292 185.244 71.5051 184.763 70.8518C184.34 70.2022 184.128 69.4378 184.156 68.6632C184.141 67.8725 184.392 67.0997 184.869 66.469C185.386 65.8123 186.066 65.3017 186.841 64.9876C187.753 64.6167 188.729 64.4275 189.714 64.4307C190.816 64.3877 191.918 64.5116 192.983 64.7983C193.89 65.0517 194.741 65.4709 195.495 66.0346V69.6767H192.794L192.371 67.6552C192.048 67.5096 191.71 67.4013 191.363 67.3322C190.907 67.2343 190.442 67.1858 189.976 67.1874C189.598 67.1824 189.222 67.2388 188.862 67.3544C188.563 67.4473 188.294 67.6184 188.082 67.8501C187.89 68.0829 187.789 68.3779 187.798 68.6799C187.794 68.9414 187.878 69.1967 188.038 69.4039C188.267 69.6732 188.552 69.8898 188.873 70.0387C189.417 70.3117 189.974 70.5552 190.544 70.7683C191.959 71.1279 193.285 71.7722 194.442 72.6618C194.883 73.0422 195.231 73.5174 195.462 74.0517C195.692 74.586 195.799 75.1657 195.773 75.747C195.795 76.5661 195.54 77.3686 195.049 78.0248C194.52 78.6807 193.818 79.1762 193.022 79.456C192.056 79.7905 191.037 79.9471 190.015 79.9183V79.9183Z" fill="white"/>
<path d="M207.229 79.6954V77.5736L208.794 77.2394V67.0592L207.229 66.7306V64.592H213.99V66.7306L212.425 67.0592V77.2394L213.99 77.5736V79.6954H207.229Z" fill="white"/>
<path d="M225.445 79.6954V77.5736L227.01 77.2394V67.0592L225.445 66.7306V64.592H232.563V66.7306L230.652 67.0592V76.9053H234.244L234.328 74.8002H237.113V79.6954H225.445Z" fill="white"/>
<defs>
<linearGradient id="paint0_linear" x1="55.4183" y1="20.2496" x2="97.7636" y2="20.2496" gradientUnits="userSpaceOnUse">
<stop offset="0.07" stop-color="#299947"/>
<stop offset="1" stop-color="white"/>
</linearGradient>
</defs>
</svg>
