<svg width="489" height="82" viewBox="0 0 489 82" fill="none" xmlns="http://www.w3.org/2000/svg">
<path d="M115.299 43.9131H1.12061V54.4895H115.299V43.9131Z" fill="#EB5C52"/>
<path d="M239.866 43.9131H125.688V54.4895H239.866V43.9131Z" fill="#FAB526"/>
<path d="M364.433 43.9131H250.255V54.4895H364.433V43.9131Z" fill="#00A682"/>
<path d="M489 43.9131H374.822V54.4895H489V43.9131Z" fill="#784A96"/>
<path d="M35.3219 7.40169C35.3219 7.45291 35.3115 7.50357 35.2911 7.55066C35.2706 7.59774 35.2406 7.64012 35.203 7.6754C35.1654 7.71069 35.1209 7.73809 35.0723 7.75582C35.0236 7.77356 34.9719 7.78129 34.9201 7.77859H18.3619C18.2447 7.77859 18.1323 7.82462 18.0494 7.90649C17.9665 7.98836 17.9199 8.0993 17.9199 8.21508V31.5706C17.9199 31.6758 17.8775 31.7769 17.8022 31.8513C17.7268 31.9258 17.6246 31.9676 17.518 31.9676H10.2437C10.1909 31.9676 10.1387 31.9573 10.0899 31.9373C10.0411 31.9174 9.99685 31.8882 9.95953 31.8513C9.92221 31.8145 9.89265 31.7706 9.87245 31.7225C9.85225 31.6743 9.84179 31.6227 9.84179 31.5706V8.21508C9.83261 8.10233 9.78309 7.99665 9.70209 7.91666C9.62109 7.83667 9.51395 7.78765 9.39976 7.77859H1.36188C1.31008 7.78129 1.25822 7.77356 1.20955 7.75582C1.16088 7.73809 1.11642 7.71069 1.07881 7.6754C1.0412 7.64012 1.0113 7.59774 0.990869 7.55066C0.970437 7.50357 0.959889 7.45291 0.959961 7.40169V0.496288C0.965121 0.39451 1.00975 0.298573 1.08457 0.228385C1.15939 0.158198 1.25868 0.119013 1.36188 0.119141H34.8597C34.9629 0.119013 35.0622 0.158198 35.137 0.228385C35.2118 0.298573 35.2565 0.39451 35.2616 0.496288L35.3219 7.40169Z" fill="white"/>
<path d="M81.2783 13.3543C81.7544 13.4049 82.2315 13.2688 82.6073 12.9757C82.983 12.6826 83.2273 12.2557 83.2877 11.7866V9.6238C83.2272 9.15326 82.9837 8.72447 82.6086 8.42817C82.2336 8.13187 81.7564 7.99122 81.2783 8.03624H40.1042C40.0332 8.03055 39.9618 8.03998 39.8947 8.06362C39.8277 8.08726 39.7665 8.12455 39.7152 8.17334C39.6639 8.22213 39.6236 8.28123 39.5972 8.34654C39.5707 8.41185 39.5587 8.48191 39.5617 8.55219V12.7987C39.567 12.9373 39.6264 13.0684 39.7276 13.1647C39.8288 13.2609 39.9637 13.3147 40.1042 13.3146L81.2783 13.3543ZM84.413 31.9673C84.2726 31.9674 84.1376 31.9136 84.0364 31.8173C83.9352 31.7211 83.8758 31.59 83.8706 31.4513V26.8081C83.8523 26.5322 83.7623 26.2657 83.6093 26.0342C83.6093 26.0342 83.6093 26.0341 83.6093 25.915L79.2889 21.4106C79.1756 21.3191 79.0333 21.27 78.887 21.2718H40.1042C40.0366 21.2664 39.9686 21.2745 39.9043 21.2957C39.84 21.317 39.7807 21.3508 39.73 21.3953C39.6793 21.4398 39.6383 21.4941 39.6093 21.5547C39.5804 21.6153 39.5642 21.681 39.5617 21.748V31.4513C39.5648 31.5216 39.5526 31.5917 39.5262 31.657C39.4997 31.7223 39.4596 31.7814 39.4083 31.8302C39.357 31.879 39.2957 31.9163 39.2286 31.9399C39.1615 31.9635 39.0901 31.973 39.0192 31.9673H31.765C31.694 31.973 31.6226 31.9635 31.5555 31.9399C31.4884 31.9163 31.4271 31.879 31.3758 31.8302C31.3245 31.7814 31.2843 31.7223 31.2578 31.657C31.2314 31.5917 31.2193 31.5216 31.2224 31.4513V0.634763C31.2193 0.564489 31.2314 0.494422 31.2578 0.429113C31.2843 0.363803 31.3245 0.304711 31.3758 0.25592C31.4271 0.20713 31.4884 0.169831 31.5555 0.146192C31.6226 0.122552 31.694 0.113127 31.765 0.11882H81.2783C83.9163 0.0488046 86.4764 1.00651 88.4052 2.78501C90.3341 4.56351 91.477 7.02008 91.5869 9.6238V11.7866C91.5762 13.0651 91.2955 14.3273 90.7627 15.4925C90.2298 16.6576 89.4565 17.7001 88.4923 18.5532C88.441 18.5979 88.3999 18.6527 88.3718 18.7143C88.3436 18.7759 88.3291 18.8427 88.3291 18.9103C88.3291 18.9779 88.3436 19.0447 88.3718 19.1062C88.3999 19.1678 88.441 19.2229 88.4923 19.2676L90.0195 20.8551L90.4215 21.3708C91.5591 22.9662 92.1952 24.8576 92.25 26.8081V31.4513C92.25 31.5882 92.1949 31.7194 92.097 31.8161C91.999 31.9129 91.8661 31.9673 91.7275 31.9673H84.413Z" fill="white"/>
<path d="M112.747 20.0814C112.867 20.0847 112.986 20.0589 113.094 20.0068C113.201 19.9547 113.295 19.8776 113.366 19.7821C113.437 19.6865 113.484 19.5754 113.502 19.4582C113.52 19.341 113.509 19.2213 113.47 19.1091C112.747 17.4423 111.983 15.7358 111.3 14.1285C111.3 13.9499 111.179 13.7911 111.079 13.6125C111.027 13.7875 110.967 13.9597 110.898 14.1285C110.195 15.7358 109.471 17.4423 108.748 19.1091C108.705 19.2181 108.69 19.3354 108.704 19.4514C108.718 19.5674 108.761 19.6783 108.828 19.7743C108.895 19.8703 108.986 19.9485 109.091 20.002C109.196 20.0555 109.313 20.0828 109.431 20.0814H112.747ZM125.888 31.273C125.886 31.3686 125.864 31.4626 125.824 31.5497C125.784 31.6367 125.727 31.7148 125.655 31.7795C125.584 31.8443 125.501 31.8943 125.409 31.9266C125.318 31.9588 125.222 31.9729 125.125 31.9675H118.433C118.246 31.9736 118.063 31.9095 117.922 31.788C117.78 31.6666 117.69 31.4967 117.67 31.3125C117.695 30.3288 117.621 29.345 117.449 28.3758C117.412 28.2202 117.322 28.0819 117.194 27.9843C117.065 27.8867 116.907 27.8358 116.745 27.84H105.472C105.31 27.8318 105.149 27.8815 105.02 27.9797C104.892 28.078 104.802 28.2183 104.769 28.3758C104.603 29.3334 104.51 30.3018 104.488 31.273C104.49 31.365 104.474 31.4564 104.44 31.5419C104.405 31.6274 104.354 31.705 104.288 31.7701C104.222 31.8351 104.143 31.8863 104.057 31.9203C103.97 31.9542 103.877 31.9703 103.784 31.9675H97.0927C96.9009 31.9675 96.717 31.8922 96.5813 31.7582C96.4456 31.6243 96.3694 31.4426 96.3694 31.2532C96.3006 28.9254 96.7178 26.6085 97.5951 24.4469C98.8812 21.5894 101.212 16.0928 103.322 11.2511C105.432 6.40932 106.638 3.49241 107.221 2.36135L108.125 0.516064C108.19 0.39977 108.287 0.303186 108.404 0.236777C108.52 0.170368 108.653 0.136507 108.788 0.138917H113.41C113.548 0.132818 113.685 0.164847 113.806 0.231448C113.926 0.298048 114.026 0.396707 114.093 0.516064L114.977 2.36135C115.56 3.49241 116.826 6.4887 118.996 11.2511C121.166 16.0134 123.377 21.5894 124.763 24.4469C125.654 26.6325 126.071 28.9779 125.989 31.3324" fill="white"/>
<path d="M147.39 31.1536C146.003 29.3081 143.893 25.6967 142.065 22.5019C141.08 20.8351 139.854 18.7515 139.513 18.2555L139.332 18.0174L139.151 17.7197L138.488 16.4695V31.6298C138.485 31.6967 138.469 31.7625 138.44 31.8231C138.411 31.8837 138.37 31.938 138.32 31.9825C138.269 32.027 138.21 32.0607 138.145 32.082C138.081 32.1033 138.013 32.1114 137.945 32.106H130.872C130.81 32.106 130.748 32.0936 130.69 32.0694C130.633 32.0452 130.581 32.01 130.538 31.9655C130.495 31.921 130.461 31.8682 130.439 31.8105C130.417 31.7528 130.407 31.6914 130.41 31.6298V0.694263C130.407 0.63268 130.417 0.571245 130.439 0.513562C130.461 0.455878 130.495 0.403041 130.538 0.358536C130.581 0.314032 130.633 0.278788 130.69 0.254621C130.748 0.230454 130.81 0.217987 130.872 0.218045H137.986C138.049 0.215384 138.112 0.225122 138.172 0.246628C138.231 0.268133 138.286 0.300886 138.333 0.343276C138.379 0.385667 138.417 0.436649 138.444 0.493457C138.47 0.550265 138.485 0.611842 138.488 0.6744C138.488 0.813303 138.488 0.85296 138.488 0.892646C138.488 0.932333 138.488 1.07121 138.488 1.11089C140.739 4.08738 145.139 12.1238 146.124 13.9295C146.311 14.1538 146.479 14.3929 146.626 14.6441C146.685 14.7333 146.77 14.8016 146.871 14.8391C146.971 14.8766 147.082 14.8813 147.185 14.8524C147.289 14.8235 147.38 14.7627 147.446 14.6787C147.512 14.5948 147.548 14.4923 147.551 14.3861V0.654538C147.551 0.521076 147.603 0.39273 147.697 0.296526C147.79 0.200323 147.918 0.143728 148.053 0.138595H155.146C155.216 0.135795 155.285 0.147327 155.35 0.172264C155.414 0.197201 155.473 0.234969 155.522 0.283446C155.571 0.331924 155.61 0.38987 155.635 0.453732C155.66 0.517593 155.672 0.586037 155.669 0.654538V31.5503C155.666 31.6147 155.651 31.6779 155.623 31.7361C155.595 31.7943 155.555 31.8463 155.507 31.889C155.458 31.9316 155.401 31.9641 155.339 31.9844C155.277 32.0046 155.211 32.0123 155.146 32.0069H148.013C147.897 32.0023 147.786 31.9613 147.696 31.8899C147.605 31.8185 147.54 31.7203 147.51 31.6099C147.496 31.4714 147.496 31.3318 147.51 31.1933" fill="white"/>
<path d="M172.026 31.9673C169.304 32.0809 166.646 31.1299 164.63 29.3207C162.614 27.5116 161.401 24.9902 161.255 22.3037V20.736C161.255 20.6848 161.266 20.6341 161.286 20.587C161.307 20.5399 161.337 20.4973 161.374 20.462C161.412 20.4268 161.456 20.3996 161.505 20.3819C161.554 20.3641 161.605 20.3564 161.657 20.3591H168.972C169.023 20.3564 169.075 20.3641 169.124 20.3819C169.173 20.3996 169.217 20.4268 169.255 20.462C169.292 20.4973 169.322 20.5399 169.343 20.587C169.363 20.6341 169.374 20.6848 169.374 20.736V22.363C169.374 23.4147 170.579 24.3473 172.026 24.3473H175.924C177.351 24.3473 178.577 23.4544 178.577 22.363C178.603 22.2454 178.603 22.1236 178.577 22.006C178.558 21.9474 178.524 21.8946 178.478 21.8529C178.432 21.8112 178.376 21.782 178.316 21.7679L165.395 17.1246L165.134 16.9856C162.039 15.3783 161.316 11.1517 161.316 9.80236C161.461 7.11587 162.674 4.59446 164.69 2.78529C166.707 0.976128 169.364 0.0251707 172.086 0.138724H175.985C178.707 0.0147431 181.369 0.962824 183.384 2.77464C185.4 4.58645 186.605 7.11391 186.735 9.80236V11.3701C186.738 11.4151 186.732 11.4603 186.715 11.5025C186.699 11.5448 186.674 11.583 186.642 11.6149C186.61 11.6469 186.571 11.6717 186.528 11.6876C186.485 11.7035 186.439 11.7101 186.394 11.7072H179.039C178.99 11.7127 178.94 11.7084 178.893 11.6942C178.846 11.6799 178.802 11.6562 178.764 11.6246C178.727 11.593 178.696 11.5541 178.674 11.5103C178.652 11.4665 178.64 11.4188 178.637 11.3701V9.80236C178.637 8.73083 177.411 7.81804 175.985 7.81804H172.086C171.472 7.75866 170.859 7.92986 170.367 8.29765C169.875 8.66543 169.542 9.20276 169.434 9.80236C169.42 9.91436 169.42 10.0278 169.434 10.1398C169.454 10.1969 169.486 10.2492 169.527 10.2936C169.569 10.338 169.619 10.3736 169.675 10.3978L182.636 15.0807L182.897 15.1997C185.992 16.8268 186.655 20.9938 186.655 22.363C186.525 25.0515 185.32 27.5792 183.304 29.391C181.288 31.2028 178.627 32.1506 175.904 32.0267L172.026 31.9673Z" fill="white"/>
<path d="M209.683 9.48477C209.683 8.59183 208.578 7.77828 207.353 7.77828H201.706C201.589 7.77828 201.476 7.82431 201.393 7.90618C201.31 7.98805 201.264 8.09899 201.264 8.21478V13.7908C201.278 13.896 201.331 13.9922 201.413 14.0616C201.494 14.131 201.598 14.1687 201.706 14.1677H207.353C208.578 14.1677 209.683 13.3542 209.683 12.4613V9.48477ZM217.721 9.48477V12.4613C217.586 15.0723 216.412 17.525 214.456 19.2862C212.499 21.0475 209.917 21.9749 207.272 21.8669H201.625C201.515 21.8665 201.408 21.9071 201.326 21.9805C201.245 22.054 201.194 22.1552 201.183 22.2639V31.5703C201.183 31.6224 201.173 31.674 201.153 31.7222C201.133 31.7703 201.103 31.8142 201.066 31.851C201.028 31.8879 200.984 31.9171 200.935 31.937C200.887 31.957 200.834 31.9673 200.782 31.9673H193.608C193.501 31.9673 193.399 31.9254 193.324 31.851C193.248 31.7766 193.206 31.6755 193.206 31.5703V0.495976C193.211 0.394198 193.256 0.298261 193.33 0.228073C193.405 0.157886 193.505 0.118702 193.608 0.118829H196.079H207.373C210.018 0.0108292 212.599 0.938257 214.556 2.69951C216.513 4.46077 217.686 6.91347 217.822 9.5245" fill="white"/>
<path d="M235.686 7.95758C235.417 7.92747 235.145 7.95107 234.886 8.02734C234.627 8.10362 234.386 8.23087 234.177 8.40134C233.969 8.57181 233.798 8.78209 233.674 9.0195C233.55 9.25692 233.476 9.51659 233.456 9.783V22.2645C233.476 22.5309 233.55 22.7905 233.674 23.028C233.798 23.2654 233.969 23.4757 234.177 23.6461C234.386 23.8166 234.627 23.9438 234.886 24.0201C235.145 24.0964 235.417 24.12 235.686 24.0899H271.857C272.403 24.1352 272.946 23.9709 273.373 23.6309C273.799 23.2908 274.077 22.8014 274.147 22.2645V9.783C274.128 9.51088 274.052 9.24562 273.924 9.00376C273.797 8.7619 273.62 8.54868 273.405 8.37736C273.19 8.20604 272.941 8.08045 272.675 8.00821C272.409 7.93596 272.13 7.91873 271.857 7.95758H235.686ZM235.686 31.9678C232.988 32.0536 230.366 31.0808 228.393 29.2624C226.42 27.444 225.256 24.9279 225.156 22.2645V9.783C225.256 7.11957 226.42 4.60349 228.393 2.78507C230.366 0.966656 232.988 -0.00611613 235.686 0.0796423H271.857C274.562 -0.011651 277.193 0.957447 279.177 2.77538C281.161 4.59332 282.337 7.11249 282.447 9.783V22.2645C282.337 24.935 281.161 27.4541 279.177 29.2721C277.193 31.09 274.562 32.0591 271.857 31.9678H235.686Z" fill="white"/>
<path d="M298.1 13.3546H303.265C304.51 13.3546 305.596 12.6006 305.596 11.6481V9.44554C305.596 8.5526 304.51 7.73881 303.265 7.73881H298.1C297.97 7.73871 297.846 7.78834 297.752 7.87712C297.658 7.9659 297.603 8.08693 297.598 8.21503V12.9377C297.603 12.9977 297.62 13.0562 297.648 13.1097C297.676 13.1632 297.715 13.2107 297.761 13.2495C297.808 13.2882 297.862 13.3174 297.92 13.3355C297.978 13.3535 298.04 13.36 298.1 13.3546ZM314.417 29.2292V31.6698C314.407 31.7874 314.351 31.8964 314.261 31.9741C314.171 32.0518 314.054 32.092 313.935 32.0865H306.761C306.48 32.0865 306.259 31.9477 306.259 31.7096V29.2689C306.231 28.9642 306.128 28.6709 305.957 28.4155L300.873 21.391C300.829 21.3269 300.769 21.275 300.698 21.2403C300.628 21.2056 300.55 21.1892 300.471 21.1926H298.1C298.037 21.1899 297.974 21.1996 297.914 21.2212C297.855 21.2427 297.8 21.2757 297.753 21.318C297.707 21.3604 297.669 21.4114 297.642 21.4682C297.616 21.525 297.6 21.5864 297.598 21.6489V31.5705C297.598 31.6968 297.547 31.8182 297.457 31.9075C297.366 31.9968 297.244 32.0467 297.116 32.0467H289.942C289.812 32.0469 289.687 31.9975 289.593 31.9087C289.5 31.8199 289.445 31.6986 289.439 31.5705V0.535713C289.442 0.474696 289.457 0.414967 289.484 0.360098C289.511 0.305229 289.55 0.256455 289.597 0.217185C289.644 0.177914 289.699 0.149072 289.759 0.132163C289.818 0.115254 289.881 0.110717 289.942 0.119083H303.265C305.917 0.000323735 308.509 0.922857 310.474 2.68523C312.44 4.44761 313.619 6.90654 313.754 9.52475V11.7273C313.734 13.1972 313.36 14.6411 312.66 15.9389C311.961 17.2367 310.958 18.3508 309.735 19.1884C309.683 19.2203 309.638 19.2627 309.603 19.3129C309.568 19.363 309.544 19.4198 309.533 19.4795C309.521 19.5393 309.523 19.6008 309.537 19.66C309.551 19.7192 309.577 19.775 309.614 19.8235L312.347 23.6134L312.468 23.7921C313.699 25.3664 314.402 27.2811 314.477 29.2689" fill="white"/>
<path d="M357.842 7.40169C357.842 7.45291 357.832 7.50357 357.811 7.55066C357.791 7.59774 357.761 7.64012 357.723 7.6754C357.685 7.71068 357.641 7.73809 357.592 7.75582C357.544 7.77356 357.492 7.78129 357.44 7.77859H337.566C337.449 7.77859 337.337 7.82462 337.254 7.90649C337.171 7.98836 337.124 8.0993 337.124 8.21508V31.5706C337.124 31.6244 337.113 31.6778 337.092 31.7273C337.07 31.7768 337.039 31.8215 337 31.8586C336.96 31.8957 336.913 31.9244 336.862 31.9431C336.811 31.9619 336.757 31.9703 336.702 31.9676H329.448C329.341 31.9676 329.239 31.9258 329.164 31.8513C329.089 31.7769 329.046 31.6758 329.046 31.5706V8.21508C329.037 8.10233 328.988 7.99665 328.907 7.91666C328.826 7.83667 328.718 7.78765 328.604 7.77859H320.566C320.514 7.78129 320.463 7.77356 320.414 7.75582C320.365 7.73809 320.321 7.71068 320.283 7.6754C320.246 7.64012 320.216 7.59774 320.195 7.55066C320.175 7.50357 320.164 7.45291 320.164 7.40169V0.51615C320.164 0.410895 320.207 0.309836 320.282 0.235409C320.357 0.160983 320.46 0.119141 320.566 0.119141H357.4C357.506 0.119141 357.609 0.160983 357.684 0.235409C357.759 0.309836 357.802 0.410895 357.802 0.51615L357.842 7.40169Z" fill="white"/>
<path d="M350.347 0.456304C350.349 0.393746 350.364 0.332168 350.391 0.275361C350.418 0.218553 350.455 0.16757 350.502 0.12518C350.549 0.0827895 350.603 0.0497946 350.663 0.0282892C350.722 0.00678381 350.786 -0.00271209 350.849 -5.1305e-05H405.969C406.031 -0.0027314 406.094 0.00704073 406.152 0.0287737C406.21 0.0505066 406.264 0.083741 406.309 0.126391C406.354 0.169041 406.39 0.220107 406.414 0.276814C406.439 0.333521 406.451 0.394662 406.451 0.456304V7.44116C406.451 7.56746 406.4 7.68854 406.31 7.77785C406.219 7.86716 406.097 7.91737 405.969 7.91737H359.269C359.205 7.91471 359.142 7.92445 359.083 7.94596C359.023 7.96746 358.968 8.00021 358.922 8.0426C358.875 8.085 358.837 8.13598 358.811 8.19279C358.784 8.24959 358.769 8.31117 358.766 8.37373V11.747C358.769 11.8095 358.784 11.8711 358.811 11.9279C358.837 11.9847 358.875 12.0357 358.922 12.0781C358.968 12.1205 359.023 12.1535 359.083 12.175C359.142 12.1965 359.205 12.206 359.269 12.2033H401.608C401.674 12.2007 401.74 12.2109 401.802 12.2334C401.864 12.2559 401.921 12.2904 401.969 12.3346C402.018 12.3789 402.057 12.4321 402.085 12.4913C402.113 12.5506 402.128 12.6144 402.131 12.6796V19.6247C402.131 19.69 402.118 19.7547 402.091 19.8143C402.064 19.874 402.024 19.9273 401.975 19.9706C401.925 20.0138 401.867 20.046 401.804 20.065C401.74 20.0841 401.674 20.0898 401.608 20.0813H359.229C359.169 20.0786 359.109 20.0879 359.053 20.1086C358.997 20.1294 358.946 20.1611 358.903 20.2019C358.86 20.2427 358.825 20.2917 358.802 20.346C358.778 20.4003 358.766 20.4587 358.766 20.5178V23.5737C358.772 23.7018 358.827 23.8228 358.92 23.9116C359.014 24.0004 359.139 24.05 359.269 24.0499H406.049C406.112 24.0472 406.174 24.057 406.232 24.0787C406.291 24.1005 406.344 24.1337 406.389 24.1764C406.434 24.219 406.47 24.2701 406.494 24.3268C406.519 24.3835 406.532 24.4446 406.532 24.5063V31.4911C406.532 31.6174 406.481 31.7385 406.39 31.8278C406.3 31.9171 406.177 31.9673 406.049 31.9673H350.929C350.8 31.9674 350.675 31.9178 350.581 31.829C350.487 31.7402 350.432 31.6192 350.427 31.4911L350.347 0.456304Z" fill="white"/>
<path d="M459.32 31.1541C459.315 31.3716 459.224 31.5785 459.066 31.7306C458.908 31.8826 458.696 31.9678 458.476 31.9677H454.296C454.077 31.9629 453.869 31.8762 453.712 31.7252C453.555 31.5742 453.463 31.37 453.452 31.1541V26.8085C453.458 26.5909 453.549 26.3838 453.707 26.2318C453.864 26.0797 454.076 25.9948 454.296 25.9949H458.476C458.586 25.9922 458.695 26.0114 458.797 26.0511C458.9 26.0908 458.993 26.1501 459.072 26.226C459.15 26.3018 459.213 26.3924 459.255 26.4924C459.298 26.5924 459.32 26.7 459.32 26.8085V31.1541Z" fill="white"/>
<path d="M475.295 7.65957H472.382C471.98 7.65167 471.581 7.72257 471.207 7.86837C470.833 8.01417 470.492 8.2319 470.204 8.50881C469.916 8.78573 469.687 9.11643 469.53 9.4816C469.372 9.84676 469.29 10.2392 469.287 10.636V21.4108C469.308 22.2038 469.645 22.9568 470.224 23.5065C470.803 24.0562 471.578 24.3582 472.382 24.3475H475.295C475.697 24.3581 476.096 24.2906 476.471 24.1487C476.845 24.0068 477.188 23.7933 477.479 23.5206C477.77 23.2478 478.004 22.9212 478.167 22.5592C478.33 22.1972 478.42 21.8069 478.43 21.4108V10.636C478.425 10.2365 478.34 9.8419 478.179 9.4753C478.018 9.1087 477.785 8.7775 477.493 8.50058C477.201 8.22365 476.857 8.00668 476.48 7.86231C476.102 7.71794 475.7 7.64902 475.295 7.65957ZM486.408 10.636V21.4108C486.35 24.2651 485.147 26.9802 483.063 28.9595C480.98 30.9388 478.186 32.0207 475.295 31.9675H472.382C469.489 32.0207 466.693 30.9395 464.607 28.9607C462.52 26.982 461.313 24.2669 461.249 21.4108V10.636C461.307 7.77467 462.512 5.05264 464.598 3.06646C466.685 1.08029 469.484 -0.00823819 472.382 0.0395985H475.295C478.191 -0.00819479 480.988 1.08095 483.072 3.06767C485.155 5.0544 486.355 7.77646 486.408 10.636Z" fill="white"/>
<path d="M440.15 9.86202H435.588C435.509 9.8674 435.43 9.85726 435.354 9.83222C435.279 9.80719 435.21 9.76782 435.15 9.7162C435.09 9.66457 435.041 9.60169 435.006 9.53138C434.971 9.46106 434.95 9.38458 434.945 9.30635V8.33405C434.95 8.15331 435.027 7.98164 435.158 7.85565C435.29 7.72967 435.465 7.65937 435.649 7.65945H448.449C448.692 7.65438 448.925 7.55655 449.097 7.38646C449.269 7.21636 449.368 6.98699 449.373 6.74649V1.0515C449.373 0.807552 449.276 0.573285 449.104 0.398942C448.931 0.224599 448.696 0.124118 448.449 0.118928H428.053C427.912 0.113585 427.772 0.136324 427.64 0.185782C427.509 0.23524 427.389 0.31034 427.288 0.406693C427.186 0.503046 427.106 0.618689 427.051 0.746537C426.996 0.874386 426.968 1.0119 426.968 1.15081V16.3905C426.983 16.6713 427.11 16.9347 427.32 17.124C427.531 17.3133 427.808 17.4131 428.093 17.4023H440.15C440.485 17.3944 440.818 17.452 441.131 17.5714C441.444 17.6908 441.73 17.8697 441.972 18.0982C442.215 18.3267 442.409 18.6001 442.545 18.9029C442.68 19.2057 442.754 19.5321 442.762 19.8631V21.0139V21.7084V21.9663C442.731 22.6262 442.445 23.2492 441.963 23.707C441.481 24.1648 440.839 24.4225 440.17 24.4269H437.256C436.453 24.4376 435.678 24.1353 435.098 23.5856C434.519 23.0359 434.183 22.2831 434.162 21.4901V21.0139C434.151 20.7384 434.032 20.4779 433.829 20.2887C433.626 20.0994 433.355 19.9965 433.076 20.0019H427.289C427.152 19.9992 427.015 20.0234 426.888 20.0728C426.76 20.1223 426.643 20.1959 426.544 20.2899C426.445 20.3839 426.366 20.4963 426.311 20.6205C426.256 20.7447 426.227 20.8784 426.224 21.0139V21.4901C426.25 22.8938 426.556 24.2787 427.125 25.5653C427.694 26.852 428.514 28.0153 429.539 28.9885C430.564 29.9617 431.773 30.7257 433.097 31.2368C434.421 31.748 435.835 31.9963 437.256 31.9674H440.17C442.865 31.9315 445.446 30.8876 447.393 29.0464C449.34 27.2051 450.507 24.7034 450.659 22.0458L450.76 21.4504V19.7836C450.686 17.0888 449.535 14.5325 447.558 12.6733C445.581 10.8141 442.939 9.80334 440.21 9.86202" fill="white"/>
<path d="M5.30024 67.4072L9.21871 77.686L13.1372 67.4072H16.1715V80.8014H13.8204V76.3962L14.0615 70.4829L10.0627 80.8014H8.37473L4.37589 70.4829L4.59693 76.3962V80.8014H2.24585V67.4072H5.30024Z" fill="white"/>
<path d="M37.7534 73.7372C37.81 72.5442 37.5019 71.362 36.8692 70.3441C36.5905 69.9746 36.2283 69.6747 35.8113 69.468C35.3944 69.2613 34.9344 69.1536 34.4679 69.1536C34.0013 69.1536 33.5413 69.2613 33.1244 69.468C32.7075 69.6747 32.3452 69.9746 32.0665 70.3441C31.4212 71.342 31.1117 72.5156 31.1824 73.6975V74.4714C31.1079 75.6698 31.4096 76.8619 32.0464 77.8846C32.3143 78.2689 32.6753 78.5809 33.0964 78.7923C33.5176 79.0037 33.9855 79.1078 34.4578 79.095C34.9291 79.1155 35.398 79.0168 35.8199 78.8085C36.2419 78.6002 36.603 78.2891 36.8692 77.9045C37.4958 76.8709 37.79 75.6737 37.7131 74.4714L37.7534 73.7372ZM40.1245 74.4516C40.1427 75.6369 39.9101 76.8131 39.4414 77.9045C39.0174 78.8463 38.3175 79.6409 37.4319 80.1863C36.5467 80.7296 35.5199 81.0055 34.4779 80.9801C33.4432 80.9983 32.4249 80.7227 31.544 80.1863C30.6638 79.6434 29.9649 78.8566 29.5346 77.9241C29.044 76.8522 28.7971 75.6873 28.8112 74.5111V73.7571C28.7914 72.5696 29.0314 71.3919 29.5146 70.3044C29.9511 69.3653 30.6477 68.5672 31.5241 68.0025C32.4157 67.4823 33.4322 67.208 34.4679 67.208C35.5035 67.208 36.5202 67.4823 37.4118 68.0025C38.2912 68.5463 38.9899 69.3328 39.4213 70.2647C39.9116 71.343 40.1519 72.5158 40.1245 73.6975V74.4516Z" fill="white"/>
<path d="M57.3655 77.8844L60.8017 67.4072H63.3939L58.5109 80.8014H56.2402L51.3572 67.4072H53.9494L57.3655 77.8844Z" fill="white"/>
<path d="M77.7417 67.4072H75.3906V80.8212H77.7417V67.4072Z" fill="white"/>
<path d="M93.9982 67.4072L97.9167 77.686L101.835 67.4072H104.869V80.8014H102.518V76.3962L102.76 70.4829L98.7607 80.8014H97.0526L93.0538 70.4829L93.2949 76.3962V80.8014H90.9438V67.4072H93.9982Z" fill="white"/>
<path d="M125.909 74.8286H120.342V78.956H126.853V80.8014H117.971V67.4072H126.793V69.2725H120.342V72.9832H125.909V74.8286Z" fill="white"/>
<path d="M149.862 80.8014H147.511L141.442 71.2965V80.8014H139.091V67.4072H141.442L147.511 76.9518V67.4072H149.862V80.8014Z" fill="white"/>
<path d="M172.77 69.2725H168.53V80.8014H166.199V69.2725H161.999V67.4072H172.77V69.2725Z" fill="white"/>
<path d="M193.085 73.7372C193.162 72.5386 192.861 71.346 192.221 70.3243C191.943 69.9548 191.58 69.6548 191.163 69.4481C190.747 69.2414 190.286 69.1337 189.82 69.1337C189.353 69.1337 188.893 69.2414 188.476 69.4481C188.06 69.6548 187.697 69.9548 187.419 70.3243C186.783 71.3264 186.475 72.497 186.534 73.6779V74.4516C186.468 75.6492 186.769 76.8391 187.398 77.8648C187.671 78.2493 188.036 78.5612 188.46 78.7724C188.884 78.9837 189.355 79.0877 189.83 79.0752C190.301 79.0957 190.77 78.997 191.192 78.7886C191.614 78.5803 191.975 78.2693 192.241 77.8847C192.868 76.851 193.162 75.6538 193.085 74.4516V73.7372ZM195.436 74.4516C195.464 75.6377 195.231 76.816 194.753 77.9045C194.325 78.8437 193.626 79.6372 192.744 80.1863C191.848 80.7062 190.828 80.9806 189.79 80.9806C188.751 80.9806 187.731 80.7062 186.836 80.1863C185.965 79.6323 185.269 78.8487 184.826 77.9241C184.343 76.8507 184.103 75.6859 184.123 74.5112V73.7571C184.093 72.5687 184.333 71.3888 184.826 70.3044C185.16 69.6168 185.636 69.006 186.224 68.5112C186.811 68.0164 187.497 67.6487 188.238 67.4318C188.978 67.215 189.756 67.1538 190.522 67.2521C191.288 67.3504 192.024 67.6059 192.683 68.0025C193.573 68.5349 194.274 69.3248 194.693 70.2647C195.183 71.343 195.424 72.5158 195.396 73.6975L195.436 74.4516Z" fill="white"/>
<path d="M225.538 73.9556H228.372C229.095 74.0268 229.817 73.813 230.381 73.3604C230.611 73.1449 230.789 72.882 230.904 72.5904C231.018 72.2988 231.066 71.9858 231.044 71.6738C231.06 71.3564 231.01 71.0391 230.896 70.742C230.782 70.4448 230.606 70.1744 230.381 69.9474C229.878 69.4928 229.214 69.2505 228.532 69.2726H225.639L225.538 73.9556ZM225.538 75.821V80.8016H223.167V67.3876H228.372C229.682 67.3245 230.97 67.7413 231.989 68.5583C232.426 68.947 232.771 69.4257 233 69.9605C233.229 70.4954 233.337 71.0736 233.315 71.6539C233.346 72.2307 233.245 72.807 233.019 73.3396C232.793 73.8722 232.447 74.3473 232.009 74.7295C230.955 75.5172 229.65 75.9047 228.332 75.821H225.538Z" fill="white"/>
<path d="M247.04 75.801H251.059L249.049 70.2448L247.04 75.801ZM251.621 77.7853H246.377L245.271 80.9006H242.82L247.944 67.4868H250.074L255.198 80.9006H252.747L251.621 77.7853Z" fill="white"/>
<path d="M269.405 73.7572H271.836C272.511 73.8057 273.178 73.6002 273.705 73.1819C274.118 72.73 274.346 72.1431 274.346 71.5348C274.346 70.9265 274.118 70.3398 273.705 69.8879C273.193 69.4548 272.53 69.2342 271.857 69.2726H269.365L269.405 73.7572ZM272.038 75.7415H269.405V80.9007H267.054V67.4869H271.836C273.13 67.4062 274.411 67.7784 275.454 68.5384C276.155 69.2099 276.6 70.0999 276.713 71.0581C276.827 72.0162 276.602 72.9837 276.076 73.7969C275.612 74.426 274.979 74.914 274.248 75.2057L277.302 80.7818V80.9007H274.77L272.038 75.7415Z" fill="white"/>
<path d="M292.293 75.801H296.312L294.302 70.2448L292.293 75.801ZM296.875 77.7853H291.63L290.525 80.9006H288.053L293.177 67.4868H295.287L300.431 80.9006H298.1L296.875 77.7853Z" fill="white"/>
<path d="M335.858 73.7376C335.936 72.5389 335.634 71.3463 334.994 70.3246C334.716 69.9551 334.354 69.6552 333.937 69.4485C333.52 69.2417 333.06 69.134 332.593 69.134C332.126 69.134 331.666 69.2417 331.249 69.4485C330.833 69.6552 330.47 69.9551 330.192 70.3246C329.546 71.3224 329.237 72.4963 329.308 73.6782V74.4519C329.233 75.6503 329.535 76.8423 330.172 77.8651C330.441 78.2523 330.806 78.566 331.23 78.7776C331.655 78.9891 332.127 79.0916 332.603 79.0755C333.074 79.096 333.543 78.9973 333.965 78.7889C334.387 78.5806 334.748 78.2696 335.014 77.885C335.641 76.8514 335.935 75.6541 335.858 74.4519V73.7376ZM338.21 74.4519C338.238 75.6381 338.004 76.8163 337.526 77.9048C337.098 78.844 336.399 79.6375 335.517 80.1866C334.621 80.7065 333.602 80.9809 332.563 80.9809C331.524 80.9809 330.504 80.7065 329.609 80.1866C328.729 79.6437 328.03 78.857 327.599 77.9244C327.118 76.8495 326.872 75.6867 326.876 74.5115V73.7574C326.852 72.5675 327.099 71.3875 327.599 70.3047C328.027 69.3601 328.726 68.5599 329.609 68.0028C330.496 67.4638 331.522 67.1884 332.563 67.2093C333.598 67.1866 334.618 67.4622 335.497 68.0028C336.386 68.5353 337.087 69.3251 337.506 70.265C337.997 71.3433 338.237 72.5161 338.21 73.6978V74.4519Z" fill="white"/>
<path d="M373.757 75.1262H368.291V80.8014H365.94V67.4072H374.561V69.2725H368.291V73.261H373.757V75.1262Z" fill="white"/>
<path d="M396.685 67.3876V76.2972C396.716 76.9252 396.608 77.5523 396.368 78.1349C396.129 78.7175 395.764 79.2414 395.298 79.6704C394.241 80.4814 392.94 80.9217 391.601 80.9217C390.262 80.9217 388.961 80.4814 387.903 79.6704C387.437 79.2422 387.071 78.7184 386.831 78.1357C386.592 77.5529 386.484 76.9253 386.517 76.2972V67.3478H388.868V76.2972C388.831 77.0205 389.075 77.7304 389.551 78.2815C389.819 78.5296 390.136 78.7208 390.481 78.8437C390.827 78.9665 391.194 79.0184 391.561 78.9958C393.369 78.9958 394.294 78.0435 394.294 76.1584V67.2485L396.685 67.3876Z" fill="white"/>
<path d="M419.312 69.2725H415.072V80.8014H412.741V69.2725H408.541V67.4072H419.312V69.2725Z" fill="white"/>
<path d="M441.336 67.3876V76.2971C441.367 76.9251 441.259 77.5523 441.019 78.1349C440.78 78.7175 440.415 79.2414 439.949 79.6704C438.931 80.5371 437.614 80.9846 436.272 80.9205C434.924 81.0015 433.597 80.5601 432.574 79.6903C432.103 79.2569 431.735 78.7265 431.495 78.1366C431.256 77.5467 431.151 76.9118 431.188 76.2773V67.328H433.539V76.2971C433.509 77.0228 433.761 77.7323 434.242 78.2815C434.509 78.5316 434.825 78.7241 435.171 78.8471C435.517 78.97 435.885 79.0207 436.252 78.9958C438.06 78.9958 438.964 78.0435 438.964 76.1584V67.2485L441.336 67.3876Z" fill="white"/>
<path d="M456.527 73.7568H458.958C459.632 73.7994 460.297 73.5946 460.827 73.1815C461.239 72.7296 461.468 72.1427 461.468 71.5344C461.468 70.9261 461.239 70.3394 460.827 69.8875C460.314 69.4544 459.652 69.2338 458.978 69.2722H456.487L456.527 73.7568ZM459.159 75.7411H456.527V80.9003H454.176V67.4865H458.858C460.157 67.4095 461.443 67.7812 462.495 68.538C462.926 68.9112 463.265 69.3773 463.484 69.9003C463.704 70.4233 463.798 70.9893 463.761 71.5542C463.788 72.3495 463.563 73.1332 463.118 73.7965C462.645 74.4255 462.005 74.9131 461.269 75.2053L464.324 80.7814V80.9003H461.872L459.159 75.7411Z" fill="white"/>
<path d="M484.981 73.7376C485.058 72.5389 484.756 71.3463 484.117 70.3246C483.838 69.9551 483.476 69.6552 483.059 69.4485C482.642 69.2417 482.182 69.134 481.715 69.134C481.249 69.134 480.789 69.2417 480.372 69.4485C479.955 69.6552 479.593 69.9551 479.314 70.3246C478.679 71.3267 478.37 72.4974 478.43 73.6782V74.4519C478.355 75.6503 478.657 76.8423 479.294 77.8651C479.564 78.2523 479.928 78.566 480.353 78.7776C480.778 78.9891 481.25 79.0916 481.726 79.0755C482.197 79.096 482.666 78.9973 483.088 78.789C483.509 78.5806 483.871 78.2696 484.137 77.885C484.764 76.8514 485.058 75.6541 484.981 74.4519V73.7376ZM487.332 74.4519C487.36 75.6381 487.127 76.8163 486.649 77.9048C486.221 78.844 485.522 79.6376 484.639 80.1866C483.984 80.6041 483.246 80.878 482.475 80.9896C481.704 81.1012 480.917 81.0481 480.168 80.8336C479.42 80.6191 478.726 80.2483 478.135 79.7465C477.544 79.2446 477.069 78.6233 476.742 77.9245C476.258 76.851 476.018 75.6862 476.039 74.5115V73.7574C476.008 72.569 476.249 71.3891 476.742 70.3047C477.17 69.3601 477.868 68.5599 478.752 68.0028C479.639 67.4638 480.664 67.1884 481.705 67.2093C482.741 67.1866 483.76 67.4622 484.639 68.0028C485.528 68.5353 486.23 69.3251 486.649 70.265C487.139 71.3433 487.379 72.5161 487.352 73.6978L487.332 74.4519Z" fill="white"/>
</svg>
