<svg width="496" height="34" viewBox="0 0 496 34" fill="none" xmlns="http://www.w3.org/2000/svg">
<g clip-path="url(#clip0)">
<path d="M152.432 24.7635C151.923 26.2465 151.127 27.614 150.089 28.7876C149.052 29.9612 147.794 30.9176 146.387 31.6022C142.84 33.3191 138.93 34.1422 134.994 34C130.485 34 127.388 33.2437 125.701 31.7312C124.029 30.2258 123.558 27.5807 124.372 23.785L136.57 22.3226C135.955 25.5843 136.219 27.2151 137.363 27.2151C137.842 27.221 138.309 27.0604 138.684 26.7606C139.059 26.4608 139.319 26.0402 139.421 25.5699C139.606 25.086 139.678 24.5658 139.632 24.0494C139.585 23.533 139.421 23.0342 139.153 22.5914C138.18 21.3412 136.952 20.3147 135.551 19.5807C133.38 18.4078 131.492 16.7705 130.021 14.785C129.556 13.9156 129.289 12.9541 129.237 11.9691C129.185 10.984 129.35 9.99976 129.721 9.08611C131.771 3.0216 137.445 -0.00715576 146.741 1.26947e-05C151.028 1.26947e-05 154.051 0.763469 155.712 2.3011C157.373 3.83874 157.856 6.21507 157.255 9.40861L145.465 10.871C145.948 8.13978 145.616 6.78502 144.469 6.78502C144.066 6.75957 143.667 6.87549 143.341 7.11291C143.014 7.35032 142.78 7.69438 142.679 8.08605C142.553 8.42582 142.519 8.79316 142.581 9.1503C142.643 9.50744 142.799 9.84153 143.033 10.1183C144.012 11.2358 145.19 12.1618 146.505 12.8496C149.585 14.7635 151.528 16.5055 152.336 18.0753C153.29 19.7958 153.311 22.0323 152.389 24.7635H152.432ZM174.897 33.4839H151.543L162.711 0.569937H186.044L183.568 7.87105H173.654L172.068 12.5269H180.128L177.695 19.7312H169.635L167.427 26.1828H177.427L174.897 33.4839ZM207.598 24.7635C207.091 26.2446 206.299 27.611 205.265 28.7845C204.231 29.9579 202.977 30.9153 201.575 31.6022C198.023 33.3155 194.109 34.1383 190.171 34C185.648 34 182.55 33.2437 180.878 31.7312C179.195 30.2258 178.734 27.5807 179.538 23.785L191.735 22.3226C191.135 25.5843 191.4 27.2151 192.529 27.2151C193.008 27.221 193.475 27.0604 193.85 26.7606C194.225 26.4608 194.485 26.0402 194.586 25.5699C194.777 25.0875 194.853 24.5672 194.808 24.0502C194.763 23.5333 194.599 23.0338 194.329 22.5914C193.354 21.3438 192.127 20.3177 190.728 19.5807C188.557 18.4078 186.669 16.7705 185.197 14.785C184.731 13.9163 184.462 12.9547 184.41 11.9693C184.358 10.9839 184.524 9.99926 184.897 9.08611C186.941 3.0216 192.611 -0.00715576 201.907 1.26947e-05C206.194 1.26947e-05 209.227 0.763469 210.889 2.3011C212.55 3.83874 213.032 6.21507 212.421 9.40861L200.685 10.871C201.157 8.13978 200.824 6.78502 199.677 6.78502C199.277 6.76214 198.88 6.87924 198.556 7.11645C198.232 7.35366 197.999 7.69629 197.898 8.08605C197.765 8.42541 197.729 8.79512 197.793 9.15397C197.858 9.51282 198.02 9.84671 198.263 10.1183C199.235 11.2388 200.41 12.1654 201.725 12.8496C204.804 14.7635 206.748 16.5055 207.555 18.0753C208.52 19.7958 208.531 22.0323 207.555 24.7635H207.598ZM240.503 7.81724H234.393L225.69 33.4839H212.282L220.974 7.81724H214.865L217.341 0.516121H242.957L240.503 7.81724Z" fill="white"/>
<path d="M283.546 24.7635C282.519 27.7523 280.353 30.2112 277.523 31.6022C273.972 33.3176 270.058 34.1405 266.119 34C261.596 34 258.509 33.2473 256.837 31.7312C255.165 30.2151 254.693 27.5806 255.508 23.7849L267.684 22.3226C267.083 25.5842 267.351 27.2151 268.487 27.2151C268.964 27.2094 269.425 27.0445 269.798 26.7465C270.17 26.4486 270.433 26.0346 270.545 25.5699C270.733 25.087 270.808 24.5671 270.763 24.0506C270.719 23.5341 270.556 23.0347 270.288 22.5914C269.306 21.3466 268.076 20.3213 266.676 19.5807C264.505 18.4078 262.617 16.7705 261.146 14.785C260.682 13.9154 260.414 12.9547 260.36 11.9701C260.307 10.9856 260.469 10.0012 260.835 9.08611C262.893 3.0216 268.566 -0.00715576 277.855 1.26947e-05C282.142 1.26947e-05 285.165 0.763469 286.826 2.3011C288.487 3.83874 288.97 6.21507 288.369 9.40861L276.633 10.871C277.116 8.13978 276.773 6.78502 275.636 6.78502C275.234 6.76164 274.836 6.8783 274.51 7.1154C274.184 7.3525 273.95 7.69542 273.846 8.08605C273.717 8.42601 273.683 8.79495 273.747 9.15305C273.811 9.51116 273.972 9.84488 274.211 10.1183C275.186 11.2362 276.36 12.1624 277.673 12.8496C280.76 14.7635 282.703 16.5054 283.503 18.0753C284.468 19.7958 284.49 22.0323 283.503 24.7635H283.546ZM306.011 33.4839H282.678L293.836 0.569937H317.158L314.693 7.87105H304.811L303.235 12.5269H311.242L308.809 19.7312H300.76L298.562 26.1828H308.552L306.011 33.4839ZM337.094 33.4839H326.44L325.518 27.3978C325.06 24.6605 324.802 21.8933 324.747 19.1183C324.296 20.914 323.482 23.527 322.303 26.9786L320.159 33.4302H308.091L319.248 0.569937H330.588L331.21 4.61296C331.736 7.58787 332.065 10.5944 332.196 13.613C332.89 10.7012 333.741 7.82962 334.747 5.0108L336.236 0.591463H348.316L337.094 33.4839ZM370.931 33.4839H357.79L358.659 28.4946H353.439L350.931 33.4839H338.187L357.04 0.569937H374.478L370.931 33.4839ZM359.72 21.8925L360.073 20.1936C360.402 18.4732 361.284 14.6309 362.721 8.66674C361.256 12.0861 359.527 15.9284 357.533 20.1936L356.74 21.8925H359.72ZM401.274 7.81724H395.164L386.483 33.4839H373.064L381.756 7.81724H375.647L378.123 0.516121H403.749L401.274 7.81724Z" fill="white"/>
<path d="M91.6478 7.81723H85.5385L76.8462 33.4839H63.4378L72.1302 7.81723H66.0209L68.4861 0.516108H94.1237L91.6478 7.81723ZM55.5386 33.4839H44.8849L43.9631 27.4086C43.5009 24.6682 43.2429 21.8972 43.1914 19.1183C42.7306 20.914 41.9267 23.5269 40.7584 26.9892L38.5505 33.4408H26.482L37.6395 0.569924H48.9685L49.6115 4.62371C50.1299 7.59946 50.4557 10.6057 50.5869 13.6237C51.2814 10.7133 52.1293 7.84185 53.1271 5.02155L54.6276 0.59145H66.7069L55.5386 33.4839ZM28.7435 22.1291C27.1928 25.5582 24.844 28.5635 21.8946 30.8925C18.6399 33.0756 14.7775 34.1639 10.8657 34C5.74249 34 2.46278 32.8603 0.9944 30.5592C-0.606165 27.957 -0.31678 23.4373 1.86256 17.0001C4.0419 10.5628 6.81429 6.04309 10.1798 3.44094C13.1951 1.14703 17.2608 0 22.3769 0C26.9428 0 29.9832 1.07527 31.498 3.22581C32.7985 5.11111 32.9735 8.04666 32.0232 12.0323L19.0543 13.1076C19.6129 11.5399 20.0571 9.93339 20.3834 8.30104C20.4584 7.64513 20.2976 7.31188 19.9011 7.31188C19.5045 7.31188 19.0008 7.76351 18.5506 8.67749C17.9933 9.87463 16.975 12.6524 15.4959 17.0108C14.0169 21.3692 13.1522 24.147 12.9022 25.3442C12.7414 26.2581 12.9022 26.7204 13.3309 26.7204C13.7596 26.7204 14.1133 26.4086 14.4563 25.8172C14.7993 25.2258 15.5281 23.5699 16.6535 20.871L28.7435 22.1291Z" fill="white"/>
<path d="M445.711 0H457.04L445.003 34H433.674L445.711 0Z" fill="white"/>
<path d="M461.809 9.23656H455.571L458.83 0H482.656L479.387 9.23656H473.138L464.36 34H453.031L461.809 9.23656Z" fill="white"/>
<path d="M484.392 0H495.721L486.943 24.7742H496L492.731 34H472.356L484.392 0Z" fill="white"/>
<path d="M114.212 0.537598H111.125L100.064 33.7204H103.14L114.212 0.537598Z" fill="white"/>
<path d="M424.017 0.537598H420.931L409.859 33.7204H412.946L424.017 0.537598Z" fill="white"/>
</g>
<defs>
<clipPath id="clip0">
<rect width="496" height="34" fill="white"/>
</clipPath>
</defs>
</svg>
