<svg width="289" height="20" viewBox="0 0 289 20" fill="none" xmlns="http://www.w3.org/2000/svg">
<g clip-path="url(#clip0)">
<path d="M88.8164 14.5668C88.5197 15.4391 88.0558 16.2436 87.4513 16.9339C86.8469 17.6242 86.1139 18.1868 85.2942 18.5895C83.2276 19.5995 80.9489 20.0836 78.6558 20C76.0287 20 74.2239 19.5551 73.2414 18.6654C72.2672 17.7799 71.9924 16.2239 72.467 13.9911L79.5738 13.1309C79.2158 15.0496 79.3698 16.0089 80.0359 16.0089C80.3153 16.0124 80.5873 15.9179 80.8058 15.7415C81.0243 15.5652 81.1759 15.3177 81.235 15.0411C81.3431 14.7565 81.3852 14.4505 81.3582 14.1467C81.3311 13.843 81.2355 13.5495 81.0788 13.2891C80.5124 12.5537 79.7969 11.9498 78.9805 11.5181C77.7154 10.8281 76.6153 9.86503 75.7581 8.69703C75.4875 8.18563 75.3315 7.62006 75.3012 7.04063C75.271 6.4612 75.3673 5.88221 75.5833 5.34477C76.7781 1.77741 80.0838 -0.00420927 85.5003 7.46747e-06C87.9983 7.46747e-06 89.7594 0.4491 90.7274 1.35359C91.6954 2.25808 91.9764 3.65592 91.6266 5.53448L84.7571 6.39468C85.0382 4.78811 84.8446 3.99119 84.1764 3.99119C83.9418 3.97622 83.7094 4.04441 83.5191 4.18406C83.3288 4.32372 83.1925 4.5261 83.1335 4.7565C83.06 4.95636 83.0404 5.17244 83.0766 5.38253C83.1128 5.59261 83.2035 5.78914 83.3395 5.95196C83.9104 6.6093 84.5964 7.15402 85.3629 7.55856C87.1573 8.68443 88.2897 9.70909 88.7602 10.6326C89.316 11.6446 89.3285 12.9602 88.7914 14.5668H88.8164ZM101.906 19.6964H88.2981L94.8054 0.335257H108.401L106.958 4.63003H101.182L100.257 7.36878H104.953L103.536 11.6066H98.8396L97.5532 15.4016H103.38L101.906 19.6964ZM120.959 14.5668C120.664 15.438 120.202 16.2418 119.6 16.932C118.998 17.6223 118.267 18.1855 117.45 18.5895C115.38 19.5974 113.1 20.0814 110.805 20C108.17 20 106.365 19.5551 105.391 18.6654C104.41 17.7799 104.142 16.2239 104.61 13.9911L111.717 13.1309C111.367 15.0496 111.521 16.0089 112.179 16.0089C112.458 16.0124 112.73 15.9179 112.949 15.7415C113.167 15.5652 113.319 15.3177 113.378 15.0411C113.489 14.7573 113.533 14.4513 113.507 14.1472C113.481 13.8431 113.386 13.5493 113.228 13.2891C112.66 12.5552 111.945 11.9516 111.13 11.5181C109.865 10.8281 108.765 9.86503 107.907 8.69703C107.635 8.18606 107.479 7.62043 107.449 7.04078C107.418 6.46113 107.515 5.88192 107.733 5.34477C108.923 1.77741 112.227 -0.00420927 117.643 7.46747e-06C120.141 7.46747e-06 121.909 0.4491 122.877 1.35359C123.845 2.25808 124.126 3.65592 123.77 5.53448L116.931 6.39468C117.206 4.78811 117.013 3.99119 116.344 3.99119C116.111 3.97773 115.88 4.04661 115.691 4.18615C115.502 4.32568 115.367 4.52723 115.308 4.7565C115.23 4.95613 115.209 5.1736 115.247 5.38469C115.284 5.59578 115.379 5.79218 115.52 5.95196C116.087 6.61105 116.771 7.15611 117.537 7.55856C119.332 8.68443 120.464 9.70909 120.934 10.6326C121.497 11.6446 121.503 12.9602 120.934 14.5668H120.959ZM140.132 4.59837H136.572L131.501 19.6964H123.689L128.753 4.59837H125.194L126.636 0.3036H141.562L140.132 4.59837Z" fill="#003870"/>
<path d="M165.212 14.5668C164.613 16.3249 163.351 17.7713 161.702 18.5895C159.633 19.5986 157.352 20.0826 155.057 20C152.422 20 150.623 19.5573 149.649 18.6654C148.675 17.7736 148.4 16.2239 148.875 13.9911L155.969 13.1309C155.619 15.0496 155.775 16.0089 156.437 16.0089C156.715 16.0055 156.984 15.9085 157.201 15.7333C157.418 15.558 157.571 15.3145 157.636 15.0411C157.746 14.757 157.789 14.4513 157.763 14.1474C157.737 13.8436 157.643 13.5499 157.486 13.2891C156.914 12.5569 156.197 11.9537 155.382 11.5181C154.117 10.8281 153.017 9.86503 152.16 8.69703C151.89 8.18554 151.733 7.62039 151.702 7.04125C151.671 6.4621 151.765 5.88305 151.978 5.34477C153.177 1.77741 156.483 -0.00420927 161.895 7.46747e-06C164.393 7.46747e-06 166.155 0.4491 167.123 1.35359C168.09 2.25808 168.372 3.65592 168.022 5.53448L161.184 6.39468C161.465 4.78811 161.265 3.99119 160.603 3.99119C160.368 3.97744 160.137 4.04606 159.947 4.18553C159.757 4.325 159.62 4.52672 159.56 4.7565C159.485 4.95648 159.464 5.1735 159.502 5.38415C159.539 5.5948 159.633 5.79111 159.772 5.95196C160.34 6.60953 161.024 7.15435 161.789 7.55856C163.588 8.68443 164.72 9.70909 165.187 10.6326C165.749 11.6446 165.761 12.9602 165.187 14.5668H165.212ZM178.301 19.6964H164.706L171.207 0.335257H184.796L183.36 4.63003H177.602L176.684 7.36878H181.349L179.931 11.6066H175.241L173.961 15.4016H179.781L178.301 19.6964ZM196.412 19.6964H190.204L189.667 16.1164C189.4 14.5062 189.25 12.8784 189.217 11.2461C188.955 12.3024 188.48 13.8394 187.794 15.8698L186.545 19.6648H179.513L186.014 0.335257H192.621L192.983 2.7135C193.29 4.46346 193.482 6.23202 193.558 8.00762C193.962 6.29485 194.458 4.60566 195.044 2.94753L195.912 0.347919H202.95L196.412 19.6964ZM216.127 19.6964H208.471L208.977 16.7615H205.935L204.474 19.6964H197.049L208.034 0.335257H218.194L216.127 19.6964ZM209.595 12.8779L209.801 11.8786C209.992 10.8666 210.507 8.60641 211.343 5.09808C210.49 7.10947 209.482 9.36962 208.321 11.8786L207.859 12.8779H209.595ZM233.807 4.59837H230.247L225.189 19.6964H217.37L222.435 4.59837H218.875L220.317 0.3036H235.249L233.807 4.59837Z" fill="#003870"/>
<path d="M53.4003 4.59837H49.8407L44.776 19.6964H36.9634L42.0282 4.59837H38.4685L39.9049 0.303593H54.8429L53.4003 4.59837ZM32.3609 19.6964H26.1534L25.6163 16.1227C25.347 14.5107 25.1967 12.8807 25.1666 11.2461C24.8981 12.3024 24.4297 13.8393 23.749 15.876L22.4626 19.6711H15.4307L21.9317 0.335249H28.5327L28.9074 2.71983C29.2094 4.47027 29.3992 6.23867 29.4757 8.01394C29.8804 6.30192 30.3744 4.61285 30.9558 2.95385L31.8301 0.347912H38.8682L32.3609 19.6964ZM16.7484 13.0171C15.8449 15.0343 14.4763 16.8021 12.7578 18.172C10.8614 19.4563 8.61096 20.0964 6.33172 20C3.34661 20 1.43564 19.3296 0.580075 17.976C-0.352512 16.4453 -0.183898 13.7867 1.08592 10C2.35574 6.2134 3.9711 3.55476 5.93203 2.02408C7.68896 0.674725 10.0579 0 13.0388 0C15.6992 0 17.4707 0.632511 18.3533 1.89753C19.1111 3.00654 19.2131 4.73333 18.6593 7.07784L11.1029 7.71035C11.4284 6.78816 11.6872 5.84317 11.8773 4.88297C11.921 4.49714 11.8273 4.30111 11.5962 4.30111C11.3652 4.30111 11.0717 4.56677 10.8094 5.10441C10.4847 5.8086 9.89137 7.44259 9.02956 10.0064C8.16775 12.5701 7.66398 14.2041 7.51826 14.9083C7.42459 15.446 7.51826 15.7179 7.76806 15.7179C8.01786 15.7179 8.22396 15.5345 8.4238 15.1866C8.62364 14.8387 9.04829 13.8647 9.70401 12.2771L16.7484 13.0171Z" fill="#003870"/>
<path d="M259.698 0H266.299L259.286 20H252.685L259.698 0Z" fill="#003870"/>
<path d="M269.078 5.43327H265.444L267.342 0H281.225L279.32 5.43327H275.679L270.565 20H263.964L269.078 5.43327Z" fill="#003870"/>
<path d="M282.237 0H288.838L283.723 14.5731H289L287.095 20H275.224L282.237 0Z" fill="#003870"/>
<path d="M66.5467 0.316162H64.7482L58.3033 19.8355H60.0957L66.5467 0.316162Z" fill="#003870"/>
<path d="M247.059 0.316162H245.26L238.809 19.8355H240.607L247.059 0.316162Z" fill="#003870"/>
</g>
<defs>
<clipPath id="clip0">
<rect width="289" height="20" fill="white"/>
</clipPath>
</defs>
</svg>
