<svg width="321" height="53" viewBox="0 0 321 53" fill="none" xmlns="http://www.w3.org/2000/svg">
<g clip-path="url(#clip0)">
<path d="M75.1842 28.7332H0.0792847V35.6535H75.1842V28.7332Z" fill="#EB5C52"/>
<path d="M157.123 28.7332H82.0179V35.6535H157.123V28.7332Z" fill="#FAB526"/>
<path d="M239.061 28.7332H163.957V35.6535H239.061V28.7332Z" fill="#00A682"/>
<path d="M321 28.7332H245.895V35.6535H321V28.7332Z" fill="#784A96"/>
<path d="M22.5764 4.843C22.5764 4.87652 22.5696 4.90967 22.5561 4.94048C22.5427 4.97129 22.5229 4.99902 22.4982 5.0221C22.4735 5.04519 22.4442 5.06312 22.4122 5.07472C22.3802 5.08633 22.3462 5.09138 22.3121 5.08962H11.4204C11.3432 5.08962 11.2693 5.11974 11.2148 5.17331C11.1603 5.22687 11.1296 5.29947 11.1296 5.37523V20.6572C11.1296 20.7261 11.1017 20.7922 11.0521 20.8409C11.0026 20.8896 10.9353 20.917 10.8652 20.917H6.0803C6.04558 20.917 6.0112 20.9102 5.97913 20.8972C5.94706 20.8841 5.91792 20.865 5.89337 20.8409C5.86882 20.8168 5.84938 20.7881 5.83609 20.7566C5.8228 20.7251 5.81592 20.6913 5.81592 20.6572V5.37523C5.80988 5.30145 5.77731 5.2323 5.72403 5.17996C5.67075 5.12762 5.60027 5.09555 5.52516 5.08962H0.237949C0.203873 5.09138 0.169761 5.08633 0.137749 5.07472C0.105736 5.06312 0.0764866 5.04519 0.0517475 5.0221C0.0270084 4.99902 0.00734204 4.97129 -0.00609751 4.94048C-0.0195371 4.90967 -0.0264753 4.87652 -0.026428 4.843V0.324656C-0.023034 0.258061 0.00632514 0.195287 0.0555393 0.149362C0.104754 0.103437 0.170067 0.0777977 0.237949 0.0778811H22.2724C22.3403 0.0777977 22.4056 0.103437 22.4548 0.149362C22.504 0.195287 22.5334 0.258061 22.5368 0.324656L22.5764 4.843Z" fill="#003870"/>
<path d="M52.806 8.73806C53.1191 8.77113 53.433 8.68213 53.6802 8.49033C53.9273 8.29854 54.088 8.01921 54.1278 7.71229V6.29709C54.088 5.98921 53.9278 5.70864 53.6811 5.51477C53.4344 5.32089 53.1205 5.22886 52.806 5.25832H25.7222C25.6755 5.2546 25.6286 5.26076 25.5844 5.27623C25.5403 5.2917 25.5001 5.3161 25.4663 5.34803C25.4326 5.37995 25.4061 5.41862 25.3887 5.46135C25.3713 5.50409 25.3634 5.54993 25.3654 5.59591V8.37447C25.3688 8.46518 25.4079 8.551 25.4745 8.61396C25.541 8.67692 25.6298 8.71213 25.7222 8.71207L52.806 8.73806ZM54.868 20.9169C54.7756 20.917 54.6868 20.8818 54.6202 20.8188C54.5537 20.7558 54.5146 20.67 54.5112 20.5793V17.5411C54.4992 17.3606 54.44 17.1862 54.3393 17.0347C54.3393 17.0347 54.3393 17.0347 54.3393 16.9568L51.4974 14.0094C51.4229 13.9496 51.3293 13.9174 51.233 13.9186H25.7222C25.6778 13.9151 25.633 13.9204 25.5907 13.9343C25.5484 13.9482 25.5094 13.9703 25.4761 13.9994C25.4427 14.0285 25.4157 14.0641 25.3967 14.1037C25.3777 14.1434 25.367 14.1864 25.3654 14.2302V20.5793C25.3674 20.6253 25.3594 20.6711 25.342 20.7139C25.3246 20.7566 25.2982 20.7953 25.2645 20.8272C25.2307 20.8591 25.1904 20.8835 25.1463 20.899C25.1022 20.9145 25.0552 20.9206 25.0085 20.9169H20.2368C20.1901 20.9206 20.1431 20.9145 20.099 20.899C20.0549 20.8835 20.0146 20.8591 19.9808 20.8272C19.9471 20.7953 19.9206 20.7566 19.9032 20.7139C19.8858 20.6711 19.8779 20.6253 19.8799 20.5793V0.415378C19.8779 0.369396 19.8858 0.32355 19.9032 0.280816C19.9206 0.238083 19.9471 0.199418 19.9808 0.167493C20.0146 0.135569 20.0549 0.111163 20.099 0.0956955C20.1431 0.0802274 20.1901 0.0740605 20.2368 0.0777856H52.806C54.5413 0.0319731 56.2252 0.658619 57.494 1.82233C58.7628 2.98604 59.5146 4.59343 59.5868 6.29709V7.71229C59.5798 8.54878 59.3952 9.3747 59.0447 10.1371C58.6942 10.8995 58.1855 11.5816 57.5513 12.1398C57.5175 12.1691 57.4905 12.2049 57.472 12.2452C57.4535 12.2855 57.4439 12.3292 57.4439 12.3734C57.4439 12.4176 57.4535 12.4614 57.472 12.5017C57.4905 12.542 57.5175 12.578 57.5513 12.6072L58.5559 13.646L58.8202 13.9834C59.5686 15.0273 59.987 16.2649 60.0231 17.5411V20.5793C60.0231 20.6688 59.9868 20.7547 59.9224 20.818C59.8579 20.8813 59.7705 20.9169 59.6794 20.9169H54.868Z" fill="#003870"/>
<path d="M73.5055 13.1399C73.5845 13.142 73.6628 13.1252 73.7337 13.0911C73.8047 13.057 73.8662 13.0065 73.9129 12.944C73.9597 12.8814 73.9903 12.8088 74.0022 12.7321C74.0141 12.6554 74.007 12.5771 73.9813 12.5037C73.5055 11.413 73.0032 10.2964 72.5538 9.24472C72.5538 9.12787 72.4745 9.02398 72.4084 8.90713C72.3747 9.02159 72.335 9.13428 72.2895 9.24472C71.8268 10.2964 71.351 11.413 70.8751 12.5037C70.847 12.5749 70.8371 12.6517 70.8463 12.7276C70.8555 12.8035 70.8835 12.8761 70.9279 12.9389C70.9722 13.0017 71.0315 13.0529 71.1007 13.0879C71.1698 13.1229 71.2467 13.1408 71.3245 13.1399H73.5055ZM82.1501 20.4628C82.1484 20.5253 82.134 20.5868 82.1076 20.6438C82.0813 20.7007 82.0436 20.7518 81.9968 20.7942C81.9499 20.8366 81.8949 20.8693 81.8349 20.8904C81.775 20.9115 81.7114 20.9207 81.6478 20.9172H77.2462C77.1229 20.9212 77.0026 20.8792 76.9095 20.7997C76.8163 20.7203 76.7572 20.6091 76.7439 20.4886C76.7608 19.8449 76.712 19.2012 76.5985 18.567C76.5742 18.4652 76.5149 18.3748 76.4307 18.3109C76.3464 18.247 76.2423 18.2137 76.1359 18.2164H68.7206C68.6136 18.2111 68.5082 18.2436 68.4234 18.3079C68.3385 18.3722 68.2798 18.464 68.2579 18.567C68.1491 19.1936 68.0873 19.8273 68.0729 20.4628C68.0747 20.5229 68.064 20.5828 68.0414 20.6387C68.0188 20.6946 67.9848 20.7454 67.9415 20.788C67.8982 20.8306 67.8464 20.8641 67.7894 20.8863C67.7325 20.9085 67.6715 20.919 67.6102 20.9172H63.2086C63.0824 20.9172 62.9614 20.8679 62.8722 20.7802C62.7829 20.6926 62.7328 20.5737 62.7328 20.4498C62.6875 18.9267 62.962 17.4106 63.5391 15.9963C64.385 14.1266 65.9183 10.53 67.3062 7.36197C68.6941 4.19391 69.4872 2.28532 69.8705 1.54524L70.4654 0.337831C70.5085 0.261738 70.5718 0.19854 70.6487 0.155088C70.7255 0.111635 70.8129 0.0894788 70.9015 0.0910562H73.9417C74.0326 0.0870652 74.1228 0.108023 74.2021 0.151601C74.2815 0.195179 74.3469 0.259733 74.3911 0.337831L74.9727 1.54524C75.356 2.28532 76.1887 4.24585 77.6163 7.36197C79.0438 10.4781 80.4978 14.1266 81.4099 15.9963C81.9956 17.4264 82.2703 18.961 82.2161 20.5016" fill="#003870"/>
<path d="M96.2933 20.3846C95.3813 19.1771 93.9934 16.814 92.7905 14.7236C92.1428 13.633 91.3366 12.2697 91.1119 11.9451L90.9929 11.7893L90.874 11.5945L90.4377 10.7765V20.6962C90.4361 20.74 90.4255 20.783 90.4064 20.8227C90.3874 20.8623 90.3604 20.8978 90.3271 20.9269C90.2937 20.9561 90.2547 20.9782 90.2124 20.9921C90.1701 21.006 90.1253 21.0113 90.0808 21.0078H85.4281C85.3871 21.0078 85.3464 20.9997 85.3087 20.9838C85.2709 20.968 85.2367 20.945 85.2083 20.9159C85.1799 20.8867 85.1578 20.8522 85.1433 20.8144C85.1289 20.7767 85.1223 20.7365 85.1241 20.6962V0.45443C85.1223 0.414135 85.1289 0.373937 85.1433 0.336194C85.1578 0.298451 85.1799 0.263878 85.2083 0.234758C85.2367 0.205638 85.2709 0.182577 85.3087 0.166764C85.3464 0.150951 85.3871 0.142793 85.4281 0.142831H90.1073C90.149 0.14109 90.1906 0.147462 90.2298 0.161533C90.2689 0.175605 90.3048 0.197036 90.3355 0.224773C90.3662 0.25251 90.3911 0.285868 90.4086 0.323039C90.4262 0.360209 90.436 0.400501 90.4377 0.441434C90.4377 0.532321 90.4377 0.558269 90.4377 0.584237C90.4377 0.610205 90.4377 0.701073 90.4377 0.72704C91.9182 2.67462 94.8129 7.93302 95.4606 9.11454C95.5835 9.26126 95.694 9.41773 95.791 9.5821C95.8294 9.64047 95.8857 9.68514 95.9519 9.70969C96.0181 9.73424 96.0905 9.7373 96.1586 9.71841C96.2267 9.69952 96.2867 9.6597 96.33 9.60477C96.3733 9.54984 96.3975 9.48275 96.3991 9.41331V0.428437C96.399 0.341111 96.4334 0.257131 96.495 0.194183C96.5566 0.131235 96.6407 0.0942038 96.7295 0.0908451H101.395C101.441 0.0890133 101.487 0.096559 101.529 0.112876C101.572 0.129193 101.61 0.153905 101.643 0.185625C101.675 0.217345 101.7 0.25526 101.717 0.297046C101.733 0.338832 101.741 0.383616 101.739 0.428437V20.6442C101.738 20.6863 101.727 20.7277 101.709 20.7658C101.69 20.8038 101.664 20.8379 101.632 20.8658C101.6 20.8937 101.563 20.915 101.522 20.9282C101.481 20.9415 101.438 20.9465 101.395 20.943H96.7031C96.627 20.94 96.5539 20.9131 96.4945 20.8664C96.435 20.8197 96.3923 20.7554 96.3726 20.6832C96.3629 20.5925 96.3629 20.5012 96.3726 20.4106" fill="#003870"/>
<path d="M112.499 20.9169C110.708 20.9912 108.96 20.369 107.634 19.1852C106.307 18.0014 105.51 16.3516 105.414 14.5938V13.568C105.414 13.5345 105.421 13.5014 105.434 13.4706C105.448 13.4397 105.467 13.4119 105.492 13.3888C105.517 13.3657 105.546 13.3479 105.578 13.3363C105.61 13.3247 105.644 13.3196 105.678 13.3214H110.49C110.524 13.3196 110.558 13.3247 110.59 13.3363C110.622 13.3479 110.651 13.3657 110.676 13.3888C110.701 13.4119 110.72 13.4397 110.734 13.4706C110.747 13.5014 110.754 13.5345 110.754 13.568V14.6326C110.754 15.3208 111.547 15.931 112.499 15.931H115.063C116.002 15.931 116.808 15.3467 116.808 14.6326C116.825 14.5556 116.825 14.476 116.808 14.399C116.795 14.3607 116.773 14.3261 116.743 14.2988C116.713 14.2715 116.676 14.2524 116.636 14.2432L108.137 11.205L107.965 11.1141C105.929 10.0624 105.453 7.29682 105.453 6.41392C105.549 4.65609 106.347 3.00628 107.673 1.82251C109 0.638734 110.748 0.0165029 112.538 0.0908031H115.103C116.894 0.0096799 118.644 0.630029 119.97 1.81554C121.296 3.00104 122.089 4.65481 122.174 6.41392V7.4397C122.176 7.46918 122.172 7.49875 122.161 7.52639C122.151 7.55404 122.134 7.57904 122.113 7.59993C122.092 7.62082 122.066 7.63706 122.038 7.64748C122.01 7.6579 121.98 7.66223 121.95 7.66032H117.112C117.08 7.66391 117.047 7.66108 117.016 7.65176C116.985 7.64245 116.956 7.62696 116.931 7.60627C116.906 7.58559 116.886 7.56011 116.872 7.53146C116.857 7.50281 116.849 7.47159 116.847 7.4397V6.41392C116.847 5.7128 116.041 5.11554 115.103 5.11554H112.538C112.135 5.07668 111.731 5.18871 111.407 5.42936C111.084 5.67001 110.865 6.02159 110.794 6.41392C110.784 6.48721 110.784 6.56142 110.794 6.6347C110.807 6.67209 110.828 6.70629 110.855 6.73535C110.882 6.7644 110.915 6.78768 110.952 6.8035L119.478 9.86767L119.65 9.94549C121.685 11.0102 122.121 13.7367 122.121 14.6326C122.036 16.3917 121.243 18.0457 119.917 19.2312C118.591 20.4167 116.841 21.0369 115.05 20.9557L112.499 20.9169Z" fill="#003870"/>
<path d="M137.269 6.20614C137.269 5.62187 136.542 5.08955 135.736 5.08955H132.022C131.945 5.08955 131.871 5.11967 131.816 5.17324C131.762 5.22681 131.731 5.2994 131.731 5.37516V9.02369C131.741 9.09251 131.775 9.15548 131.829 9.20089C131.883 9.2463 131.951 9.27096 132.022 9.27031H135.736C136.542 9.27031 137.269 8.73799 137.269 8.15372V6.20614ZM142.557 6.20614V8.15372C142.467 9.86217 141.696 11.467 140.408 12.6194C139.121 13.7719 137.423 14.3787 135.683 14.308H131.969C131.896 14.3077 131.826 14.3343 131.772 14.3824C131.718 14.4304 131.685 14.4966 131.678 14.5678V20.6572C131.678 20.6913 131.671 20.725 131.658 20.7565C131.645 20.788 131.625 20.8167 131.601 20.8409C131.576 20.865 131.547 20.8841 131.515 20.8971C131.483 20.9102 131.448 20.9169 131.414 20.9169H126.695C126.625 20.9169 126.558 20.8895 126.508 20.8409C126.458 20.7922 126.431 20.726 126.431 20.6572V0.324588C126.434 0.257992 126.463 0.195219 126.513 0.149293C126.562 0.103368 126.627 0.0777292 126.695 0.0778126H128.321H135.749C137.489 0.00714605 139.187 0.613981 140.475 1.76641C141.762 2.91884 142.534 4.52369 142.623 6.23214" fill="#003870"/>
<path d="M154.373 5.20667C154.197 5.18696 154.018 5.2024 153.847 5.25231C153.676 5.30222 153.518 5.38548 153.381 5.49703C153.244 5.60857 153.131 5.74615 153.05 5.9015C152.968 6.05685 152.919 6.22675 152.906 6.40108V14.568C152.919 14.7423 152.968 14.9122 153.05 15.0675C153.131 15.2229 153.244 15.3605 153.381 15.472C153.518 15.5836 153.676 15.6668 153.847 15.7167C154.018 15.7666 154.197 15.7821 154.373 15.7624H178.166C178.525 15.792 178.883 15.6845 179.163 15.462C179.444 15.2395 179.626 14.9193 179.673 14.568V6.40108C179.66 6.22302 179.61 6.04945 179.526 5.8912C179.442 5.73295 179.326 5.59343 179.184 5.48134C179.043 5.36924 178.879 5.28706 178.704 5.23979C178.529 5.19252 178.346 5.18124 178.166 5.20667H154.373ZM154.373 20.9171C152.599 20.9732 150.874 20.3367 149.576 19.1468C148.278 17.957 147.513 16.3107 147.447 14.568V6.40108C147.513 4.65833 148.278 3.01201 149.576 1.82218C150.874 0.632356 152.599 -0.0041496 154.373 0.0519639H178.166C179.945 -0.00777119 181.676 0.62633 182.981 1.81584C184.286 3.00536 185.06 4.65371 185.132 6.40108V14.568C185.06 16.3153 184.286 17.9637 182.981 19.1532C181.676 20.3427 179.945 20.9768 178.166 20.9171H154.373Z" fill="#003870"/>
<path d="M195.429 8.73823H198.826C199.645 8.73823 200.359 8.24487 200.359 7.62164V6.18046C200.359 5.59618 199.645 5.06371 198.826 5.06371H195.429C195.343 5.06364 195.261 5.09611 195.2 5.15421C195.138 5.2123 195.102 5.29149 195.098 5.37531V8.46547C195.102 8.50474 195.113 8.543 195.131 8.578C195.15 8.61299 195.175 8.6441 195.206 8.66945C195.236 8.69479 195.272 8.71391 195.31 8.72571C195.348 8.73751 195.389 8.7418 195.429 8.73823ZM206.162 19.1253V20.7223C206.155 20.7992 206.118 20.8705 206.059 20.9214C206 20.9722 205.923 20.9985 205.844 20.9949H201.126C200.941 20.9949 200.795 20.9041 200.795 20.7483V19.1513C200.777 18.9519 200.709 18.76 200.597 18.5929L197.253 13.9966C197.224 13.9546 197.184 13.9207 197.138 13.898C197.091 13.8753 197.04 13.8646 196.988 13.8668H195.429C195.387 13.865 195.345 13.8714 195.306 13.8855C195.267 13.8996 195.231 13.9211 195.2 13.9489C195.17 13.9766 195.145 14.01 195.127 14.0472C195.11 14.0843 195.1 14.1245 195.098 14.1654V20.6573C195.098 20.7399 195.065 20.8193 195.005 20.8778C194.946 20.9362 194.865 20.9689 194.781 20.9689H190.062C189.977 20.969 189.895 20.9367 189.833 20.8786C189.771 20.8205 189.735 20.7411 189.732 20.6573V0.35057C189.733 0.310646 189.743 0.271564 189.761 0.235662C189.779 0.19976 189.804 0.167846 189.835 0.142151C189.866 0.116455 189.903 0.097583 189.942 0.0865192C189.981 0.0754554 190.022 0.0724868 190.062 0.0779605H198.826C200.57 0.00025402 202.275 0.603887 203.568 1.75705C204.861 2.91021 205.636 4.51914 205.725 6.23228V7.67347C205.713 8.63522 205.466 9.58003 205.006 10.4292C204.546 11.2784 203.887 12.0073 203.082 12.5554C203.047 12.5763 203.018 12.6041 202.995 12.6369C202.972 12.6697 202.956 12.7068 202.949 12.7459C202.941 12.785 202.942 12.8253 202.951 12.864C202.961 12.9027 202.978 12.9392 203.003 12.971L204.8 15.4508L204.88 15.5677C205.69 16.5978 206.152 17.8507 206.201 19.1513" fill="#003870"/>
<path d="M234.726 4.843C234.726 4.87652 234.719 4.90967 234.706 4.94048C234.692 4.97129 234.672 4.99902 234.648 5.0221C234.623 5.04519 234.594 5.06312 234.562 5.07472C234.53 5.08633 234.496 5.09138 234.462 5.08962H221.389C221.312 5.08962 221.238 5.11974 221.183 5.17331C221.129 5.22687 221.098 5.29947 221.098 5.37523V20.6572C221.098 20.6924 221.091 20.7274 221.077 20.7598C221.063 20.7922 221.042 20.8214 221.016 20.8457C220.99 20.87 220.959 20.8887 220.926 20.901C220.892 20.9132 220.856 20.9188 220.821 20.917H216.049C215.979 20.917 215.911 20.8896 215.862 20.8409C215.812 20.7922 215.784 20.7261 215.784 20.6572V5.37523C215.778 5.30145 215.746 5.2323 215.693 5.17996C215.639 5.12762 215.569 5.09555 215.494 5.08962H210.206C210.172 5.09138 210.138 5.08633 210.106 5.07472C210.074 5.06312 210.045 5.04519 210.02 5.0221C209.995 4.99902 209.976 4.97129 209.962 4.94048C209.949 4.90967 209.942 4.87652 209.942 4.843V0.337653C209.942 0.268782 209.97 0.202657 210.019 0.153958C210.069 0.105259 210.136 0.0778809 210.206 0.0778809H234.435C234.505 0.0778809 234.572 0.105259 234.622 0.153958C234.672 0.202657 234.699 0.268782 234.699 0.337653L234.726 4.843Z" fill="#003870"/>
<path d="M229.796 0.298645C229.797 0.257712 229.807 0.21742 229.825 0.18025C229.842 0.143079 229.867 0.10972 229.898 0.0819832C229.928 0.0542462 229.964 0.032657 230.004 0.0185856C230.043 0.00451414 230.084 -0.00169923 230.126 4.17821e-05H266.383C266.424 -0.00171186 266.465 0.00468225 266.503 0.0189026C266.542 0.0331229 266.577 0.0548688 266.607 0.0827757C266.636 0.110683 266.66 0.144096 266.676 0.1812C266.692 0.218305 266.7 0.258311 266.7 0.298645V4.86898C266.7 4.95162 266.667 5.03085 266.607 5.08929C266.548 5.14772 266.467 5.18058 266.383 5.18058H235.664C235.623 5.17884 235.581 5.18521 235.542 5.19928C235.503 5.21335 235.467 5.23478 235.436 5.26252C235.405 5.29026 235.381 5.32362 235.363 5.36079C235.345 5.39796 235.336 5.43825 235.334 5.47918V7.68637C235.336 7.7273 235.345 7.76759 235.363 7.80476C235.381 7.84194 235.405 7.87529 235.436 7.90303C235.467 7.93077 235.503 7.95236 235.542 7.96643C235.581 7.9805 235.623 7.98671 235.664 7.98497H263.515C263.558 7.98323 263.601 7.9899 263.642 8.00463C263.683 8.01935 263.72 8.04193 263.752 8.07088C263.784 8.09982 263.81 8.13468 263.828 8.17342C263.846 8.21217 263.857 8.25393 263.858 8.29657V12.8409C263.859 12.8836 263.85 12.926 263.832 12.965C263.814 13.004 263.788 13.0389 263.756 13.0672C263.723 13.0955 263.685 13.1166 263.643 13.1291C263.602 13.1415 263.558 13.1452 263.515 13.1397H235.638C235.599 13.1379 235.559 13.144 235.523 13.1576C235.486 13.1712 235.452 13.1919 235.424 13.2186C235.395 13.2453 235.373 13.2774 235.357 13.3129C235.342 13.3484 235.334 13.3867 235.334 13.4253V15.4248C235.337 15.5087 235.374 15.5878 235.435 15.6459C235.497 15.704 235.579 15.7365 235.664 15.7364H266.436C266.477 15.7347 266.518 15.7411 266.556 15.7553C266.595 15.7695 266.63 15.7913 266.66 15.8192C266.689 15.8471 266.713 15.8805 266.729 15.9176C266.745 15.9547 266.753 15.9947 266.753 16.035V20.6054C266.753 20.688 266.72 20.7672 266.66 20.8257C266.601 20.8841 266.52 20.917 266.436 20.917H230.179C230.093 20.917 230.011 20.8846 229.95 20.8265C229.888 20.7684 229.852 20.6892 229.848 20.6054L229.796 0.298645Z" fill="#003870"/>
<path d="M301.477 20.3845C301.473 20.5268 301.413 20.6622 301.31 20.7617C301.206 20.8612 301.067 20.9169 300.922 20.9168H298.172C298.028 20.9137 297.891 20.857 297.788 20.7582C297.685 20.6594 297.624 20.5258 297.617 20.3845V17.5411C297.621 17.3987 297.681 17.2632 297.784 17.1637C297.888 17.0642 298.027 17.0087 298.172 17.0087H300.922C300.994 17.007 301.066 17.0195 301.133 17.0455C301.2 17.0714 301.262 17.1103 301.313 17.1599C301.365 17.2095 301.406 17.2688 301.434 17.3342C301.462 17.3997 301.477 17.4701 301.477 17.5411V20.3845Z" fill="#003870"/>
<path d="M311.985 5.0118H310.069C309.804 5.00663 309.542 5.05302 309.296 5.14842C309.05 5.24382 308.826 5.38628 308.636 5.56748C308.447 5.74867 308.296 5.96506 308.193 6.20399C308.089 6.44292 308.035 6.69969 308.033 6.95937V14.0095C308.047 14.5284 308.268 15.0211 308.649 15.3808C309.03 15.7405 309.54 15.9381 310.069 15.9311H311.985C312.249 15.938 312.512 15.8938 312.758 15.801C313.005 15.7081 313.23 15.5684 313.422 15.39C313.613 15.2115 313.767 14.9978 313.874 14.7609C313.982 14.5241 314.04 14.2687 314.047 14.0095V6.95937C314.044 6.69797 313.988 6.43974 313.882 6.19987C313.776 5.96 313.623 5.74329 313.431 5.56209C313.239 5.38089 313.012 5.23892 312.764 5.14446C312.516 5.04999 312.251 5.0049 311.985 5.0118ZM319.295 6.95937V14.0095C319.257 15.8772 318.465 17.6537 317.095 18.9488C315.724 20.2439 313.887 20.9518 311.985 20.917H310.069C308.166 20.9518 306.327 20.2443 304.954 18.9496C303.582 17.6549 302.788 15.8783 302.746 14.0095V6.95937C302.784 5.08711 303.576 3.30603 304.949 2.00643C306.321 0.706838 308.163 -0.0054085 310.069 0.025892H311.985C313.89 -0.0053801 315.73 0.707273 317.1 2.00723C318.471 3.30718 319.26 5.08828 319.295 6.95937Z" fill="#003870"/>
<path d="M288.867 6.453H285.866C285.814 6.45652 285.762 6.44988 285.713 6.4335C285.663 6.41712 285.617 6.39137 285.578 6.35759C285.539 6.32381 285.507 6.28266 285.484 6.23665C285.46 6.19065 285.447 6.1406 285.443 6.08941V5.45322C285.447 5.33496 285.497 5.22263 285.584 5.14019C285.67 5.05776 285.786 5.01176 285.906 5.01181H294.326C294.486 5.0085 294.639 4.94449 294.752 4.83319C294.866 4.72189 294.931 4.57181 294.934 4.41445V0.688094C294.934 0.528473 294.87 0.375188 294.757 0.261111C294.643 0.147035 294.488 0.0812884 294.326 0.0778922H280.91C280.817 0.0743963 280.725 0.0892753 280.638 0.121637C280.552 0.153998 280.473 0.203137 280.406 0.266183C280.34 0.329229 280.287 0.404896 280.251 0.48855C280.214 0.572204 280.196 0.662186 280.196 0.753077V10.7247C280.206 10.9084 280.29 11.0808 280.428 11.2046C280.566 11.3285 280.749 11.3939 280.936 11.3868H288.867C289.087 11.3816 289.307 11.4193 289.512 11.4974C289.718 11.5755 289.906 11.6926 290.066 11.8421C290.225 11.9916 290.353 12.1705 290.442 12.3686C290.532 12.5668 290.58 12.7803 290.585 12.9969V13.7499V14.2043V14.3731C290.565 14.8049 290.377 15.2125 290.06 15.512C289.742 15.8116 289.32 15.9802 288.88 15.9831H286.964C286.435 15.9901 285.925 15.7923 285.544 15.4326C285.163 15.073 284.942 14.5804 284.928 14.0615V13.7499C284.921 13.5697 284.842 13.3992 284.709 13.2754C284.575 13.1515 284.398 13.0842 284.214 13.0877H280.407C280.317 13.086 280.227 13.1018 280.143 13.1342C280.059 13.1665 279.983 13.2147 279.917 13.2762C279.852 13.3377 279.8 13.4112 279.764 13.4925C279.728 13.5738 279.709 13.6612 279.707 13.7499V14.0615C279.724 14.98 279.925 15.8861 280.3 16.728C280.674 17.5699 281.213 18.3311 281.887 18.9678C282.562 19.6046 283.357 20.1045 284.228 20.439C285.099 20.7734 286.029 20.9359 286.964 20.917H288.88C290.653 20.8935 292.351 20.2105 293.632 19.0057C294.912 17.8009 295.68 16.164 295.78 14.4251L295.846 14.0355V12.9449C295.798 11.1816 295.04 9.50898 293.74 8.29248C292.44 7.07599 290.702 6.41461 288.907 6.453" fill="#003870"/>
<path d="M2.82866 44.106L5.40618 50.8316L7.98369 44.106H9.97962V52.87H8.43311V49.9876L8.59172 46.1184L5.96133 52.87H4.85102L2.22063 46.1184L2.36603 49.9876V52.87H0.819519V44.106H2.82866Z" fill="#003870"/>
<path d="M24.1758 48.248C24.2131 47.4674 24.0104 46.6939 23.5942 46.0279C23.4109 45.7861 23.1726 45.5898 22.8984 45.4546C22.6241 45.3193 22.3215 45.2489 22.0147 45.2489C21.7078 45.2489 21.4052 45.3193 21.1309 45.4546C20.8567 45.5898 20.6184 45.7861 20.4351 46.0279C20.0106 46.6808 19.807 47.4487 19.8535 48.222V48.7284C19.8045 49.5126 20.003 50.2926 20.4219 50.9618C20.5981 51.2132 20.8355 51.4173 21.1125 51.5557C21.3896 51.694 21.6974 51.7621 22.008 51.7538C22.3181 51.7672 22.6265 51.7026 22.904 51.5663C23.1816 51.43 23.4191 51.2264 23.5942 50.9748C24.0064 50.2985 24.1999 49.5151 24.1494 48.7284L24.1758 48.248ZM25.7355 48.7154C25.7475 49.491 25.5945 50.2607 25.2862 50.9748C25.0073 51.591 24.5469 52.1109 23.9644 52.4678C23.3821 52.8233 22.7067 53.0038 22.0213 52.9872C21.3406 52.9991 20.6708 52.8188 20.0914 52.4678C19.5124 52.1126 19.0527 51.5978 18.7696 50.9876C18.4469 50.2863 18.2845 49.524 18.2938 48.7544V48.261C18.2807 47.4841 18.4386 46.7135 18.7565 46.0019C19.0436 45.3874 19.5018 44.8652 20.0783 44.4957C20.6648 44.1553 21.3334 43.9758 22.0147 43.9758C22.6959 43.9758 23.3646 44.1553 23.9511 44.4957C24.5296 44.8515 24.9892 45.3661 25.2729 45.9759C25.5955 46.6814 25.7535 47.4488 25.7355 48.222V48.7154Z" fill="#003870"/>
<path d="M37.0766 50.9614L39.3369 44.106H41.042L37.83 52.87H36.3364L33.1244 44.106H34.8295L37.0766 50.9614Z" fill="#003870"/>
<path d="M50.4797 44.106H48.9332V52.883H50.4797V44.106Z" fill="#003870"/>
<path d="M61.1731 44.106L63.7506 50.8316L66.3281 44.106H68.324V52.87H66.7775V49.9876L66.9361 46.1184L64.3058 52.87H63.1822L60.5518 46.1184L60.7105 49.9876V52.87H59.1639V44.106H61.1731Z" fill="#003870"/>
<path d="M82.1633 48.9619H78.5019V51.6625H82.7846V52.87H76.9422V44.106H82.7449V45.3264H78.5019V47.7544H82.1633V48.9619Z" fill="#003870"/>
<path d="M97.9192 52.87H96.3727L92.3809 46.6508V52.87H90.8344V44.106H92.3809L96.3727 50.3512V44.106H97.9192V52.87Z" fill="#003870"/>
<path d="M112.988 45.3264H110.199V52.87H108.665V45.3264H105.903V44.106H112.988V45.3264Z" fill="#003870"/>
<path d="M126.351 48.2478C126.402 47.4635 126.203 46.6832 125.783 46.0146C125.599 45.7728 125.361 45.5766 125.087 45.4413C124.813 45.3061 124.51 45.2356 124.203 45.2356C123.896 45.2356 123.594 45.3061 123.319 45.4413C123.045 45.5766 122.807 45.7728 122.624 46.0146C122.206 46.6703 122.003 47.4363 122.042 48.2089V48.7152C121.998 49.4988 122.196 50.2774 122.61 50.9485C122.79 51.2001 123.029 51.4042 123.309 51.5424C123.588 51.6806 123.897 51.7487 124.21 51.7405C124.52 51.7539 124.828 51.6893 125.106 51.553C125.383 51.4167 125.621 51.2132 125.796 50.9615C126.208 50.2852 126.402 49.5018 126.351 48.7152V48.2478ZM127.898 48.7152C127.916 49.4913 127.763 50.2623 127.448 50.9745C127.167 51.589 126.707 52.1083 126.126 52.4675C125.538 52.8077 124.867 52.9872 124.183 52.9872C123.5 52.9872 122.829 52.8077 122.24 52.4675C121.668 52.105 121.21 51.5923 120.919 50.9874C120.6 50.285 120.443 49.5228 120.456 48.7542V48.2608C120.436 47.4832 120.594 46.7111 120.919 46.0016C121.138 45.5517 121.451 45.152 121.838 44.8283C122.224 44.5045 122.675 44.2639 123.162 44.122C123.649 43.9801 124.161 43.9401 124.665 44.0044C125.169 44.0687 125.653 44.2359 126.087 44.4954C126.672 44.8438 127.133 45.3606 127.409 45.9756C127.731 46.6812 127.889 47.4486 127.871 48.2218L127.898 48.7152Z" fill="#003870"/>
<path d="M147.698 48.3908H149.562C150.038 48.4374 150.513 48.2975 150.884 48.0013C151.035 47.8603 151.152 47.6883 151.228 47.4975C151.303 47.3067 151.335 47.1019 151.32 46.8978C151.331 46.6901 151.297 46.4824 151.222 46.288C151.147 46.0936 151.032 45.9167 150.884 45.7682C150.553 45.4707 150.116 45.3121 149.668 45.3266H147.764L147.698 48.3908ZM147.698 49.6113V52.8703H146.139V44.0932H149.562C150.424 44.0519 151.271 44.3246 151.941 44.8592C152.229 45.1135 152.456 45.4267 152.607 45.7767C152.757 46.1267 152.828 46.505 152.814 46.8848C152.834 47.2621 152.768 47.6392 152.619 47.9877C152.47 48.3362 152.243 48.6471 151.955 48.8972C151.262 49.4126 150.403 49.6661 149.536 49.6113H147.698Z" fill="#003870"/>
<path d="M161.842 49.5983H164.485L163.163 45.9628L161.842 49.5983ZM164.855 50.8967H161.405L160.678 52.9351H159.066L162.436 44.1582H163.837L167.208 52.9351H165.596L164.855 50.8967Z" fill="#003870"/>
<path d="M176.553 48.2607H178.153C178.596 48.2925 179.035 48.158 179.382 47.8843C179.653 47.5886 179.803 47.2046 179.803 46.8066C179.803 46.4085 179.653 46.0247 179.382 45.729C179.045 45.4456 178.609 45.3013 178.166 45.3264H176.527L176.553 48.2607ZM178.285 49.5591H176.553V52.9349H175.007V44.158H178.153C179.003 44.1051 179.846 44.3487 180.532 44.846C180.993 45.2854 181.286 45.8677 181.361 46.4946C181.435 47.1216 181.287 47.7546 180.942 48.2867C180.636 48.6984 180.22 49.0176 179.739 49.2085L181.748 52.8571V52.9349H180.083L178.285 49.5591Z" fill="#003870"/>
<path d="M191.609 49.5983H194.252L192.93 45.9628L191.609 49.5983ZM194.622 50.8967H191.172L190.445 52.9351H188.82L192.19 44.1582H193.578L196.962 52.9351H195.429L194.622 50.8967Z" fill="#003870"/>
<path d="M220.265 48.248C220.316 47.4637 220.117 46.6834 219.697 46.0148C219.514 45.7731 219.275 45.5768 219.001 45.4416C218.727 45.3063 218.424 45.2358 218.117 45.2358C217.811 45.2358 217.508 45.3063 217.234 45.4416C216.959 45.5768 216.721 45.7731 216.538 46.0148C216.113 46.6677 215.91 47.4358 215.956 48.2092V48.7154C215.907 49.4995 216.106 50.2795 216.525 50.9487C216.702 51.2021 216.942 51.4074 217.221 51.5458C217.501 51.6842 217.811 51.7513 218.124 51.7407C218.434 51.7541 218.742 51.6896 219.02 51.5532C219.298 51.4169 219.535 51.2134 219.71 50.9617C220.122 50.2854 220.316 49.5021 220.265 48.7154V48.248ZM221.812 48.7154C221.83 49.4915 221.677 50.2625 221.362 50.9747C221.081 51.5893 220.621 52.1085 220.041 52.4678C219.452 52.808 218.781 52.9875 218.098 52.9875C217.414 52.9875 216.743 52.808 216.155 52.4678C215.576 52.1125 215.116 51.5977 214.833 50.9876C214.516 50.2842 214.354 49.5234 214.357 48.7544V48.261C214.341 47.4824 214.504 46.7103 214.833 46.0018C215.114 45.3838 215.574 44.8601 216.155 44.4957C216.738 44.1429 217.413 43.9628 218.098 43.9764C218.779 43.9616 219.449 44.1419 220.027 44.4957C220.612 44.844 221.074 45.3608 221.349 45.9758C221.672 46.6814 221.83 47.4488 221.812 48.222V48.7154Z" fill="#003870"/>
<path d="M245.195 49.1567H241.599V52.87H240.053V44.106H245.723V45.3264H241.599V47.9362H245.195V49.1567Z" fill="#003870"/>
<path d="M260.276 44.0932V49.9229C260.297 50.3338 260.226 50.7442 260.068 51.1254C259.911 51.5066 259.67 51.8494 259.364 52.1301C258.669 52.6607 257.813 52.9489 256.932 52.9489C256.051 52.9489 255.196 52.6607 254.5 52.1301C254.193 51.8499 253.952 51.5072 253.795 51.1259C253.637 50.7445 253.567 50.3339 253.588 49.9229V44.0672H255.134V49.9229C255.11 50.3962 255.271 50.8607 255.584 51.2213C255.76 51.3836 255.968 51.5088 256.196 51.5891C256.423 51.6695 256.665 51.7034 256.906 51.6887C258.095 51.6887 258.703 51.0655 258.703 49.8321V44.0022L260.276 44.0932Z" fill="#003870"/>
<path d="M275.16 45.3264H272.371V52.87H270.838V45.3264H268.075V44.106H275.16V45.3264Z" fill="#003870"/>
<path d="M289.647 44.0932V49.9229C289.667 50.3338 289.596 50.7442 289.439 51.1254C289.281 51.5066 289.041 51.8494 288.735 52.1301C288.065 52.6972 287.199 52.99 286.316 52.9481C285.429 53.0011 284.557 52.7123 283.884 52.1431C283.574 51.8595 283.332 51.5125 283.174 51.1265C283.017 50.7405 282.947 50.3251 282.972 49.9099V44.0542H284.518V49.9229C284.499 50.3977 284.664 50.862 284.981 51.2213C285.156 51.3849 285.364 51.5109 285.592 51.5914C285.819 51.6718 286.061 51.705 286.303 51.6887C287.492 51.6887 288.087 51.0655 288.087 49.8321V44.0022L289.647 44.0932Z" fill="#003870"/>
<path d="M299.64 48.2609H301.239C301.682 48.2888 302.12 48.1548 302.468 47.8845C302.74 47.5888 302.89 47.2047 302.89 46.8067C302.89 46.4087 302.74 46.0248 302.468 45.7291C302.131 45.4457 301.695 45.3014 301.252 45.3265H299.613L299.64 48.2609ZM301.371 49.5593H299.64V52.935H298.093V44.1581H301.173C302.028 44.1078 302.873 44.3509 303.565 44.8461C303.849 45.0903 304.072 45.3953 304.216 45.7375C304.36 46.0797 304.423 46.4501 304.398 46.8197C304.416 47.3401 304.268 47.8529 303.975 48.2869C303.664 48.6985 303.243 49.0175 302.759 49.2087L304.768 52.8572V52.935H303.156L301.371 49.5593Z" fill="#003870"/>
<path d="M318.356 48.248C318.407 47.4637 318.208 46.6834 317.788 46.0148C317.605 45.7731 317.366 45.5768 317.092 45.4416C316.818 45.3063 316.515 45.2358 316.208 45.2358C315.902 45.2358 315.599 45.3063 315.325 45.4416C315.05 45.5768 314.812 45.7731 314.629 46.0148C314.211 46.6705 314.008 47.4365 314.047 48.2092V48.7154C313.998 49.4995 314.197 50.2795 314.616 50.9487C314.793 51.2021 315.033 51.4074 315.312 51.5458C315.592 51.6842 315.902 51.7513 316.215 51.7407C316.525 51.7541 316.833 51.6896 317.111 51.5532C317.388 51.4169 317.626 51.2134 317.801 50.9617C318.213 50.2854 318.407 49.5021 318.356 48.7154V48.248ZM319.903 48.7154C319.921 49.4915 319.768 50.2625 319.453 50.9747C319.172 51.5893 318.712 52.1085 318.132 52.4678C317.701 52.741 317.215 52.9201 316.708 52.9932C316.201 53.0662 315.683 53.0314 315.191 52.8911C314.698 52.7508 314.242 52.5082 313.853 52.1798C313.465 51.8514 313.152 51.4448 312.937 50.9876C312.619 50.2852 312.461 49.523 312.474 48.7544V48.261C312.454 47.4834 312.612 46.7114 312.937 46.0018C313.218 45.3838 313.678 44.8601 314.259 44.4957C314.842 44.1429 315.517 43.9628 316.202 43.9764C316.883 43.9616 317.553 44.1419 318.132 44.4957C318.717 44.844 319.178 45.3608 319.453 45.9758C319.776 46.6814 319.934 47.4488 319.916 48.222L319.903 48.7154Z" fill="#003870"/>
</g>
<defs>
<clipPath id="clip0">
<rect width="321" height="53" fill="white"/>
</clipPath>
</defs>
</svg>
