<svg width="279" height="62" viewBox="0 0 279 62" fill="none" xmlns="http://www.w3.org/2000/svg">
<path d="M155.363 4H167L154.637 39H143L155.363 4Z" fill="#272727"/>
<path d="M171.889 13.5082H165.572L168.872 4H193L189.69 13.5082H183.362L174.473 39H163L171.889 13.5082Z" fill="#272727"/>
<path d="M194.218 4H205.717L196.807 29.5028H206L202.682 39H182L194.218 4Z" fill="#272727"/>
<path d="M231.064 13V4.456H229.72V13H231.064ZM236.205 13V8.44C236.205 7.708 236.097 7.36 235.845 7.072C235.557 6.736 235.209 6.58 234.693 6.58C234.465 6.58 234.237 6.64 234.057 6.748C233.901 6.832 233.745 7 233.637 7.144V6.676H232.413V13H233.685V8.452C233.685 7.96 233.961 7.72 234.309 7.72C234.657 7.72 234.933 7.96 234.933 8.452V13H236.205ZM241.017 11.176C241.017 10.744 240.921 10.384 240.753 10.144C240.549 9.844 240.261 9.64 239.829 9.448L238.989 9.088C238.773 8.992 238.605 8.86 238.521 8.728C238.449 8.62 238.425 8.512 238.425 8.356C238.425 8.164 238.485 7.996 238.605 7.876C238.713 7.768 238.881 7.696 239.073 7.696C239.241 7.696 239.397 7.756 239.517 7.888C239.637 8.02 239.697 8.188 239.697 8.464H240.945C240.945 7.828 240.741 7.384 240.405 7.06C240.081 6.748 239.601 6.58 239.073 6.58C238.545 6.58 238.053 6.76 237.705 7.108C237.369 7.456 237.153 7.852 237.153 8.464C237.153 8.812 237.213 9.1 237.357 9.328C237.537 9.616 237.849 9.868 238.281 10.06L239.121 10.432C239.349 10.528 239.517 10.648 239.613 10.792C239.709 10.936 239.745 11.08 239.745 11.26C239.745 11.464 239.685 11.656 239.565 11.764C239.421 11.896 239.277 11.944 239.073 11.944C238.905 11.944 238.713 11.884 238.593 11.752C238.449 11.608 238.377 11.404 238.377 11.152H237.117C237.117 11.752 237.309 12.196 237.681 12.58C238.005 12.916 238.533 13.096 239.073 13.096C239.613 13.096 240.069 12.964 240.453 12.58C240.777 12.256 241.017 11.8 241.017 11.176ZM244.411 13V11.86C243.811 11.86 243.511 11.596 243.511 11.008V7.648H244.387V6.676H243.511V5.056H242.239V6.676H241.591V7.648H242.239V11.08C242.239 11.824 242.479 12.304 242.875 12.616C243.307 12.952 243.811 13 244.411 13ZM246.552 13V6.844H245.28V13H246.552ZM246.612 5.872V4.468H245.208V5.872H246.612ZM250.224 13V11.86C249.624 11.86 249.324 11.596 249.324 11.008V7.648H250.2V6.676H249.324V5.056H248.052V6.676H247.404V7.648H248.052V11.08C248.052 11.824 248.292 12.304 248.688 12.616C249.12 12.952 249.624 13 250.224 13ZM254.849 13V6.676H253.577V11.224C253.577 11.716 253.301 11.956 252.953 11.956C252.605 11.956 252.329 11.716 252.329 11.224V6.676H251.057V11.236C251.057 11.968 251.165 12.316 251.417 12.604C251.705 12.94 252.053 13.096 252.569 13.096C252.797 13.096 253.025 13.024 253.205 12.916C253.361 12.832 253.529 12.664 253.637 12.52V13H254.849ZM258.521 13V11.86C257.921 11.86 257.621 11.596 257.621 11.008V7.648H258.497V6.676H257.621V5.056H256.349V6.676H255.701V7.648H256.349V11.08C256.349 11.824 256.589 12.304 256.985 12.616C257.417 12.952 257.921 13 258.521 13ZM263.086 9.832C263.086 8.764 263.038 7.792 262.642 7.24C262.27 6.724 261.754 6.58 261.142 6.58C260.53 6.58 260.014 6.724 259.642 7.24C259.246 7.792 259.198 8.764 259.198 9.832C259.198 10.9 259.246 11.872 259.642 12.424C260.014 12.94 260.53 13.096 261.142 13.096C261.754 13.096 262.27 12.94 262.642 12.424C263.038 11.872 263.086 10.9 263.086 9.832ZM261.814 9.832C261.814 10.768 261.802 11.416 261.634 11.704C261.526 11.872 261.334 11.956 261.142 11.956C260.95 11.956 260.758 11.872 260.65 11.704C260.482 11.416 260.47 10.768 260.47 9.832C260.47 8.896 260.482 8.26 260.65 7.972C260.758 7.804 260.95 7.708 261.142 7.708C261.334 7.708 261.526 7.804 261.634 7.972C261.802 8.26 261.814 8.896 261.814 9.832ZM269.94 13V4.456H268.668V7.084C268.572 6.952 268.428 6.82 268.296 6.748C268.116 6.64 267.888 6.58 267.66 6.58C267.168 6.58 266.832 6.724 266.544 7.072C266.124 7.588 266.1 8.464 266.1 9.832C266.1 11.2 266.124 12.088 266.544 12.604C266.832 12.964 267.192 13.096 267.66 13.096C267.888 13.096 268.116 13.024 268.296 12.916C268.428 12.844 268.644 12.64 268.716 12.52V13H269.94ZM268.668 11.2C268.668 11.476 268.596 11.668 268.464 11.8C268.356 11.908 268.188 11.956 268.032 11.956C267.84 11.956 267.66 11.872 267.552 11.704C267.384 11.416 267.372 10.768 267.372 9.832C267.372 8.896 267.384 8.26 267.552 7.972C267.66 7.804 267.84 7.708 268.032 7.708C268.188 7.708 268.356 7.768 268.464 7.876C268.596 8.008 268.668 8.2 268.668 8.476V11.2ZM274.874 10.204C274.862 9.016 274.91 7.732 274.298 7.084C273.926 6.688 273.47 6.58 272.942 6.58C272.426 6.58 271.97 6.7 271.586 7.084C271.046 7.624 270.998 8.68 270.998 9.832C270.998 10.984 271.046 12.04 271.586 12.58C271.97 12.964 272.366 13.096 272.954 13.096C273.506 13.096 273.998 12.952 274.322 12.592C274.682 12.196 274.826 11.668 274.85 11.14H273.59C273.59 11.332 273.53 11.584 273.434 11.704C273.314 11.86 273.17 11.956 272.954 11.956C272.726 11.956 272.558 11.848 272.462 11.704C272.306 11.476 272.27 10.924 272.27 10.204H274.874ZM273.602 9.268H272.27C272.27 8.62 272.318 8.14 272.462 7.96C272.57 7.816 272.714 7.708 272.942 7.708C273.17 7.708 273.314 7.816 273.422 7.96C273.566 8.14 273.602 8.62 273.602 9.268ZM233.464 18.668V17.456H229.252V18.668H230.68V26H232.024V18.668H233.464ZM237.095 20.816V19.58C236.723 19.58 236.387 19.676 236.111 19.844C235.895 19.976 235.691 20.156 235.559 20.348V19.676H234.335V26H235.607V21.908C235.607 21.224 236.063 20.816 236.663 20.816H237.095ZM241.497 26V21.536C241.497 20.852 241.281 20.384 240.945 20.048C240.621 19.712 240.129 19.58 239.601 19.58C239.085 19.58 238.569 19.796 238.269 20.096C237.873 20.492 237.729 20.96 237.729 21.464H239.001C239.001 21.2 239.061 21.02 239.193 20.876C239.289 20.768 239.421 20.696 239.613 20.696C240.009 20.696 240.225 20.96 240.225 21.428V22.304H239.661C238.929 22.304 238.521 22.46 238.209 22.736C237.825 23.072 237.621 23.576 237.621 24.152C237.621 24.788 237.753 25.268 238.005 25.568C238.329 25.94 238.665 26.096 239.193 26.096C239.517 26.096 239.721 26.012 239.913 25.88C240.057 25.784 240.189 25.616 240.297 25.46V26H241.497ZM240.225 24.14C240.225 24.656 239.937 24.98 239.553 24.98C239.121 24.98 238.893 24.668 238.893 24.104C238.893 23.852 238.989 23.54 239.145 23.396C239.325 23.228 239.529 23.204 239.805 23.204H240.225V24.14ZM246.506 26V21.44C246.506 20.708 246.398 20.36 246.146 20.072C245.858 19.736 245.51 19.58 244.994 19.58C244.766 19.58 244.538 19.64 244.358 19.748C244.202 19.832 244.046 20 243.938 20.144V19.676H242.714V26H243.986V21.452C243.986 20.96 244.262 20.72 244.61 20.72C244.958 20.72 245.234 20.96 245.234 21.452V26H246.506ZM251.318 24.176C251.318 23.744 251.222 23.384 251.054 23.144C250.85 22.844 250.562 22.64 250.13 22.448L249.29 22.088C249.074 21.992 248.906 21.86 248.822 21.728C248.75 21.62 248.726 21.512 248.726 21.356C248.726 21.164 248.786 20.996 248.906 20.876C249.014 20.768 249.182 20.696 249.374 20.696C249.542 20.696 249.698 20.756 249.818 20.888C249.938 21.02 249.998 21.188 249.998 21.464H251.246C251.246 20.828 251.042 20.384 250.706 20.06C250.382 19.748 249.902 19.58 249.374 19.58C248.846 19.58 248.354 19.76 248.006 20.108C247.67 20.456 247.454 20.852 247.454 21.464C247.454 21.812 247.514 22.1 247.658 22.328C247.838 22.616 248.15 22.868 248.582 23.06L249.422 23.432C249.65 23.528 249.818 23.648 249.914 23.792C250.01 23.936 250.046 24.08 250.046 24.26C250.046 24.464 249.986 24.656 249.866 24.764C249.722 24.896 249.578 24.944 249.374 24.944C249.206 24.944 249.014 24.884 248.894 24.752C248.75 24.608 248.678 24.404 248.678 24.152H247.418C247.418 24.752 247.61 25.196 247.982 25.58C248.306 25.916 248.834 26.096 249.374 26.096C249.914 26.096 250.37 25.964 250.754 25.58C251.078 25.256 251.318 24.8 251.318 24.176ZM256.128 22.832C256.128 21.464 256.104 20.588 255.684 20.072C255.396 19.712 255.036 19.58 254.568 19.58C254.34 19.58 254.112 19.64 253.932 19.748C253.8 19.82 253.584 20.024 253.512 20.144V19.676H252.288V28.22H253.56V25.592C253.656 25.724 253.8 25.856 253.932 25.928C254.112 26.036 254.34 26.096 254.568 26.096C255.06 26.096 255.396 25.952 255.684 25.604C256.104 25.088 256.128 24.2 256.128 22.832ZM254.856 22.832C254.856 23.768 254.844 24.416 254.676 24.704C254.568 24.872 254.388 24.956 254.196 24.956C254.04 24.956 253.872 24.908 253.764 24.8C253.632 24.668 253.56 24.476 253.56 24.2V21.476C253.56 21.2 253.632 21.008 253.764 20.876C253.872 20.768 254.04 20.708 254.196 20.708C254.388 20.708 254.568 20.804 254.676 20.972C254.844 21.26 254.856 21.896 254.856 22.832ZM260.883 22.832C260.883 21.764 260.835 20.792 260.439 20.24C260.067 19.724 259.551 19.58 258.939 19.58C258.326 19.58 257.811 19.724 257.439 20.24C257.043 20.792 256.995 21.764 256.995 22.832C256.995 23.9 257.043 24.872 257.439 25.424C257.811 25.94 258.326 26.096 258.939 26.096C259.551 26.096 260.067 25.94 260.439 25.424C260.835 24.872 260.883 23.9 260.883 22.832ZM259.611 22.832C259.611 23.768 259.599 24.416 259.431 24.704C259.323 24.872 259.131 24.956 258.939 24.956C258.747 24.956 258.555 24.872 258.447 24.704C258.279 24.416 258.267 23.768 258.267 22.832C258.267 21.896 258.279 21.26 258.447 20.972C258.555 20.804 258.747 20.708 258.939 20.708C259.131 20.708 259.323 20.804 259.431 20.972C259.599 21.26 259.611 21.896 259.611 22.832ZM264.704 20.816V19.58C264.332 19.58 263.996 19.676 263.72 19.844C263.504 19.976 263.3 20.156 263.168 20.348V19.676H261.944V26H263.216V21.908C263.216 21.224 263.672 20.816 264.272 20.816H264.704ZM267.954 26V24.86C267.354 24.86 267.054 24.596 267.054 24.008V20.648H267.93V19.676H267.054V18.056H265.782V19.676H265.134V20.648H265.782V24.08C265.782 24.824 266.022 25.304 266.418 25.616C266.85 25.952 267.354 26 267.954 26ZM272.507 23.204C272.495 22.016 272.543 20.732 271.931 20.084C271.559 19.688 271.103 19.58 270.575 19.58C270.059 19.58 269.603 19.7 269.219 20.084C268.679 20.624 268.631 21.68 268.631 22.832C268.631 23.984 268.679 25.04 269.219 25.58C269.603 25.964 269.999 26.096 270.587 26.096C271.139 26.096 271.631 25.952 271.955 25.592C272.315 25.196 272.459 24.668 272.483 24.14H271.223C271.223 24.332 271.163 24.584 271.067 24.704C270.947 24.86 270.803 24.956 270.587 24.956C270.359 24.956 270.191 24.848 270.095 24.704C269.939 24.476 269.903 23.924 269.903 23.204H272.507ZM271.235 22.268H269.903C269.903 21.62 269.951 21.14 270.095 20.96C270.203 20.816 270.347 20.708 270.575 20.708C270.803 20.708 270.947 20.816 271.055 20.96C271.199 21.14 271.235 21.62 271.235 22.268ZM233.308 36.204C233.296 35.016 233.344 33.732 232.732 33.084C232.36 32.688 231.904 32.58 231.376 32.58C230.86 32.58 230.404 32.7 230.02 33.084C229.48 33.624 229.432 34.68 229.432 35.832C229.432 36.984 229.48 38.04 230.02 38.58C230.404 38.964 230.8 39.096 231.388 39.096C231.94 39.096 232.432 38.952 232.756 38.592C233.116 38.196 233.26 37.668 233.284 37.14H232.024C232.024 37.332 231.964 37.584 231.868 37.704C231.748 37.86 231.604 37.956 231.388 37.956C231.16 37.956 230.992 37.848 230.896 37.704C230.74 37.476 230.704 36.924 230.704 36.204H233.308ZM232.036 35.268H230.704C230.704 34.62 230.752 34.14 230.896 33.96C231.004 33.816 231.148 33.708 231.376 33.708C231.604 33.708 231.748 33.816 231.856 33.96C232 34.14 232.036 34.62 232.036 35.268ZM240.175 39V37.788H237.931V30.456H236.587V39H240.175ZM244.781 35.832C244.781 34.764 244.733 33.792 244.337 33.24C243.965 32.724 243.449 32.58 242.837 32.58C242.225 32.58 241.709 32.724 241.337 33.24C240.941 33.792 240.893 34.764 240.893 35.832C240.893 36.9 240.941 37.872 241.337 38.424C241.709 38.94 242.225 39.096 242.837 39.096C243.449 39.096 243.965 38.94 244.337 38.424C244.733 37.872 244.781 36.9 244.781 35.832ZM243.509 35.832C243.509 36.768 243.497 37.416 243.329 37.704C243.221 37.872 243.029 37.956 242.837 37.956C242.645 37.956 242.453 37.872 242.345 37.704C242.177 37.416 242.165 36.768 242.165 35.832C242.165 34.896 242.177 34.26 242.345 33.972C242.453 33.804 242.645 33.708 242.837 33.708C243.029 33.708 243.221 33.804 243.329 33.972C243.497 34.26 243.509 34.896 243.509 35.832ZM249.491 39.12V32.676H248.267V33.084C248.171 32.952 248.027 32.82 247.895 32.748C247.703 32.64 247.475 32.58 247.247 32.58C246.707 32.58 246.443 32.712 246.155 33.048C245.759 33.516 245.651 34.248 245.651 35.604C245.651 36.96 245.759 37.68 246.155 38.148C246.443 38.484 246.719 38.616 247.247 38.616C247.499 38.616 247.691 38.58 247.859 38.472C247.979 38.4 248.111 38.268 248.219 38.124V39.204C248.219 39.6 248.171 39.828 248.039 39.984C247.931 40.104 247.775 40.188 247.583 40.188C247.391 40.188 247.235 40.116 247.127 39.996C246.995 39.84 246.947 39.636 246.947 39.396H245.687C245.687 39.924 245.831 40.404 246.215 40.788C246.563 41.124 247.055 41.28 247.583 41.28C248.099 41.28 248.627 41.088 248.951 40.764C249.299 40.416 249.491 39.936 249.491 39.12ZM248.219 36.756C248.219 37.02 248.159 37.2 248.039 37.332C247.931 37.452 247.763 37.512 247.583 37.512C247.355 37.512 247.235 37.416 247.115 37.26C246.923 37.008 246.923 36.396 246.923 35.616C246.923 34.836 246.923 34.224 247.115 33.972C247.235 33.816 247.355 33.708 247.583 33.708C247.763 33.708 247.919 33.768 248.027 33.888C248.147 34.02 248.219 34.212 248.219 34.476V36.756ZM252.025 39V32.676H250.753V39H252.025ZM252.793 30.288H251.713L250.849 31.956H251.737L252.793 30.288ZM256.861 37.176C256.861 36.744 256.765 36.384 256.597 36.144C256.393 35.844 256.105 35.64 255.673 35.448L254.833 35.088C254.617 34.992 254.449 34.86 254.365 34.728C254.293 34.62 254.269 34.512 254.269 34.356C254.269 34.164 254.329 33.996 254.449 33.876C254.557 33.768 254.725 33.696 254.917 33.696C255.085 33.696 255.241 33.756 255.361 33.888C255.481 34.02 255.541 34.188 255.541 34.464H256.789C256.789 33.828 256.585 33.384 256.249 33.06C255.925 32.748 255.445 32.58 254.917 32.58C254.389 32.58 253.897 32.76 253.549 33.108C253.213 33.456 252.997 33.852 252.997 34.464C252.997 34.812 253.057 35.1 253.201 35.328C253.381 35.616 253.693 35.868 254.125 36.06L254.965 36.432C255.193 36.528 255.361 36.648 255.457 36.792C255.553 36.936 255.589 37.08 255.589 37.26C255.589 37.464 255.529 37.656 255.409 37.764C255.265 37.896 255.121 37.944 254.917 37.944C254.749 37.944 254.557 37.884 254.437 37.752C254.293 37.608 254.221 37.404 254.221 37.152H252.961C252.961 37.752 253.153 38.196 253.525 38.58C253.849 38.916 254.377 39.096 254.917 39.096C255.457 39.096 255.913 38.964 256.297 38.58C256.621 38.256 256.861 37.8 256.861 37.176ZM260.255 39V37.86C259.655 37.86 259.355 37.596 259.355 37.008V33.648H260.231V32.676H259.355V31.056H258.083V32.676H257.435V33.648H258.083V37.08C258.083 37.824 258.323 38.304 258.719 38.616C259.151 38.952 259.655 39 260.255 39ZM262.396 39V32.844H261.124V39H262.396ZM262.456 31.872V30.468H261.052V31.872H262.456ZM267.292 37.14H266.032C266.02 37.356 265.996 37.572 265.864 37.74C265.768 37.872 265.612 37.956 265.396 37.956C265.204 37.956 265.012 37.872 264.904 37.704C264.736 37.404 264.724 36.768 264.724 35.832C264.724 34.896 264.736 34.26 264.904 33.972C265.012 33.804 265.204 33.708 265.396 33.708C265.612 33.708 265.768 33.792 265.864 33.936C265.996 34.104 266.02 34.332 266.032 34.524H267.292C267.256 33.984 267.124 33.408 266.728 33.024C266.356 32.676 265.936 32.58 265.396 32.58C264.796 32.58 264.268 32.724 263.896 33.24C263.5 33.792 263.452 34.764 263.452 35.832C263.452 36.912 263.5 37.884 263.896 38.424C264.268 38.94 264.796 39.096 265.396 39.096C265.96 39.096 266.416 38.952 266.74 38.628C267.088 38.28 267.256 37.74 267.292 37.14ZM271.825 39V34.536C271.825 33.852 271.609 33.384 271.273 33.048C270.949 32.712 270.457 32.58 269.929 32.58C269.413 32.58 268.897 32.796 268.597 33.096C268.201 33.492 268.057 33.96 268.057 34.464H269.329C269.329 34.2 269.389 34.02 269.521 33.876C269.617 33.768 269.749 33.696 269.941 33.696C270.337 33.696 270.553 33.96 270.553 34.428V35.304H269.989C269.257 35.304 268.849 35.46 268.537 35.736C268.153 36.072 267.949 36.576 267.949 37.152C267.949 37.788 268.081 38.268 268.333 38.568C268.657 38.94 268.993 39.096 269.521 39.096C269.845 39.096 270.049 39.012 270.241 38.88C270.385 38.784 270.517 38.616 270.625 38.46V39H271.825ZM270.553 37.14C270.553 37.656 270.265 37.98 269.881 37.98C269.449 37.98 269.221 37.668 269.221 37.104C269.221 36.852 269.317 36.54 269.473 36.396C269.653 36.228 269.857 36.204 270.133 36.204H270.553V37.14Z" fill="#565656"/>
<rect x="217" y="4" width="2" height="35" fill="#272727"/>
<g clip-path="url(#clip0)">
<path d="M79.2595 21.4198C79.2595 33.3568 70.8867 40.6082 59.8733 40.6082C47.5109 40.6082 38.6321 31.5716 38.6321 20.3599C38.6321 9.03671 47.679 0.00244141 59.255 0.00244141C66.7847 0.00244141 73.1345 3.68429 76.4499 8.92441L68.8078 13.2754C67.1807 10.7096 63.6382 8.70136 59.1999 8.70136C52.5697 8.70136 47.6248 13.5538 47.6248 20.4153C47.6248 27.0529 52.345 31.9054 59.9872 31.9054C65.2126 31.9054 68.6412 29.6188 70.046 25.8815H59.5362V18.0771H79.2595V21.4198Z" fill="#272727"/>
<path d="M79.5384 30.9577L87.2929 26.4967C88.6977 29.7317 91.1136 31.9068 95.5533 31.9068C99.8234 31.9068 100.891 30.2339 100.891 28.7279C100.891 26.329 98.6441 25.3807 92.7438 23.7632C86.8993 22.148 81.1679 19.3568 81.1679 11.8823C81.1679 4.35173 87.5734 0.000732422 94.3733 0.000732422C100.835 0.000732422 105.893 3.06881 108.759 8.81426L101.172 13.2206C99.8234 10.4317 97.9692 8.70273 94.3733 8.70273C91.5637 8.70273 90.1582 10.0972 90.1582 11.6593C90.1582 13.4437 91.1136 14.6712 97.2386 16.5118C103.195 18.2969 109.882 20.3574 109.882 28.6156C109.882 36.1463 103.814 40.6088 95.2721 40.6088C87.0116 40.608 81.7304 36.7039 79.5384 30.9577Z" fill="#272727"/>
<path d="M28.4253 62H46.5811V59.6687H28.4253V62Z" fill="#F8B51B"/>
<path d="M46.6617 62H64.8175V59.6687H46.6617V62Z" fill="#E4242C"/>
<path d="M64.8461 62H83.0019V59.6687H64.8461V62Z" fill="#299947"/>
<path d="M2.4655 49.0804H0.642333L0.289786 49.9964H0L1.41019 46.3938H1.69997L3.10474 49.9964H2.81495L2.4655 49.0804ZM2.3671 48.8227L1.55818 46.7284L0.74926 48.8227H2.3671Z" fill="black" stroke="black" stroke-width="0.3" stroke-linejoin="round"/>
<path d="M4.09264 49.2033L4.33129 49.0648C4.45604 49.4971 4.82408 49.7901 5.41992 49.7901C6.01577 49.7901 6.33267 49.4825 6.33267 49.0702C6.33267 48.6372 5.94526 48.4726 5.39436 48.3011C4.78766 48.1057 4.24296 47.9357 4.24296 47.3081C4.24296 46.7159 4.72568 46.3405 5.34244 46.3405C5.59074 46.3338 5.83517 46.4026 6.04293 46.5378C6.25068 46.6729 6.41181 46.8679 6.50468 47.0966L6.27224 47.225C6.2033 47.0372 6.07621 46.8758 5.90918 46.764C5.74215 46.6522 5.54376 46.5958 5.34244 46.6028C4.83958 46.6028 4.52345 46.8959 4.52345 47.295C4.52345 47.7273 4.89149 47.8611 5.40985 48.0311C6.05218 48.2418 6.61239 48.4426 6.61239 49.0656C6.61239 49.6624 6.14052 50.0532 5.41992 50.0532C4.73808 50.0524 4.25536 49.7132 4.09264 49.2033Z" fill="black" stroke="black" stroke-width="0.3" stroke-linejoin="round"/>
<path d="M7.71342 49.2034L7.95206 49.0649C8.07604 49.4972 8.44408 49.7902 9.0407 49.7902C9.63731 49.7902 9.95267 49.4826 9.95267 49.0703C9.95267 48.6373 9.56913 48.4727 9.01435 48.3012C8.40766 48.1058 7.86373 47.9358 7.86373 47.3082C7.86373 46.716 8.34568 46.3406 8.96244 46.3406C9.21147 46.3332 9.45683 46.4016 9.66547 46.5368C9.87411 46.672 10.036 46.8674 10.1293 47.0967L9.89688 47.2251C9.82785 47.0373 9.70073 46.876 9.53373 46.7642C9.36672 46.6525 9.16838 46.596 8.96709 46.6029C8.46423 46.6029 8.1481 46.896 8.1481 47.2951C8.1481 47.7274 8.51614 47.8612 9.0345 48.0312C9.67761 48.2419 10.2378 48.4427 10.2378 49.0657C10.2378 49.6625 9.76594 50.0533 9.04535 50.0533C8.36117 50.0525 7.87923 49.7133 7.71342 49.2034Z" fill="black" stroke="black" stroke-width="0.3" stroke-linejoin="round"/>
<path d="M11.4535 48.1949C11.4534 47.8274 11.563 47.468 11.7686 47.1624C11.9742 46.8567 12.2665 46.6184 12.6086 46.4776C12.9506 46.3368 13.327 46.2999 13.6902 46.3715C14.0534 46.4432 14.387 46.6201 14.6489 46.8799C14.9108 47.1398 15.0892 47.4709 15.1615 47.8314C15.2338 48.1918 15.1967 48.5655 15.0551 48.9051C14.9134 49.2447 14.6735 49.535 14.3656 49.7392C14.0577 49.9434 13.6958 50.0524 13.3255 50.0524C13.0793 50.054 12.8352 50.0071 12.6074 49.9144C12.3795 49.8216 12.1726 49.6848 11.9984 49.512C11.8243 49.3393 11.6864 49.1338 11.5929 48.9077C11.4993 48.6816 11.452 48.4394 11.4535 48.1949ZM14.9224 48.1949C14.9204 47.8819 14.8251 47.5764 14.6484 47.317C14.4717 47.0576 14.2216 46.856 13.9297 46.7376C13.6377 46.6191 13.3169 46.5891 13.0078 46.6514C12.6987 46.7137 12.4151 46.8655 12.1928 47.0876C11.9705 47.3097 11.8194 47.5921 11.7586 47.8993C11.6978 48.2066 11.73 48.5248 11.8511 48.8138C11.9723 49.1029 12.177 49.3499 12.4394 49.5236C12.7017 49.6974 13.0101 49.7901 13.3255 49.7901C13.5361 49.7906 13.7446 49.7496 13.9391 49.6695C14.1336 49.5894 14.3101 49.4717 14.4583 49.3233C14.6066 49.1749 14.7237 48.9987 14.8029 48.805C14.882 48.6113 14.9216 48.4039 14.9193 48.1949H14.9224Z" fill="black" stroke="black" stroke-width="0.3" stroke-linejoin="round"/>
<path d="M16.4581 48.1949C16.4581 47.1658 17.2415 46.3374 18.3456 46.3374C18.6584 46.3323 18.967 46.4097 19.2399 46.5615C19.5128 46.7134 19.7403 46.9343 19.8991 47.2019L19.6558 47.3403C19.5247 47.1122 19.3344 46.9231 19.1046 46.7928C18.8748 46.6626 18.6141 46.5959 18.3495 46.5997C17.3957 46.5997 16.7371 47.3096 16.7371 48.1949C16.7371 49.0801 17.3957 49.79 18.3495 49.79C18.6174 49.794 18.8814 49.7258 19.1133 49.5927C19.3453 49.4596 19.5365 49.2665 19.6667 49.034L19.91 49.1724C19.7525 49.4439 19.5248 49.6686 19.2504 49.8233C18.9761 49.978 18.665 50.0571 18.3495 50.0523C17.2415 50.0523 16.4581 49.227 16.4581 48.1949Z" fill="black" stroke="black" stroke-width="0.3" stroke-linejoin="round"/>
<path d="M21.6107 46.3938V49.9964H21.3364V46.3938H21.6107Z" fill="black" stroke="black" stroke-width="0.3" stroke-linejoin="round"/>
<path d="M25.3795 49.0804H23.5602L23.2076 49.9964H22.921L24.3311 46.3938H24.6217L26.0203 49.9964H25.7297L25.3795 49.0804ZM25.2811 48.8227L24.4706 46.7284L23.6625 48.8227H25.2811Z" fill="black" stroke="black" stroke-width="0.3" stroke-linejoin="round"/>
<path d="M28.9925 50.0478V50.2847C29.2575 50.3155 29.4644 50.4493 29.4644 50.6693C29.4644 50.9215 29.242 51.1431 28.4532 51.0815V50.87C28.977 50.9215 29.2366 50.8346 29.2366 50.6693C29.2366 50.5201 29.0653 50.4485 28.7593 50.4485V50.047C28.2786 50.0306 27.8237 49.827 27.493 49.4803C27.1622 49.1335 26.9823 48.6716 26.9919 48.1942C26.9919 47.1651 27.7745 46.3367 28.8786 46.3367C29.1923 46.3309 29.5019 46.408 29.7757 46.56C30.0495 46.7121 30.2776 46.9336 30.4368 47.202L30.1935 47.3405C30.0619 47.1115 29.8707 46.9219 29.6399 46.7916C29.4091 46.6612 29.1472 46.595 28.8817 46.5998C27.9279 46.5998 27.2693 47.3097 27.2693 48.195C27.2693 49.0802 27.9279 49.7901 28.8817 49.7901C29.1506 49.7953 29.4157 49.7276 29.6488 49.5944C29.8818 49.4612 30.0739 49.2675 30.2043 49.0341L30.4484 49.1725C30.3001 49.4287 30.0887 49.6434 29.8341 49.7964C29.5795 49.9495 29.2899 50.036 28.9925 50.0478V50.0478Z" fill="black" stroke="black" stroke-width="0.3" stroke-linejoin="round"/>
<path d="M33.9072 49.0802H32.0872L31.7346 49.9963H31.4441L32.8542 46.3936H33.1487L34.5496 49.9963H34.2598L33.9072 49.0802ZM33.8088 48.8226L32.9999 46.7282L32.191 48.8226H33.8088ZM32.5226 45.9668H32.2964C32.2964 45.3853 32.6543 45.2745 33.0115 45.5822C33.3021 45.8291 33.4764 45.8345 33.4764 45.4376H33.705C33.705 46.0144 33.347 46.1298 32.9891 45.8222C32.6993 45.5753 32.5226 45.5653 32.5226 45.9668Z" fill="black" stroke="black" stroke-width="0.3" stroke-linejoin="round"/>
<path d="M35.5189 48.1949C35.5187 47.8274 35.6284 47.468 35.834 47.1624C36.0396 46.8567 36.3319 46.6184 36.674 46.4776C37.016 46.3368 37.3924 46.2999 37.7556 46.3715C38.1188 46.4432 38.4524 46.6201 38.7143 46.8799C38.9762 47.1398 39.1545 47.4709 39.2268 47.8314C39.2991 48.1918 39.2621 48.5655 39.1204 48.9051C38.9788 49.2447 38.7388 49.535 38.431 49.7392C38.1231 49.9434 37.7611 50.0524 37.3909 50.0524C37.1446 50.054 36.9005 50.0071 36.6727 49.9144C36.4449 49.8216 36.2379 49.6848 36.0638 49.512C35.8896 49.3393 35.7518 49.1338 35.6583 48.9077C35.5647 48.6816 35.5174 48.4394 35.5189 48.1949V48.1949ZM38.987 48.1949C38.985 47.8818 38.8897 47.5763 38.7129 47.3169C38.5362 47.0575 38.2861 46.8559 37.9941 46.7375C37.7021 46.6191 37.3813 46.5891 37.0721 46.6515C36.763 46.7138 36.4794 46.8657 36.2571 47.0878C36.0348 47.31 35.8838 47.5925 35.8231 47.8998C35.7624 48.2071 35.7947 48.5253 35.916 48.8144C36.0372 49.1034 36.242 49.3504 36.5045 49.524C36.767 49.6977 37.0754 49.7903 37.3909 49.7901C37.6017 49.7911 37.8105 49.7503 38.0053 49.6704C38.2001 49.5904 38.3769 49.4728 38.5255 49.3243C38.674 49.1759 38.7913 48.9996 38.8706 48.8057C38.9498 48.6118 38.9894 48.4042 38.987 48.1949V48.1949Z" fill="black" stroke="black" stroke-width="0.3" stroke-linejoin="round"/>
<path d="M46.3487 48.458C46.3487 49.3279 45.6792 50.0532 44.596 50.0532C43.4709 50.0532 42.6884 49.2248 42.6884 48.1957C42.6884 47.1666 43.4709 46.3383 44.5751 46.3383C44.8891 46.3344 45.1987 46.4127 45.4726 46.5653C45.7466 46.7178 45.9752 46.9393 46.1356 47.2074L45.8923 47.352C45.7623 47.1197 45.571 46.927 45.3389 46.7946C45.1068 46.6622 44.8427 46.5951 44.5751 46.6005C43.6213 46.6005 42.9627 47.3105 42.9627 48.1957C42.9627 49.081 43.6213 49.7909 44.596 49.7909C45.477 49.7909 46.0116 49.2525 46.0682 48.5765H44.5286V48.3196H46.3487V48.458Z" fill="black" stroke="black" stroke-width="0.3" stroke-linejoin="round"/>
<path d="M49.7749 49.0804H47.9549L47.6023 49.9964H47.3118L48.7227 46.3938H49.0133L50.4173 49.9964H50.1275L49.7749 49.0804ZM49.6758 48.8227L48.8676 46.7284L48.0587 48.8227H49.6758Z" fill="black" stroke="black" stroke-width="0.3" stroke-linejoin="round"/>
<path d="M51.5679 48.7918V46.3936H51.843V48.7918C51.843 49.3786 52.211 49.7916 52.8952 49.7916C53.5794 49.7916 53.9528 49.3802 53.9528 48.7918V46.3936H54.2279V48.7918C54.2279 49.5532 53.6933 50.0524 52.8952 50.0524C52.0971 50.0524 51.5679 49.5532 51.5679 48.7918ZM52.9262 46.0336L53.3981 45.3799H53.0881L52.6728 46.0336H52.9262Z" fill="black" stroke="black" stroke-width="0.3" stroke-linejoin="round"/>
<path d="M55.6473 48.1951C55.6473 47.166 56.4307 46.3377 57.5348 46.3377C57.8479 46.3323 58.1568 46.4095 58.43 46.5614C58.7032 46.7133 58.9309 46.9344 59.0899 47.2022L58.8466 47.3406C58.7151 47.1116 58.5239 46.922 58.2931 46.7917C58.0622 46.6614 57.8003 46.5951 57.5348 46.5999C56.581 46.5999 55.9224 47.3098 55.9224 48.1951C55.9224 49.0804 56.581 49.7903 57.5348 49.7903C57.8035 49.7952 58.0685 49.7275 58.3014 49.5943C58.5343 49.4611 58.7262 49.2675 58.8567 49.0342L59.1 49.1727C58.9422 49.4448 58.7137 49.67 58.4384 49.8247C58.1632 49.9795 57.8511 50.0582 57.5348 50.0526C56.4307 50.0526 55.6473 49.2273 55.6473 48.1951Z" fill="black" stroke="black" stroke-width="0.3" stroke-linejoin="round"/>
<path d="M63.1849 46.3938V49.9964H62.9106V48.272H60.8V49.9964H60.5257V46.3938H60.8V48.0151H62.9106V46.3938H63.1849Z" fill="black" stroke="black" stroke-width="0.3" stroke-linejoin="round"/>
<path d="M66.9536 49.0804H65.1336L64.7811 49.9964H64.4913L65.9014 46.3938H66.1912L67.5967 49.9964H67.3062L66.9536 49.0804ZM66.8537 48.8227L66.0448 46.7284L65.2359 48.8227H66.8537Z" fill="black" stroke="black" stroke-width="0.3" stroke-linejoin="round"/>
<path d="M74.1371 48.1951C74.1371 49.1881 73.4266 49.9964 72.4263 49.9964H71.0626V46.3938H72.4263C73.4281 46.3938 74.1371 47.2022 74.1371 48.1951ZM73.8674 48.1951C73.8674 47.3406 73.2817 46.6515 72.4263 46.6515H71.3415V49.7388H72.4263C73.2848 49.7388 73.869 49.0496 73.869 48.1951H73.8674Z" fill="black" stroke="black" stroke-width="0.3" stroke-linejoin="round"/>
<path d="M77.7013 49.7388V49.9964H75.6093V46.3938H77.6726V46.6515H75.8843V48.0513H77.5463V48.3082H75.8874V49.7388H77.7013Z" fill="black" stroke="black" stroke-width="0.3" stroke-linejoin="round"/>
<path d="M81.0943 49.2033L81.3329 49.0648C81.4577 49.4971 81.8257 49.7901 82.4216 49.7901C83.0174 49.7901 83.3343 49.4825 83.3343 49.0702C83.3343 48.6372 82.9469 48.4726 82.396 48.3011C81.7893 48.1057 81.2446 47.9357 81.2446 47.3081C81.2446 46.7159 81.7273 46.3405 82.3441 46.3405C82.5924 46.3338 82.8368 46.4026 83.0445 46.5378C83.2523 46.6729 83.4134 46.8679 83.5063 47.0966L83.2739 47.225C83.2049 47.0372 83.0778 46.8758 82.9108 46.764C82.7438 46.6522 82.5454 46.5958 82.3441 46.6028C81.8412 46.6028 81.5251 46.8959 81.5251 47.295C81.5251 47.7273 81.8931 47.8611 82.4115 48.0311C83.0546 48.2418 83.614 48.4426 83.614 49.0656C83.614 49.6624 83.1421 50.0532 82.4216 50.0532C81.7428 50.0524 81.2609 49.7132 81.0943 49.2033Z" fill="black" stroke="black" stroke-width="0.3" stroke-linejoin="round"/>
<path d="M87.165 46.6515H86.0245V49.9964H85.7448V46.6515H84.6042V46.3938H87.165V46.6515Z" fill="black" stroke="black" stroke-width="0.3" stroke-linejoin="round"/>
<path d="M90.3426 49.0804H88.5233L88.1708 49.9964H87.8802L89.2904 46.3938H89.5809L90.9857 49.9964H90.6951L90.3426 49.0804ZM90.2442 48.8227L89.4353 46.7284L88.6264 48.8227H90.2442Z" fill="black" stroke="black" stroke-width="0.3" stroke-linejoin="round"/>
<path d="M93.7123 48.5195H92.5663V49.9962H92.2913V46.3936H93.7224C93.9829 46.3926 94.2348 46.4859 94.4309 46.6561C94.627 46.8263 94.7538 47.0617 94.7876 47.3181C94.8213 47.5745 94.7597 47.8343 94.6142 48.0489C94.4688 48.2634 94.2495 48.4178 93.9975 48.4833L94.9025 49.9962H94.5863L93.7123 48.5195ZM92.5663 48.2618H93.7224C93.9376 48.2618 94.1439 48.177 94.296 48.0259C94.4482 47.8749 94.5336 47.6701 94.5336 47.4565C94.5336 47.2429 94.4482 47.0381 94.296 46.8871C94.1439 46.7361 93.9376 46.6512 93.7224 46.6512H92.5663V48.2618Z" fill="black" stroke="black" stroke-width="0.3" stroke-linejoin="round"/>
<path d="M98.3985 46.6515H97.2579V49.9964H96.9782V46.6515H95.8369V46.3938H98.3985V46.6515Z" fill="black" stroke="black" stroke-width="0.3" stroke-linejoin="round"/>
<path d="M99.694 48.792V46.3938H99.9691V48.792C99.9691 49.3788 100.337 49.7918 101.021 49.7918C101.705 49.7918 102.079 49.3804 102.079 48.792V46.3938H102.353V48.792C102.353 49.5534 101.819 50.0526 101.021 50.0526C100.223 50.0526 99.694 49.5534 99.694 48.792Z" fill="black" stroke="black" stroke-width="0.3" stroke-linejoin="round"/>
<path d="M106.345 47.5104C106.348 47.6581 106.321 47.805 106.266 47.9421C106.21 48.0792 106.127 48.2035 106.021 48.3075C105.915 48.4115 105.789 48.493 105.65 48.5471C105.512 48.6011 105.363 48.6265 105.215 48.6218H104.255V49.9962H103.981V46.3936H105.215C105.364 46.389 105.512 46.4148 105.651 46.4692C105.79 46.5237 105.916 46.6057 106.022 46.7102C106.128 46.8148 106.211 46.9397 106.267 47.0772C106.322 47.2148 106.349 47.3622 106.345 47.5104V47.5104ZM106.07 47.5104C106.07 47.0112 105.713 46.6512 105.218 46.6512H104.259V48.3649H105.218C105.331 48.3681 105.444 48.3482 105.55 48.3063C105.655 48.2644 105.751 48.2014 105.831 48.1213C105.911 48.0412 105.973 47.9456 106.014 47.8405C106.055 47.7354 106.074 47.623 106.07 47.5104V47.5104Z" fill="black" stroke="black" stroke-width="0.3" stroke-linejoin="round"/>
<path d="M107.48 49.2034L107.718 49.0649C107.843 49.4972 108.211 49.7902 108.808 49.7902C109.404 49.7902 109.719 49.4826 109.719 49.0703C109.719 48.6373 109.332 48.4727 108.781 48.3012C108.174 48.1058 107.631 47.9358 107.631 47.3082C107.631 46.716 108.112 46.3406 108.729 46.3406C108.978 46.3332 109.224 46.4016 109.432 46.5368C109.641 46.672 109.803 46.8674 109.896 47.0967L109.664 47.2251C109.595 47.0373 109.468 46.876 109.301 46.7642C109.134 46.6525 108.935 46.596 108.734 46.6029C108.231 46.6029 107.915 46.896 107.915 47.2951C107.915 47.7274 108.283 47.8612 108.801 48.0312C109.444 48.2419 110.005 48.4427 110.005 49.0657C110.005 49.6625 109.533 50.0533 108.812 50.0533C108.128 50.0525 107.646 49.7133 107.48 49.2034Z" fill="black" stroke="black" stroke-width="0.3" stroke-linejoin="round"/>
<path d="M7.68629 39.8274C7.7506 39.4228 7.88619 38.7783 8.12406 38.5491C8.67962 38.0153 9.51876 37.6262 10.3037 37.6561C10.6754 37.6708 11.0421 37.7472 11.3884 37.8823C11.4917 37.9184 11.6052 37.9128 11.7044 37.8668C11.8037 37.8208 11.8808 37.738 11.9192 37.6361C12.4073 36.4548 13.6323 35.6441 15.0363 35.6995C15.5104 35.7173 15.9752 35.8359 16.3992 36.0471C16.393 35.9502 16.3915 35.8525 16.3946 35.7533C16.4387 34.4873 17.2678 33.4313 18.4192 32.9944C18.5228 32.9573 18.6075 32.8813 18.6551 32.7827C18.7026 32.6841 18.7092 32.5709 18.6733 32.4676C18.5898 32.2173 18.553 31.9541 18.5649 31.6907C18.5966 30.7762 19.1646 30.0563 19.8333 30.0825H19.8526C19.9097 30.0884 19.9673 30.0827 20.0221 30.0657C20.0768 30.0488 20.1275 30.0209 20.171 29.9838C20.2146 29.9467 20.25 29.9012 20.2752 29.8501C20.3004 29.7989 20.3148 29.7432 20.3175 29.6864L20.395 27.2359C20.3966 27.1801 20.3868 27.1246 20.3662 27.0727C20.3456 27.0208 20.3147 26.9736 20.2752 26.9339C20.2358 26.8941 20.1886 26.8627 20.1367 26.8415C20.0847 26.8204 20.0289 26.8098 19.9727 26.8106L18.7849 26.8275C18.5406 26.83 18.305 26.7369 18.1293 26.5683C17.9536 26.3998 17.8517 26.1693 17.8458 25.9268L17.835 25.3315C17.8323 25.1991 17.8827 25.0709 17.9751 24.9753C18.0675 24.8797 18.1943 24.8244 18.3278 24.8216C18.272 24.6984 18.2251 24.5714 18.1875 24.4416C17.7033 24.9093 17.0811 25.3646 17.0857 25.5953C17.0904 25.8468 17.1392 28.3642 16.8967 28.868C16.7417 29.1887 15.6647 30.144 15.3981 29.3933C15.1316 28.6427 14.8077 24.8731 15.2866 23.6087C15.829 22.2819 16.5147 21.3782 17.1462 21.1105C17.2281 21.0737 17.2954 21.0108 17.3375 20.9319C17.3795 20.853 17.394 20.7624 17.3786 20.6744C17.0896 18.8912 16.9222 17.0907 16.8773 15.2851C16.8277 12.6992 17.4452 10.7618 18.2084 9.4035C18.2387 9.34966 18.2704 9.30505 18.3014 9.25352C18.3789 9.12046 18.4564 8.98894 18.5393 8.86895C18.5819 8.80511 18.6245 8.74743 18.6671 8.68667C18.7446 8.57822 18.8221 8.47131 18.8996 8.37286C18.9445 8.31594 18.9887 8.26364 19.0329 8.21057C19.1104 8.12058 19.1824 8.03444 19.2568 7.95368C19.3025 7.90446 19.3467 7.85831 19.3916 7.81293C19.4629 7.74063 19.5326 7.67295 19.6024 7.60911C19.6473 7.56834 19.6907 7.52835 19.7341 7.49143C19.7999 7.43528 19.8635 7.38606 19.9255 7.3376C19.9681 7.3053 20.0107 7.27223 20.051 7.24377C20.1099 7.203 20.1649 7.16686 20.2191 7.13686C20.2571 7.11378 20.2966 7.0884 20.3315 7.06994C20.3778 7.0457 20.4254 7.02388 20.474 7.00457C20.505 6.99149 20.5384 6.97457 20.5663 6.96534C20.6098 6.95129 20.6547 6.94201 20.7003 6.93765C20.7135 6.93765 20.7321 6.92842 20.7445 6.92842C20.7569 6.92842 20.77 6.93381 20.7809 6.93458C20.8297 6.9377 20.8781 6.94622 20.925 6.95996C20.9506 6.96765 20.9816 6.98226 21.0087 6.99303C21.0615 7.01203 21.1132 7.03386 21.1636 7.05841C21.1962 7.07533 21.2326 7.09686 21.2682 7.11686C21.3271 7.14993 21.3868 7.18455 21.4519 7.22608C21.4898 7.25146 21.5294 7.27992 21.5689 7.30761C21.6371 7.35606 21.706 7.40759 21.7789 7.46143C21.8199 7.49451 21.8618 7.52989 21.9044 7.56604C21.9819 7.63064 22.0593 7.69987 22.1368 7.77447C22.1794 7.81524 22.2213 7.85677 22.2647 7.89984C22.3476 7.98291 22.4305 8.0729 22.5142 8.16673C22.5552 8.21365 22.5963 8.25826 22.6374 8.30748C22.7272 8.41285 22.8156 8.52746 22.9055 8.6459C22.9419 8.69359 22.9775 8.73897 23.0139 8.78973C23.1131 8.92741 23.2107 9.07585 23.3076 9.22968C23.3285 9.26352 23.351 9.29198 23.3727 9.32659C24.1886 10.6618 24.8805 12.58 24.9301 15.1659C24.9538 16.9697 24.8547 18.7731 24.6333 20.5637C24.6211 20.6519 24.639 20.7417 24.684 20.8188C24.7291 20.8958 24.7988 20.9557 24.882 20.989C25.5259 21.2328 26.255 22.1204 26.8501 23.441C27.3762 24.6908 27.198 28.4673 26.9617 29.2249C26.7254 29.9825 25.6081 29.0595 25.4438 28.7442C25.1819 28.2442 25.1339 25.7299 25.1292 25.4784C25.1246 25.2477 24.4815 24.8131 23.9786 24.3593C23.9485 24.4906 23.9079 24.6192 23.8569 24.7439C23.9912 24.7427 24.1204 24.7941 24.2167 24.887C24.3129 24.9799 24.3682 25.1068 24.3707 25.24L24.3815 25.8353C24.3832 25.9548 24.3613 26.0735 24.3168 26.1845C24.2723 26.2956 24.2063 26.3968 24.1224 26.4826C24.0385 26.5683 23.9384 26.6367 23.8278 26.684C23.7173 26.7313 23.5984 26.7566 23.4781 26.7583L22.4855 26.7729C22.3828 26.7744 22.2842 26.8135 22.2088 26.8828C22.1334 26.9521 22.0865 27.0467 22.0772 27.1482L21.9137 28.9218C21.9081 29.0038 21.9283 29.0855 21.9717 29.1556C22.015 29.2256 22.0792 29.2805 22.1554 29.3126C22.3674 29.4063 22.5467 29.5601 22.6708 29.7547C22.7948 29.9493 22.8582 30.176 22.8528 30.4063C22.8468 30.5749 22.8025 30.74 22.7234 30.8893C22.6774 30.9681 22.66 31.0602 22.6741 31.1502C22.6882 31.2401 22.7329 31.3226 22.8009 31.3838C22.9368 31.5002 23.0514 31.6392 23.1395 31.7946C23.1697 31.8449 23.211 31.8878 23.2602 31.9201C23.3094 31.9525 23.3653 31.9734 23.4238 31.9815C24.724 32.2053 25.6925 33.3182 25.6476 34.6173C25.6389 34.8723 25.5906 35.1245 25.5042 35.3649C25.4832 35.4295 25.479 35.4984 25.4919 35.565C25.5049 35.6317 25.5345 35.6941 25.5781 35.7464C25.6218 35.7987 25.678 35.8392 25.7416 35.8642C25.8052 35.8892 25.8741 35.8979 25.942 35.8894C26.6169 35.8276 27.2969 35.9256 27.9262 36.1754C28.5555 36.4251 29.1161 36.8195 29.562 37.3262C29.6252 37.3977 29.7115 37.4451 29.806 37.4604C29.9006 37.4757 29.9976 37.4579 30.0804 37.41C30.5751 37.1309 31.139 36.9957 31.7075 37.0201C32.0294 37.0324 32.3474 37.095 32.6497 37.2054C32.9418 37.3233 33.2264 37.4587 33.502 37.6108C34.3396 38.0722 34.4868 38.986 34.4504 39.8251H39.758L26.3844 0.781494H14.9209L1.54733 39.8274H7.68629Z" fill="#272727"/>
<path d="M33.495 37.6131C33.2195 37.461 32.9348 37.3257 32.6427 37.2078C32.3404 37.0974 32.0225 37.0348 31.7005 37.0224C31.132 36.9981 30.5681 37.1333 30.0734 37.4124C29.9906 37.4603 29.8936 37.4781 29.7991 37.4628C29.7045 37.4475 29.6182 37.4001 29.555 37.3286C29.1092 36.8219 28.5485 36.4275 27.9192 36.1777C27.2899 35.928 26.6099 35.83 25.935 35.8918C25.8672 35.9003 25.7982 35.8916 25.7346 35.8666C25.671 35.8416 25.6148 35.8011 25.5712 35.7488C25.5275 35.6965 25.4979 35.6341 25.485 35.5674C25.4721 35.5007 25.4763 35.4319 25.4973 35.3673C25.5836 35.1269 25.632 34.8747 25.6406 34.6197C25.6856 33.3206 24.717 32.2077 23.4169 31.9838C23.3584 31.9758 23.3025 31.9548 23.2533 31.9225C23.2041 31.8901 23.1628 31.8472 23.1325 31.7969C23.0445 31.6416 22.9299 31.5026 22.7939 31.3862C22.726 31.325 22.6813 31.2425 22.6672 31.1525C22.6531 31.0625 22.6704 30.9705 22.7164 30.8917C22.7956 30.7424 22.8398 30.5773 22.8458 30.4087C22.8512 30.1784 22.7879 29.9517 22.6638 29.7571C22.5397 29.5625 22.3604 29.4086 22.1485 29.3149C22.0732 29.2816 22.0101 29.2259 21.9681 29.1555C21.926 29.0851 21.907 29.0035 21.9137 28.9219L22.0764 27.1529C22.0858 27.0513 22.1327 26.9568 22.2081 26.8875C22.2834 26.8182 22.382 26.779 22.4847 26.7776L23.4773 26.763C23.5977 26.7612 23.7165 26.736 23.8271 26.6887C23.9376 26.6414 24.0377 26.5729 24.1216 26.4872C24.2055 26.4015 24.2716 26.3003 24.316 26.1892C24.3605 26.0781 24.3825 25.9595 24.3807 25.84L24.3699 25.2447C24.3675 25.1115 24.3121 24.9846 24.2159 24.8917C24.1197 24.7988 23.9904 24.7473 23.8562 24.7486V24.7486C23.9071 24.6239 23.9478 24.4953 23.9778 24.364C24.4807 24.8178 25.1238 25.2516 25.1285 25.4831C25.1331 25.7346 25.1811 28.252 25.443 28.7489C25.6073 29.0642 26.7238 29.9887 26.9609 29.2296C27.198 28.4704 27.3755 24.6917 26.8493 23.4457C26.2543 22.1251 25.5252 21.2375 24.8813 20.9937C24.798 20.9604 24.7283 20.9005 24.6833 20.8234C24.6382 20.7464 24.6204 20.6566 24.6326 20.5683C24.8539 18.7778 24.9531 16.9744 24.9293 15.1705C24.8797 12.5847 24.1878 10.6665 23.3719 9.33127C23.3502 9.29666 23.3278 9.2682 23.3068 9.23436C23.21 9.08053 23.1124 8.93209 23.0132 8.79441C22.9768 8.74365 22.9411 8.69827 22.9047 8.65058C22.8148 8.53214 22.7265 8.41984 22.6366 8.31216C22.5955 8.26294 22.5545 8.21833 22.5134 8.17141C22.4297 8.07758 22.3468 7.98759 22.2639 7.90452C22.2205 7.86145 22.1787 7.81992 22.1361 7.77915C22.0586 7.70224 21.9811 7.63533 21.9036 7.57072C21.861 7.53457 21.8192 7.49919 21.7781 7.46612C21.7053 7.40843 21.6363 7.3569 21.5681 7.31229C21.5286 7.2846 21.4906 7.25614 21.4511 7.23076C21.386 7.18923 21.3264 7.15385 21.2675 7.12154C21.2318 7.10155 21.1954 7.08001 21.1629 7.06309C21.1125 7.03854 21.0607 7.01671 21.0079 6.99771C20.9808 6.98694 20.9498 6.97233 20.9242 6.96464C20.8773 6.9509 20.829 6.94238 20.7801 6.93926C20.7693 6.93926 20.7538 6.93311 20.7437 6.93311C20.7336 6.93311 20.7127 6.9408 20.6995 6.94233C20.654 6.94669 20.609 6.95598 20.5655 6.97002C20.5376 6.97925 20.5043 6.99617 20.4733 7.00925C20.4246 7.02856 20.3771 7.05038 20.3307 7.07463C20.2951 7.09309 20.2532 7.11847 20.2184 7.14154C20.1641 7.17385 20.1091 7.20769 20.0502 7.24845C20.0099 7.27691 19.9673 7.30998 19.9247 7.34228C19.8627 7.38997 19.7992 7.4392 19.7333 7.49611C19.6899 7.53303 19.6465 7.57303 19.6016 7.61379C19.5319 7.67763 19.4621 7.74531 19.3909 7.81761C19.3459 7.86299 19.3017 7.90914 19.256 7.95836C19.1786 8.03912 19.1073 8.12527 19.0321 8.21525C18.9879 8.26832 18.9438 8.32063 18.8988 8.37754C18.8214 8.47599 18.7439 8.5829 18.6664 8.69135C18.6238 8.75211 18.5812 8.8098 18.5385 8.87363C18.4611 8.99516 18.3789 9.12668 18.3007 9.2582C18.2697 9.30973 18.2379 9.35434 18.2077 9.40818C17.4445 10.7665 16.8269 12.7039 16.8765 15.2898C16.9178 17.0954 17.0816 18.8961 17.367 20.6799C17.3824 20.7678 17.3679 20.8584 17.3259 20.9373C17.2838 21.0163 17.2165 21.0791 17.1346 21.116C16.5038 21.3852 15.8173 22.2874 15.275 23.6141C14.7961 24.8786 15.12 28.6473 15.3865 29.3988C15.6531 30.1502 16.7324 29.1942 16.8851 28.8735C17.1276 28.3674 17.0788 25.8523 17.0741 25.6008C17.0695 25.37 17.694 24.9163 18.1759 24.4471C18.2135 24.5769 18.2603 24.7039 18.3162 24.827C18.1827 24.8299 18.0559 24.8852 17.9635 24.9808C17.8711 25.0764 17.8207 25.2045 17.8234 25.337L17.8342 25.9323C17.8401 26.1748 17.9419 26.4052 18.1177 26.5738C18.2934 26.7423 18.529 26.8354 18.7733 26.8329L19.9611 26.816C20.0173 26.8153 20.0731 26.8258 20.1251 26.847C20.177 26.8682 20.2242 26.8996 20.2636 26.9393C20.3031 26.9791 20.334 27.0263 20.3546 27.0782C20.3752 27.1301 20.385 27.1856 20.3834 27.2414L20.3059 29.6918C20.3032 29.7487 20.2888 29.8044 20.2636 29.8555C20.2384 29.9067 20.203 29.9522 20.1594 29.9893C20.1159 30.0264 20.0652 30.0542 20.0105 30.0712C19.9557 30.0882 19.8981 30.0938 19.841 30.0879H19.8217C19.153 30.0618 18.5819 30.7801 18.5533 31.6962C18.5426 31.9592 18.5804 32.2219 18.6648 32.4715C18.7007 32.5748 18.6941 32.688 18.6466 32.7866C18.599 32.8852 18.5143 32.9612 18.4107 32.9983C17.2593 33.4352 16.4302 34.4912 16.3861 35.7572C16.3861 35.8564 16.3861 35.9541 16.3907 36.051C15.9667 35.8398 15.5019 35.7212 15.0278 35.7034C13.6238 35.648 12.3988 36.4587 11.9107 37.6401C11.8723 37.7419 11.7952 37.8247 11.6959 37.8707C11.5967 37.9167 11.4832 37.9223 11.3799 37.8862C11.0336 37.7511 10.6669 37.6747 10.2951 37.6601C9.51102 37.6285 8.66801 38.0192 8.11556 38.553C7.87769 38.7838 7.74209 39.4268 7.67778 39.8313H34.4434C34.4798 38.9884 34.3326 38.0746 33.495 37.6131Z" fill="white"/>
</g>
<defs>
<clipPath id="clip0">
<rect width="110" height="62" fill="white"/>
</clipPath>
</defs>
</svg>
