<svg id="Layer_1" data-name="Layer 1" xmlns="http://www.w3.org/2000/svg" viewBox="0 0 220.94 49.61"><defs><style>.cls-1,.cls-5{fill:#fff;}.cls-2{fill:#f8b51b;}.cls-3{fill:#e4242c;}.cls-4{fill:#299947;}.cls-5{stroke:#fff;stroke-linejoin:round;stroke-width:0.24px;}</style></defs><path class="cls-1" d="M125.35,2.8h9.24l-9.81,27.79h-9.24Z"/><path class="cls-1" d="M138.47,10.35h-5l2.62-7.55h19.16l-2.63,7.55h-5l-7.05,20.24h-9.11Z"/><path class="cls-1" d="M156.2,2.8h9.13l-7.07,20.25h7.3l-2.64,7.54H146.5Z"/><path class="cls-1" d="M185.46,10V3.16h-1.07V10Zm4.08,0V6.33a1.5,1.5,0,0,0-.29-1.09,1.08,1.08,0,0,0-.91-.39,1.1,1.1,0,0,0-.51.13,1.25,1.25,0,0,0-.33.32V4.93h-1v5h1V6.34c0-.39.22-.58.49-.58s.5.19.5.58V10Zm3.82-1.45a1.48,1.48,0,0,0-.21-.82,1.57,1.57,0,0,0-.73-.55l-.67-.29a.8.8,0,0,1-.37-.28.5.5,0,0,1-.08-.3.54.54,0,0,1,.14-.38.52.52,0,0,1,.38-.14.45.45,0,0,1,.35.15.65.65,0,0,1,.14.46h1a1.39,1.39,0,0,0-1.48-1.5,1.52,1.52,0,0,0-1.09.42,1.43,1.43,0,0,0-.44,1.08,1.29,1.29,0,0,0,.16.68,1.61,1.61,0,0,0,.74.58l.66.3a.84.84,0,0,1,.4.28.7.7,0,0,1,.1.38.57.57,0,0,1-.14.4.55.55,0,0,1-.39.14.52.52,0,0,1-.38-.15.65.65,0,0,1-.18-.48h-1a1.53,1.53,0,0,0,.45,1.13,1.55,1.55,0,0,0,1.11.41,1.41,1.41,0,0,0,1.09-.41A1.5,1.5,0,0,0,193.36,8.5ZM196.05,10V9c-.47,0-.71-.21-.71-.67V5.7h.7V4.93h-.7V3.64h-1V4.93h-.51V5.7h.51V8.42a1.43,1.43,0,0,0,.51,1.22A1.82,1.82,0,0,0,196.05,10Zm1.7,0V5.06h-1V10Zm.05-5.66V3.17h-1.11V4.29ZM200.67,10V9c-.48,0-.71-.21-.71-.67V5.7h.69V4.93H200V3.64h-1V4.93h-.52V5.7H199V8.42a1.46,1.46,0,0,0,.5,1.22A1.84,1.84,0,0,0,200.67,10Zm3.67,0v-5h-1V8.54c0,.39-.22.58-.49.58s-.5-.19-.5-.58V4.93h-1V8.55a1.47,1.47,0,0,0,.29,1.08,1.08,1.08,0,0,0,.91.39,1,1,0,0,0,.51-.14,1.43,1.43,0,0,0,.34-.31V10Zm2.92,0V9c-.48,0-.72-.21-.72-.67V5.7h.7V4.93h-.7V3.64h-1V4.93H205V5.7h.51V8.42A1.43,1.43,0,0,0,206,9.64,1.84,1.84,0,0,0,207.26,10Zm3.62-2.52a3.9,3.9,0,0,0-.35-2.06,1.34,1.34,0,0,0-1.19-.52,1.32,1.32,0,0,0-1.19.52,3.8,3.8,0,0,0-.35,2.06,3.8,3.8,0,0,0,.35,2.06,1.33,1.33,0,0,0,1.19.53,1.35,1.35,0,0,0,1.19-.53A3.9,3.9,0,0,0,210.88,7.43Zm-1,0a4,4,0,0,1-.14,1.49.47.47,0,0,1-.39.2.46.46,0,0,1-.39-.2,3.76,3.76,0,0,1-.14-1.49A3.64,3.64,0,0,1,209,6a.45.45,0,0,1,.39-.21.46.46,0,0,1,.39.21A3.84,3.84,0,0,1,209.87,7.43ZM216.32,10V3.16h-1V5.25a.93.93,0,0,0-.8-.4,1,1,0,0,0-.88.39c-.34.41-.35,1.11-.35,2.19s0,1.79.35,2.2a1,1,0,0,0,.88.39,1,1,0,0,0,.51-.14,1.4,1.4,0,0,0,.33-.31V10Zm-1-1.43a.59.59,0,0,1-.16.47.47.47,0,0,1-.34.13.44.44,0,0,1-.38-.2,3.76,3.76,0,0,1-.14-1.49A3.64,3.64,0,0,1,214.43,6a.43.43,0,0,1,.38-.21.47.47,0,0,1,.34.13.62.62,0,0,1,.16.48Zm4.93-.79c0-1,0-2-.46-2.48a1.36,1.36,0,0,0-1.07-.4,1.46,1.46,0,0,0-1.08.4,3.23,3.23,0,0,0-.47,2.18,3.2,3.2,0,0,0,.47,2.18,1.66,1.66,0,0,0,2.17,0,1.77,1.77,0,0,0,.42-1.15h-1a.91.91,0,0,1-.12.45.47.47,0,0,1-.38.2.46.46,0,0,1-.39-.2,2.55,2.55,0,0,1-.16-1.19Zm-1-.75h-1.06a2,2,0,0,1,.16-1,.43.43,0,0,1,.38-.2.44.44,0,0,1,.38.2A2.16,2.16,0,0,1,219.23,7Zm-31.87,7.47v-1H184v1h1.13v5.82h1.07V14.45Zm2.89,1.7v-1a1.55,1.55,0,0,0-.79.21,1.51,1.51,0,0,0-.43.4v-.53h-1v5h1V17a.82.82,0,0,1,.84-.87Zm3.49,4.12V16.72a1.57,1.57,0,0,0-.44-1.18,1.46,1.46,0,0,0-1.06-.37,1.56,1.56,0,0,0-1.06.41,1.46,1.46,0,0,0-.43,1.09h1a.68.68,0,0,1,.15-.47.45.45,0,0,1,.34-.14c.31,0,.48.21.48.58v.69h-.45a1.59,1.59,0,0,0-1.15.35,1.45,1.45,0,0,0-.47,1.12,1.75,1.75,0,0,0,.31,1.13,1.13,1.13,0,0,0,.94.42.88.88,0,0,0,.57-.18,1.23,1.23,0,0,0,.31-.33v.43Zm-1-1.48c0,.41-.23.67-.53.67s-.53-.25-.53-.7a.87.87,0,0,1,.2-.56.73.73,0,0,1,.53-.15h.33Zm5,1.48V16.65a1.5,1.5,0,0,0-.29-1.09,1.11,1.11,0,0,0-.91-.39,1,1,0,0,0-.51.14,1.08,1.08,0,0,0-.33.31v-.37h-1v5h1V16.66c0-.39.22-.58.49-.58s.5.19.5.58v3.61Zm3.82-1.45a1.48,1.48,0,0,0-.21-.82,1.57,1.57,0,0,0-.73-.55l-.67-.29a.8.8,0,0,1-.37-.28.48.48,0,0,1-.08-.3.56.56,0,0,1,.14-.38.57.57,0,0,1,.38-.14.49.49,0,0,1,.35.15.67.67,0,0,1,.14.46h1a1.46,1.46,0,0,0-.43-1.12,1.53,1.53,0,0,0-1.05-.38,1.52,1.52,0,0,0-1.09.42,1.43,1.43,0,0,0-.44,1.08,1.29,1.29,0,0,0,.16.68,1.61,1.61,0,0,0,.74.58l.66.3a.82.82,0,0,1,.39.29.58.58,0,0,1,.11.37.57.57,0,0,1-.14.4.55.55,0,0,1-.39.14.56.56,0,0,1-.39-.15.69.69,0,0,1-.17-.48h-1a1.53,1.53,0,0,0,.45,1.14,1.6,1.6,0,0,0,1.11.41,1.46,1.46,0,0,0,1.09-.41A1.52,1.52,0,0,0,201.54,18.82Zm3.82-1.07a3.73,3.73,0,0,0-.35-2.19,1.07,1.07,0,0,0-.89-.39,1,1,0,0,0-.51.14,1.08,1.08,0,0,0-.33.31v-.37h-1V22h1V20a1,1,0,0,0,.29.26,1,1,0,0,0,.51.14A1,1,0,0,0,205,20,3.73,3.73,0,0,0,205.36,17.75Zm-1,0a3.7,3.7,0,0,1-.15,1.49.43.43,0,0,1-.38.2.52.52,0,0,1-.34-.12.68.68,0,0,1-.16-.48V16.68a.68.68,0,0,1,.16-.48.53.53,0,0,1,.34-.13.42.42,0,0,1,.38.21A3.61,3.61,0,0,1,204.35,17.75Zm4.78,0a3.86,3.86,0,0,0-.35-2.05,1.6,1.6,0,0,0-2.38,0,3.76,3.76,0,0,0-.35,2.05,3.8,3.8,0,0,0,.35,2.06,1.58,1.58,0,0,0,2.38,0A3.9,3.9,0,0,0,209.13,17.75Zm-1,0a4,4,0,0,1-.14,1.49.47.47,0,0,1-.39.2.46.46,0,0,1-.39-.2,4,4,0,0,1-.14-1.49,3.87,3.87,0,0,1,.14-1.47.45.45,0,0,1,.39-.21.46.46,0,0,1,.39.21A3.87,3.87,0,0,1,208.12,17.75Zm4-1.6v-1a1.48,1.48,0,0,0-.78.21,1.43,1.43,0,0,0-.44.4v-.53h-1v5h1V17a.81.81,0,0,1,.83-.87Zm2.58,4.12v-.91c-.48,0-.72-.21-.72-.67V16h.7v-.77H214V14h-1v1.29h-.51V16H213v2.72a1.41,1.41,0,0,0,.51,1.22A1.84,1.84,0,0,0,214.75,20.27Zm3.61-2.22c0-.94,0-2-.46-2.48a1.36,1.36,0,0,0-1.07-.4,1.46,1.46,0,0,0-1.08.4,3.23,3.23,0,0,0-.47,2.18,3.24,3.24,0,0,0,.47,2.19,1.66,1.66,0,0,0,2.17,0,1.82,1.82,0,0,0,.42-1.16h-1a.91.91,0,0,1-.12.45.47.47,0,0,1-.38.2.46.46,0,0,1-.39-.2,2.55,2.55,0,0,1-.16-1.19Zm-1-.74h-1.06a2,2,0,0,1,.16-1,.43.43,0,0,1,.38-.2.44.44,0,0,1,.38.2A2.18,2.18,0,0,1,217.35,17.31ZM187.24,28.37c0-.94,0-2-.46-2.48a1.37,1.37,0,0,0-1.07-.4,1.44,1.44,0,0,0-1.08.4,3.24,3.24,0,0,0-.47,2.19,3.23,3.23,0,0,0,.47,2.18,1.38,1.38,0,0,0,1.08.41,1.44,1.44,0,0,0,1.09-.4,1.82,1.82,0,0,0,.42-1.16h-1a.85.85,0,0,1-.12.45.48.48,0,0,1-.78,0,2.74,2.74,0,0,1-.15-1.19Zm-1-.74h-1.06a2.14,2.14,0,0,1,.15-1,.45.45,0,0,1,.39-.2.44.44,0,0,1,.38.2A2.18,2.18,0,0,1,186.23,27.63Zm6.46,3v-1h-1.78V23.81h-1.07v6.78Zm3.66-2.51A3.9,3.9,0,0,0,196,26a1.61,1.61,0,0,0-2.39,0,3.9,3.9,0,0,0-.35,2.06,3.86,3.86,0,0,0,.35,2.05,1.59,1.59,0,0,0,2.39,0A3.86,3.86,0,0,0,196.35,28.08Zm-1,0a3.93,3.93,0,0,1-.14,1.48.45.45,0,0,1-.39.2.46.46,0,0,1-.4-.2,3.93,3.93,0,0,1-.14-1.48,3.9,3.9,0,0,1,.14-1.48.48.48,0,0,1,.79,0A3.9,3.9,0,0,1,195.34,28.08Zm4.75,2.61V25.57h-1v.32a.93.93,0,0,0-.3-.26,1,1,0,0,0-.51-.14,1,1,0,0,0-.87.38c-.32.37-.4.95-.4,2s.08,1.65.4,2a1,1,0,0,0,.87.38.8.8,0,0,0,.48-.12,1.21,1.21,0,0,0,.29-.27v.85a.94.94,0,0,1-.14.62.47.47,0,0,1-.37.16.46.46,0,0,1-.36-.15.71.71,0,0,1-.14-.47h-1a1.47,1.47,0,0,0,.42,1.1,1.5,1.5,0,0,0,1.08.39,1.58,1.58,0,0,0,1.09-.41A1.68,1.68,0,0,0,200.09,30.69Zm-1-1.88a.68.68,0,0,1-.14.46.51.51,0,0,1-.37.14.44.44,0,0,1-.37-.2,2.83,2.83,0,0,1-.15-1.31,2.78,2.78,0,0,1,.15-1.3.42.42,0,0,1,.37-.21.49.49,0,0,1,.36.14.71.71,0,0,1,.15.47Zm3,1.78v-5h-1v5Zm.61-6.92h-.86L201.17,25h.7Zm3.23,5.47a1.48,1.48,0,0,0-.21-.82,1.57,1.57,0,0,0-.73-.55l-.67-.29a.8.8,0,0,1-.37-.28.48.48,0,0,1-.08-.3.56.56,0,0,1,.14-.38.57.57,0,0,1,.38-.14.49.49,0,0,1,.35.15.67.67,0,0,1,.14.46h1a1.46,1.46,0,0,0-.43-1.12,1.52,1.52,0,0,0-1-.38,1.56,1.56,0,0,0-1.09.42,1.43,1.43,0,0,0-.44,1.08,1.33,1.33,0,0,0,.16.69,1.74,1.74,0,0,0,.74.58l.66.29a.77.77,0,0,1,.39.29.6.6,0,0,1,.11.37.57.57,0,0,1-.14.4.55.55,0,0,1-.39.14.52.52,0,0,1-.38-.15.63.63,0,0,1-.18-.48h-1a1.57,1.57,0,0,0,.45,1.14,1.6,1.6,0,0,0,1.11.41,1.46,1.46,0,0,0,1.09-.41A1.52,1.52,0,0,0,205.94,29.14Zm2.69,1.45v-.9c-.47,0-.71-.21-.71-.68V26.34h.7v-.77h-.7V24.28h-1v1.29h-.51v.77h.51v2.73a1.46,1.46,0,0,0,.5,1.22A1.92,1.92,0,0,0,208.63,30.59Zm1.7,0V25.7h-1v4.89Zm0-5.66V23.82h-1.11v1.11Zm3.84,4.18h-1a.84.84,0,0,1-.13.48.48.48,0,0,1-.76,0,3.7,3.7,0,0,1-.15-1.48,3.64,3.64,0,0,1,.15-1.48.46.46,0,0,1,.39-.21.43.43,0,0,1,.37.18.85.85,0,0,1,.13.47h1a1.76,1.76,0,0,0-.45-1.19,1.39,1.39,0,0,0-1.05-.36,1.34,1.34,0,0,0-1.19.53,3.79,3.79,0,0,0-.36,2.06,3.74,3.74,0,0,0,.36,2.05,1.34,1.34,0,0,0,1.19.54,1.46,1.46,0,0,0,1.06-.37A1.82,1.82,0,0,0,214.22,29.11Zm3.6,1.48V27.05a1.54,1.54,0,0,0-.44-1.18,1.43,1.43,0,0,0-1.06-.38,1.56,1.56,0,0,0-1.06.41,1.46,1.46,0,0,0-.43,1.09h1a.68.68,0,0,1,.15-.47.44.44,0,0,1,.33-.14c.32,0,.49.21.49.58v.7h-.45a1.59,1.59,0,0,0-1.15.34,1.48,1.48,0,0,0-.47,1.12,1.75,1.75,0,0,0,.31,1.13,1.13,1.13,0,0,0,.94.42.94.94,0,0,0,.57-.17,1.27,1.27,0,0,0,.31-.34v.43Zm-1-1.48c0,.41-.23.67-.53.67s-.53-.25-.53-.69a.9.9,0,0,1,.2-.57.73.73,0,0,1,.53-.15h.33Z"/><rect class="cls-1" x="174.29" y="2.8" width="1.59" height="27.79"/><path class="cls-1" d="M64.93,16.63c0,9.48-6.65,15.24-15.39,15.24-9.82,0-16.87-7.18-16.87-16.08A16.14,16.14,0,0,1,49.05-.37,16,16,0,0,1,62.7,6.71l-6.07,3.46A8.94,8.94,0,0,0,49,6.53a9,9,0,0,0-9.19,9.31c0,5.27,3.75,9.12,9.82,9.12,4.15,0,6.87-1.82,8-4.78H49.27V14H64.93Z"/><path class="cls-1" d="M65.15,24.21l6.16-3.55A6.54,6.54,0,0,0,77.87,25c3.39,0,4.23-1.33,4.23-2.52,0-1.91-1.78-2.66-6.46-4s-9.2-3.5-9.2-9.43S71.53-.37,76.93-.37a12.11,12.11,0,0,1,11.42,7l-6,3.5c-1.07-2.21-2.55-3.58-5.4-3.58-2.23,0-3.35,1.1-3.35,2.34,0,1.42.76,2.39,5.62,3.86s10,3,10,9.61c0,6-4.81,9.52-11.6,9.52C71.08,31.87,66.89,28.77,65.15,24.21Z"/><path class="cls-2" d="M24.57,48.85H39V47H24.57Z"/><path class="cls-3" d="M39.05,48.85H53.46V47H39.05Z"/><path class="cls-4" d="M53.49,48.85H67.9V47H53.49Z"/><path class="cls-5" d="M4,38.59H2.51l-.28.73H2l1.12-2.86h.23l1.12,2.86H4.23Zm-.08-.2-.64-1.66-.65,1.66Z"/><path class="cls-5" d="M5.25,38.69l.19-.11a.81.81,0,0,0,.86.58c.48,0,.73-.25.73-.57s-.31-.48-.75-.61-.91-.29-.91-.79a.79.79,0,0,1,.87-.77.94.94,0,0,1,.56.16.92.92,0,0,1,.36.44l-.18.1a.69.69,0,0,0-.29-.36.72.72,0,0,0-.45-.13c-.4,0-.65.23-.65.55s.29.45.71.58,1,.33,1,.82-.37.79-1,.79A1,1,0,0,1,5.25,38.69Z"/><path class="cls-5" d="M8.12,38.69l.19-.11a.82.82,0,0,0,.87.58c.47,0,.72-.25.72-.57s-.3-.48-.74-.61-.92-.29-.92-.79a.8.8,0,0,1,.88-.77,1,1,0,0,1,.55.15A1,1,0,0,1,10,37l-.18.1a.74.74,0,0,0-.29-.36.72.72,0,0,0-.45-.13c-.4,0-.65.23-.65.55s.29.45.7.58,1,.33,1,.82-.38.79-1,.79A1,1,0,0,1,8.12,38.69Z"/><path class="cls-5" d="M11.09,37.89a1.49,1.49,0,0,1,.25-.82,1.54,1.54,0,0,1,.67-.54,1.58,1.58,0,0,1,.86-.09,1.49,1.49,0,0,1,.76.41,1.46,1.46,0,0,1,.41.75,1.41,1.41,0,0,1-.09.86,1.51,1.51,0,0,1-.54.66,1.51,1.51,0,0,1-1.4.14,1.61,1.61,0,0,1-.48-.32,1.58,1.58,0,0,1-.33-.48A1.56,1.56,0,0,1,11.09,37.89Zm2.76,0a1.26,1.26,0,0,0-.22-.7,1.36,1.36,0,0,0-.57-.46,1.3,1.3,0,0,0-.73-.06,1.32,1.32,0,0,0-.65.34,1.18,1.18,0,0,0-.34.65,1.19,1.19,0,0,0,.07.72,1.26,1.26,0,0,0,1.17.78,1.19,1.19,0,0,0,.49-.1,1.39,1.39,0,0,0,.41-.27,1.22,1.22,0,0,0,.27-.41,1.19,1.19,0,0,0,.1-.49Z"/><path class="cls-5" d="M15.07,37.89a1.45,1.45,0,0,1,1.5-1.47,1.38,1.38,0,0,1,.71.17,1.49,1.49,0,0,1,.52.51l-.19.11a1.21,1.21,0,0,0-.44-.43,1.15,1.15,0,0,0-.6-.16,1.27,1.27,0,1,0,0,2.54,1.21,1.21,0,0,0,.61-.16,1.14,1.14,0,0,0,.43-.44l.2.11a1.44,1.44,0,0,1-.53.51,1.35,1.35,0,0,1-.71.19A1.46,1.46,0,0,1,15.07,37.89Z"/><path class="cls-5" d="M19.16,36.46v2.86h-.22V36.46Z"/><path class="cls-5" d="M22.15,38.59H20.71l-.28.73H20.2l1.12-2.86h.23l1.11,2.86h-.23Zm-.08-.2-.64-1.66-.64,1.66Z"/><path class="cls-5" d="M25,39.36v.19c.21,0,.37.13.37.31s-.17.37-.8.32V40c.42,0,.62,0,.62-.16s-.13-.18-.38-.18v-.32a1.41,1.41,0,0,1-1-.45,1.43,1.43,0,0,1-.4-1,1.45,1.45,0,0,1,1.5-1.47,1.36,1.36,0,0,1,.71.17,1.44,1.44,0,0,1,.53.51l-.2.11a1.07,1.07,0,0,0-.44-.43,1.15,1.15,0,0,0-.6-.16,1.27,1.27,0,1,0,0,2.54,1.18,1.18,0,0,0,.61-.16,1.1,1.1,0,0,0,.44-.44l.2.11a1.44,1.44,0,0,1-.49.49,1.42,1.42,0,0,1-.67.2Z"/><path class="cls-5" d="M28.92,38.59H27.48l-.28.73H27l1.12-2.86h.23l1.11,2.86H29.2Zm-.08-.2-.64-1.66-.64,1.66Zm-1-2.27h-.18c0-.46.29-.55.57-.3s.37.2.37-.12h.18c0,.46-.28.55-.57.31S27.82,35.8,27.82,36.12Z"/><path class="cls-5" d="M30.2,37.89a1.46,1.46,0,0,1,.92-1.36,1.58,1.58,0,0,1,.86-.09,1.49,1.49,0,0,1,.76.41,1.38,1.38,0,0,1,.4.75,1.49,1.49,0,0,1-.08.86,1.47,1.47,0,0,1-.55.66,1.49,1.49,0,0,1-.82.25,1.56,1.56,0,0,1-.57-.11,1.8,1.8,0,0,1-.49-.32,1.75,1.75,0,0,1-.32-.48,1.56,1.56,0,0,1-.11-.57Zm2.75,0a1.25,1.25,0,0,0-.21-.7,1.36,1.36,0,0,0-.57-.46,1.34,1.34,0,0,0-.74-.06,1.29,1.29,0,0,0-.64.34,1.26,1.26,0,0,0-.35.65,1.19,1.19,0,0,0,.08.72A1.28,1.28,0,0,0,31,39a1.37,1.37,0,0,0,.71.21,1.25,1.25,0,0,0,1.17-.78,1.18,1.18,0,0,0,.09-.49Z"/><path class="cls-5" d="M38.8,38.1a1.29,1.29,0,0,1-1.39,1.27,1.48,1.48,0,1,1,0-2.95,1.34,1.34,0,0,1,.71.18,1.37,1.37,0,0,1,.53.51l-.19.11a1.24,1.24,0,0,0-.44-.44,1.11,1.11,0,0,0-.61-.15,1.24,1.24,0,0,0-1.28,1.26,1.25,1.25,0,0,0,1.3,1.27,1.08,1.08,0,0,0,1.17-1H37.35V38H38.8Z"/><path class="cls-5" d="M41.52,38.59H40.07l-.28.73h-.23l1.12-2.86h.24L42,39.32H41.8Zm-.08-.2-.64-1.66-.64,1.66Z"/><path class="cls-5" d="M42.94,38.37V36.46h.22v1.91a.84.84,0,0,0,1.68,0V36.46h.22v1.91a1.06,1.06,0,0,1-2.12,0ZM44,36.18l.38-.52h-.25l-.33.52Z"/><path class="cls-5" d="M46.18,37.89a1.45,1.45,0,0,1,1.5-1.47,1.36,1.36,0,0,1,.71.17,1.44,1.44,0,0,1,.53.51l-.2.11a1.07,1.07,0,0,0-.44-.43,1.15,1.15,0,0,0-.6-.16,1.27,1.27,0,1,0,0,2.54,1.21,1.21,0,0,0,.61-.16,1.16,1.16,0,0,0,.44-.44l.19.11a1.44,1.44,0,0,1-.52.52,1.51,1.51,0,0,1-.72.18A1.46,1.46,0,0,1,46.18,37.89Z"/><path class="cls-5" d="M52.17,36.46v2.86H52V38H50.27v1.37h-.21V36.46h.21v1.29H52V36.46Z"/><path class="cls-5" d="M55.16,38.59H53.71l-.28.73H53.2l1.12-2.86h.23l1.12,2.86h-.23Zm-.08-.2-.64-1.66-.64,1.66Z"/><path class="cls-5" d="M60.86,37.89a1.37,1.37,0,0,1-1.36,1.43H58.42V36.46H59.5A1.37,1.37,0,0,1,60.86,37.89Zm-.21,0a1.15,1.15,0,0,0-1.15-1.22h-.86v2.45h.86a1.16,1.16,0,0,0,1.15-1.23Z"/><path class="cls-5" d="M63.69,39.12v.2H62V36.46h1.64v.21H62.25v1.11h1.32V38H62.25v1.14Z"/><path class="cls-5" d="M66.39,38.69l.19-.11a.8.8,0,0,0,.86.58c.47,0,.72-.25.72-.57s-.3-.48-.74-.61-.91-.29-.91-.79a.79.79,0,0,1,.87-.77,1,1,0,0,1,.92.6l-.18.1a.74.74,0,0,0-.29-.36.72.72,0,0,0-.45-.13c-.4,0-.65.23-.65.55s.29.45.7.58,1,.33,1,.82-.38.79-1,.79A1,1,0,0,1,66.39,38.69Z"/><path class="cls-5" d="M71.21,36.67H70.3v2.65h-.22V36.67h-.91v-.21h2Z"/><path class="cls-5" d="M73.73,38.59H72.28l-.28.73h-.23l1.12-2.86h.23l1.12,2.86H74Zm-.08-.2L73,36.73l-.64,1.66Z"/><path class="cls-5" d="M76.4,38.15h-.91v1.17h-.21V36.46h1.13a.84.84,0,0,1,.85.74.84.84,0,0,1-.63.92l.72,1.2H77.1Zm-.91-.21h.92a.65.65,0,0,0,.46-.18.64.64,0,0,0,0-.91.65.65,0,0,0-.46-.18h-.92Z"/><path class="cls-5" d="M80.13,36.67h-.91v2.65H79V36.67h-.91v-.21h2Z"/><path class="cls-5" d="M81.15,38.37V36.46h.22v1.91a.84.84,0,0,0,1.68,0V36.46h.22v1.91a1.06,1.06,0,0,1-2.12,0Z"/><path class="cls-5" d="M86.43,37.35a.66.66,0,0,1-.06.34.81.81,0,0,1-.19.29,1,1,0,0,1-.3.19,1,1,0,0,1-.34.06h-.76v1.09h-.22V36.46h1a1,1,0,0,1,.34.06,1,1,0,0,1,.3.19.91.91,0,0,1,.19.29.7.7,0,0,1,.06.35Zm-.21,0a.66.66,0,0,0-.68-.68h-.76V38h.76A.75.75,0,0,0,85.8,38a.57.57,0,0,0,.23-.15.64.64,0,0,0,.14-.22.75.75,0,0,0,0-.26Z"/><path class="cls-5" d="M87.34,38.69l.18-.11a.82.82,0,0,0,.87.58c.47,0,.72-.25.72-.57s-.3-.48-.74-.61-.91-.29-.91-.79a.79.79,0,0,1,.87-.77,1,1,0,0,1,.56.15,1,1,0,0,1,.36.45l-.18.1a.69.69,0,0,0-.29-.36.72.72,0,0,0-.45-.13c-.4,0-.65.23-.65.55s.29.45.7.58,1,.33,1,.82-.37.79-1,.79A1,1,0,0,1,87.34,38.69Z"/><path class="cls-1" d="M33.57,31.25,23,.25h-9.1l-10.62,31H8.1a2.28,2.28,0,0,1,.34-1,2.53,2.53,0,0,1,.81-.53,2.18,2.18,0,0,1,.93-.19,3.06,3.06,0,0,1,.86.18.31.31,0,0,0,.25,0,.3.3,0,0,0,.17-.18,2.47,2.47,0,0,1,1.3-1.32A2.59,2.59,0,0,1,13.94,28a2.64,2.64,0,0,1,1.07.27V28a2.43,2.43,0,0,1,1.61-2.19.3.3,0,0,0,.18-.17.31.31,0,0,0,0-.25,1.64,1.64,0,0,1-.09-.62,1.36,1.36,0,0,1,.64-1.19.82.82,0,0,1,.38-.09h0a.33.33,0,0,0,.14,0l.11-.06a.44.44,0,0,0,.08-.11.28.28,0,0,0,0-.13l.06-1.95a.17.17,0,0,0,0-.12.47.47,0,0,0-.07-.12.41.41,0,0,0-.11-.07.3.3,0,0,0-.13,0h-.94a.74.74,0,0,1-.53-.21.72.72,0,0,1-.22-.5v-.48a.43.43,0,0,1,.11-.28.51.51,0,0,1,.13-.09.4.4,0,0,1,.15,0c0-.1-.08-.2-.11-.3-.38.37-.87.73-.86.91a12.68,12.68,0,0,1-.15,2.6,1.86,1.86,0,0,1-.57.53c-.26.14-.53.19-.63-.11a11.67,11.67,0,0,1-.09-4.6,3.66,3.66,0,0,1,1.47-2,.36.36,0,0,0,.16-.14.35.35,0,0,0,0-.2,30.81,30.81,0,0,1-.39-4.28,9.85,9.85,0,0,1,.16-2.1,8,8,0,0,1,.9-2.58L16.53,7a3,3,0,0,1,.19-.3l.1-.15c.06-.08.12-.17.19-.25a1.47,1.47,0,0,0,.1-.13l.18-.2.11-.11.16-.16.11-.1.15-.12.1-.07.13-.09.09,0,.12,0,.07,0,.11,0h.06l.11,0,.07,0,.12.05.09,0,.14.08.1.07.16.12.1.08.19.17.1.1.2.21.09.11.22.27.08.11.24.35a.35.35,0,0,0,0,.08,9.2,9.2,0,0,1,1.23,4.64A32.22,32.22,0,0,1,21.56,16a.32.32,0,0,0,0,.21.3.3,0,0,0,.16.13,3.63,3.63,0,0,1,1.56,1.95,11.31,11.31,0,0,1,.18,4h0c0,.09,0,.16,0,.23a2.93,2.93,0,0,1-.06.33c-.19.61-1.08-.13-1.21-.38A11.82,11.82,0,0,1,22,19.86c0-.19-.51-.53-.91-.89,0,.1-.06.2-.1.3a.41.41,0,0,1,.41.4v.47h0a.87.87,0,0,1-.05.28.78.78,0,0,1-.16.24.79.79,0,0,1-.23.16.87.87,0,0,1-.28.05l-.79,0a.35.35,0,0,0-.22.08.35.35,0,0,0-.1.21l-.13,1.37v0a.28.28,0,0,0,0,.18.37.37,0,0,0,.15.13.93.93,0,0,1,.41.35.85.85,0,0,1,.14.52.86.86,0,0,1-.1.38.38.38,0,0,0,0,.21.29.29,0,0,0,.1.18,1.4,1.4,0,0,1,.27.33.47.47,0,0,0,.1.1.29.29,0,0,0,.13.05,2.08,2.08,0,0,1,1.76,2.09,1.71,1.71,0,0,1-.11.59.3.3,0,0,0,0,.16.26.26,0,0,0,.07.15.3.3,0,0,0,.13.09.29.29,0,0,0,.16,0,3.44,3.44,0,0,1,2.87,1.14.33.33,0,0,0,.41.07,3,3,0,0,1,.31-.15,2.35,2.35,0,0,1,1-.16,2.38,2.38,0,0,1,.75.15,6,6,0,0,1,.68.32,1.75,1.75,0,0,1,.75,1.76Z"/></svg>